<svg version="1.1" id="Layer_1" xmlns="http://www.w3.org/2000/svg" xmlns:xlink="http://www.w3.org/1999/xlink" x="0px"
	y="0px" width="100%" viewBox="0 0 5721 3845" enable-background="new 0 0 5721 3845" xml:space="preserve">



	<path fill="#DADBDB" opacity="1.000000" stroke="none" d="
M3524.418945,1194.928223 
	C3531.767822,1224.275757 3539.250488,1252.581787 3545.424805,1281.170410 
	C3561.677246,1356.424072 3567.704590,1432.622314 3565.512207,1509.554810 
	C3564.219238,1554.929688 3559.428955,1599.916504 3552.330811,1646.354980 
	C3548.639893,1664.760864 3545.165283,1681.587646 3540.885742,1698.207397 
	C3534.131104,1724.439819 3526.835938,1750.533325 3519.108398,1778.635742 
	C3517.714111,1781.414551 3517.558838,1782.340332 3517.981445,1783.363281 
	C3517.247803,1785.178467 3516.514160,1786.993652 3515.099121,1790.686768 
	C3513.669434,1793.399780 3513.509033,1794.335693 3513.935791,1795.372559 
	C3513.169434,1797.240356 3512.402832,1799.108154 3510.562744,1803.483276 
	C3480.843994,1884.723389 3443.339355,1958.937134 3396.174316,2028.228638 
	C3390.642334,2036.356079 3385.237793,2044.570435 3379.244141,2052.994141 
	C3378.052002,2053.804199 3377.822266,2054.505859 3377.329102,2055.931641 
	C3376.633301,2056.513916 3376.112549,2058.252686 3375.343506,2058.651855 
	C3373.811523,2060.529541 3373.048584,2062.007812 3371.157227,2064.266357 
	C3344.497070,2098.366455 3317.487793,2130.412598 3288.031494,2160.359619 
	C3286.198730,2162.223145 3284.840820,2164.553711 3283.262207,2166.666992 
	C3277.157715,2172.257080 3271.053223,2177.847168 3263.680176,2184.663086 
	C3261.689941,2186.287598 3261.428223,2186.887207 3261.626465,2187.688232 
	C3261.626465,2187.688232 3260.293213,2188.229980 3259.282715,2188.957275 
	C3257.413574,2190.154053 3256.870850,2190.864990 3256.644043,2191.817383 
	C3247.638428,2199.684082 3238.633057,2207.550781 3227.685791,2217.116699 
	C3212.279297,2229.652344 3199.068115,2240.822266 3185.311523,2251.274414 
	C3027.171631,2371.431152 2848.720703,2437.756592 2650.777100,2451.000488 
	C2568.730225,2456.490234 2487.001221,2451.293457 2406.287842,2435.046387 
	C2223.702148,2398.292969 2063.837646,2316.768799 1927.017822,2190.252441 
	C1922.161865,2185.761963 1916.973877,2181.630615 1911.940674,2177.331787 
	C1911.940674,2177.331787 1911.509644,2176.174316 1910.880981,2175.384766 
	C1909.818726,2173.825439 1909.166748,2173.519531 1908.296387,2173.677979 
	C1908.296387,2173.677979 1907.650269,2172.345459 1906.936523,2171.472168 
	C1905.798462,2169.836426 1905.157471,2169.537109 1904.299805,2169.700928 
	C1904.299805,2169.700928 1903.648315,2168.355957 1902.932129,2167.475098 
	C1901.792725,2165.832031 1901.152466,2165.531494 1900.295044,2165.692383 
	C1900.295044,2165.692383 1899.657837,2164.354736 1898.942139,2163.469238 
	C1897.798706,2161.814209 1897.150635,2161.504150 1896.281982,2161.653809 
	C1896.281982,2161.653809 1895.675293,2160.340332 1894.963135,2159.452637 
	C1893.813965,2157.781982 1893.151245,2157.453857 1892.262695,2157.581055 
	C1892.262695,2157.581055 1891.739868,2156.318848 1891.044189,2155.412598 
	C1889.883911,2153.680176 1889.179688,2153.312988 1888.235840,2153.405029 
	C1888.235840,2153.405029 1887.943359,2152.391113 1887.254883,2151.468750 
	C1885.968750,2149.549805 1885.089233,2149.028809 1883.841553,2148.514160 
	C1883.755249,2148.044434 1882.819946,2147.852051 1882.759644,2147.229004 
	C1882.253906,2145.718750 1881.550293,2145.398926 1879.454834,2144.776367 
	C1863.963989,2131.866699 1854.244873,2115.972900 1843.096680,2101.291748 
	C1823.895996,2076.006104 1804.853027,2050.598877 1785.995850,2025.056641 
	C1782.123291,2019.811279 1779.356689,2013.749512 1777.520020,2008.124023 
	C1782.032959,2009.305420 1785.789917,2009.653442 1788.072021,2011.670410 
	C1807.003296,2028.402344 1825.664917,2045.439575 1844.397949,2062.395508 
	C1845.879883,2063.736816 1847.213867,2065.247559 1848.739868,2066.533447 
	C1875.225342,2088.845947 1902.676392,2109.958740 1931.630737,2128.905029 
	C1957.244507,2145.665527 1983.516235,2161.483398 2010.065186,2176.728760 
	C2027.908447,2186.975098 2045.633911,2197.478271 2065.118652,2204.878906 
	C2086.240234,2212.901123 2106.982422,2221.979980 2125.571533,2235.477783 
	C2142.517334,2247.782227 2142.906250,2247.246582 2163.431152,2245.391113 
	C2157.344971,2259.277832 2160.993652,2270.113037 2169.708496,2279.394287 
	C2184.988525,2295.666992 2203.492920,2306.617188 2225.736084,2310.176514 
	C2229.954346,2310.851318 2234.917969,2309.781738 2238.954346,2308.109375 
	C2249.541992,2303.723145 2252.726562,2294.752441 2253.467529,2284.315918 
	C2260.724854,2286.431152 2263.086426,2290.982422 2264.147949,2296.504639 
	C2265.431396,2303.182373 2269.788086,2306.819336 2276.023926,2308.533936 
	C2280.500732,2309.764893 2284.974609,2311.128174 2289.540283,2311.890869 
	C2306.553223,2314.731934 2323.600342,2317.366211 2340.640381,2320.043457 
	C2349.158936,2321.381836 2357.657471,2323.446289 2366.220947,2323.791504 
	C2390.746582,2324.779297 2415.007324,2330.220703 2439.705322,2328.127686 
	C2441.015381,2328.016846 2442.612549,2327.843506 2443.646240,2328.441895 
	C2457.451904,2336.433594 2470.605957,2333.802490 2485.099854,2328.918457 
	C2494.688965,2325.687256 2506.188477,2328.279785 2516.823242,2327.953369 
	C2528.093994,2327.607666 2539.363037,2327.037842 2550.614746,2326.291504 
	C2558.541992,2325.765625 2566.427002,2324.614990 2574.353027,2324.056641 
	C2580.316650,2323.636719 2586.431885,2324.419678 2592.279053,2323.453369 
	C2621.742432,2318.584229 2651.105469,2313.103271 2680.582520,2308.322266 
	C2689.124756,2306.936768 2695.867188,2303.973633 2699.393555,2295.732666 
	C2701.070068,2291.814941 2703.708740,2289.109375 2707.887451,2289.555176 
	C2709.860352,2315.109863 2719.773926,2327.648682 2741.747803,2331.118164 
	C2760.067383,2334.010498 2778.795898,2334.861084 2797.110840,2331.301514 
	C2811.884766,2328.429932 2824.042969,2321.374268 2830.738525,2306.235596 
	C2837.464844,2291.026367 2835.824951,2277.980225 2824.980713,2265.743896 
	C2824.546875,2265.254639 2824.281006,2264.617188 2825.369141,2263.428467 
	C2837.663574,2260.378906 2848.820068,2258.825195 2859.310791,2255.293701 
	C2871.737549,2251.110107 2883.526855,2245.065918 2895.712402,2240.123291 
	C2904.911377,2236.392090 2908.903320,2229.814697 2909.310059,2220.630859 
	C2919.978516,2224.706055 2929.099121,2228.985840 2938.677734,2231.563477 
	C2963.075684,2238.128906 2987.682861,2243.915039 3012.196533,2250.052002 
	C3022.733643,2252.690186 3033.135010,2252.152100 3043.793701,2250.164062 
	C3073.356934,2244.649170 3096.114258,2228.464844 3115.476562,2206.338379 
	C3148.157471,2168.992188 3139.652588,2113.089355 3109.678223,2087.250244 
	C3100.411377,2079.261719 3090.345215,2073.329834 3080.147461,2066.404541 
	C3082.987305,2062.093750 3085.162109,2058.732666 3088.036133,2056.150391 
	C3105.335693,2040.607544 3123.259766,2025.731323 3140.098633,2009.711060 
	C3169.516846,1981.722290 3197.915771,1952.719482 3222.173096,1919.966797 
	C3236.021973,1901.267456 3250.982910,1883.298950 3263.639648,1863.829224 
	C3288.665771,1825.331421 3311.149170,1785.385742 3330.545654,1743.610962 
	C3348.567627,1704.797363 3362.493164,1664.610474 3374.962158,1623.866089 
	C3381.182861,1603.539673 3385.773926,1582.686646 3390.450195,1561.925171 
	C3393.808105,1547.017822 3396.580078,1531.937500 3398.732666,1516.809082 
	C3402.193604,1492.488159 3407.393311,1468.069580 3407.448975,1443.682129 
	C3407.561279,1394.508911 3411.733643,1345.171753 3404.264404,1296.106934 
	C3401.868164,1280.365967 3401.552734,1264.298706 3398.969971,1248.597046 
	C3390.638184,1197.948364 3378.482666,1148.234741 3362.034668,1099.536865 
	C3352.428955,1071.096924 3340.730713,1043.599609 3329.059326,1015.990112 
	C3318.877930,991.905273 3304.213379,970.437500 3292.743652,947.178589 
	C3291.873779,945.414917 3290.624268,943.703064 3289.166748,942.395874 
	C3286.863770,940.330688 3284.234863,938.628906 3281.211426,936.376953 
	C3277.571533,939.712708 3274.911621,942.653870 3271.775635,944.942993 
	C3250.868408,960.204468 3226.663330,965.161865 3201.827393,962.764465 
	C3182.121826,960.862305 3162.385010,956.337646 3142.826172,947.360596 
	C3131.388672,936.619446 3120.348633,927.221191 3110.932129,916.408875 
	C3097.021484,900.436279 3085.308105,883.031799 3088.032227,858.726868 
	C3092.404297,845.874451 3102.577393,841.275879 3112.627930,838.416748 
	C3132.483643,832.768066 3152.749023,828.989197 3173.582764,834.348145 
	C3184.517578,837.160828 3195.664307,839.180969 3206.769043,841.274109 
	C3209.057373,841.705383 3211.584229,840.871887 3215.644775,840.450928 
	C3214.035889,836.169006 3213.647461,832.659119 3211.742676,830.465698 
	C3199.117188,815.926819 3186.376465,801.474731 3173.251465,787.387024 
	C3163.729004,777.165771 3153.379395,767.719849 3143.711914,757.627869 
	C3119.720947,732.583618 3092.292236,711.590942 3065.271973,690.063477 
	C3041.800049,671.362793 3017.020020,654.633789 2991.131836,639.595825 
	C2967.572510,625.910522 2944.080811,611.887146 2919.507568,600.229980 
	C2893.124268,587.714233 2865.504883,577.806702 2838.442139,566.719055 
	C2798.866699,550.504822 2757.486328,540.529236 2715.801758,531.838989 
	C2696.328369,527.779175 2676.587891,524.743591 2656.834229,522.352173 
	C2635.126709,519.724243 2613.520996,515.753784 2591.517578,515.934204 
	C2580.870605,516.021484 2570.220459,515.843445 2559.572510,515.723450 
	C2553.613037,515.656250 2549.460449,512.930054 2547.526123,507.148224 
	C2553.401367,506.336823 2559.260254,504.974304 2565.154053,504.801422 
	C2611.187256,503.451324 2657.031006,505.911346 2702.812988,511.001160 
	C2790.754883,520.778137 2875.559326,542.634705 2957.460449,575.893799 
	C3062.775635,618.661133 3157.850830,677.929077 3242.684326,753.602234 
	C3252.560547,762.412231 3262.948730,770.717896 3272.223145,780.121643 
	C3333.276611,842.028259 3387.692383,909.165649 3431.574463,984.473022 
	C3457.439941,1028.861816 3479.881348,1074.929565 3498.697998,1122.747925 
	C3500.649414,1127.706665 3502.541016,1132.688965 3505.212158,1139.747437 
	C3506.253174,1142.947632 3506.927002,1143.728638 3507.985840,1144.177612 
	C3512.338135,1158.102783 3516.690430,1172.028076 3521.746582,1187.923340 
	C3522.562500,1190.911255 3523.096680,1191.604004 3524.052979,1191.971436 
	C3524.020752,1192.652710 3523.988525,1193.334106 3524.418945,1194.928223 
M2651.849121,2382.373047 
	C2651.531250,2376.831543 2650.212402,2371.190186 2644.329834,2369.788086 
	C2640.188965,2368.801025 2634.789062,2369.078613 2631.130371,2371.016846 
	C2625.485107,2374.007568 2620.399902,2378.486328 2616.019287,2383.208252 
	C2614.402100,2384.951416 2614.225342,2389.874756 2615.518555,2392.124756 
	C2619.226562,2398.574707 2624.763184,2403.211182 2632.821777,2403.657959 
	C2642.886230,2404.215820 2647.679688,2399.699219 2651.849121,2382.373047 
z" />
	<path fill="#ECECEC" opacity="1.000000" stroke="none" d="
M2545.826172,506.804565 
	C2549.460449,512.930054 2553.613037,515.656250 2559.572510,515.723450 
	C2570.220459,515.843445 2580.870605,516.021484 2591.517578,515.934204 
	C2613.520996,515.753784 2635.126709,519.724243 2656.834229,522.352173 
	C2676.587891,524.743591 2696.328369,527.779175 2715.801758,531.838989 
	C2757.486328,540.529236 2798.866699,550.504822 2838.442139,566.719055 
	C2865.504883,577.806702 2893.124268,587.714233 2919.507568,600.229980 
	C2944.080811,611.887146 2967.572510,625.910522 2991.131836,639.595825 
	C3017.020020,654.633789 3041.800049,671.362793 3065.271973,690.063477 
	C3092.292236,711.590942 3119.720947,732.583618 3143.711914,757.627869 
	C3153.379395,767.719849 3163.729004,777.165771 3173.251465,787.387024 
	C3186.376465,801.474731 3199.117188,815.926819 3211.742676,830.465698 
	C3213.647461,832.659119 3214.035889,836.169006 3215.644775,840.450928 
	C3211.584229,840.871887 3209.057373,841.705383 3206.769043,841.274109 
	C3195.664307,839.180969 3184.517578,837.160828 3173.582764,834.348145 
	C3152.749023,828.989197 3132.483643,832.768066 3112.627930,838.416748 
	C3102.577393,841.275879 3092.404297,845.874451 3086.728516,858.412537 
	C3071.270264,851.995422 3062.097168,839.720764 3051.980957,828.280945 
	C3043.221924,818.376099 3033.491699,809.316895 3023.999512,800.080322 
	C3020.203369,796.386353 3015.563721,793.541626 3011.874268,789.758118 
	C2991.760010,769.129211 2968.186035,752.597412 2944.421387,736.990051 
	C2908.337646,713.292114 2870.907959,691.647400 2830.713379,674.999390 
	C2805.449219,664.535461 2779.841553,655.307983 2753.953369,646.674683 
	C2744.540283,643.535706 2735.815186,643.045593 2727.729248,650.105896 
	C2725.297607,652.229004 2722.204102,653.917053 2719.125244,654.913574 
	C2710.457275,657.719238 2703.736328,654.065552 2700.507812,645.171448 
	C2699.187500,641.533997 2698.093994,637.814209 2696.621094,633.281982 
	C2679.227051,630.315125 2662.276855,627.374451 2645.302734,624.581177 
	C2642.705566,624.153748 2639.969971,624.154236 2637.348633,624.431213 
	C2635.447754,624.631958 2633.629639,625.616333 2630.744873,626.603699 
	C2631.154785,631.052368 2631.565918,635.511169 2630.707275,639.723389 
	C2622.768066,638.217346 2620.447998,631.858765 2615.500488,626.708130 
	C2611.599854,619.163208 2605.529297,620.345581 2598.410645,620.000000 
	C2590.445312,618.293274 2583.826416,617.228394 2577.719727,614.849548 
	C2538.775146,599.679138 2498.123779,593.572205 2456.680664,592.138855 
	C2436.749512,591.449463 2416.940674,592.955627 2396.992676,595.401794 
	C2359.177979,600.038757 2322.172363,607.407166 2285.812256,618.683594 
	C2237.767334,633.583923 2193.029297,655.574402 2149.884033,681.033752 
	C2098.050049,711.620300 2051.042725,748.541870 2007.727417,790.247070 
	C1994.761597,802.730957 1982.639526,815.921509 1971.584229,830.181091 
	C1959.779053,845.407654 1947.348022,860.160645 1934.871582,874.849609 
	C1929.566040,881.095947 1927.918335,886.576904 1932.040161,894.629395 
	C1937.281738,904.869446 1932.745117,913.246826 1921.924438,915.203674 
	C1916.084717,916.259705 1909.982178,915.863159 1903.326904,914.963745 
	C1899.103882,908.455261 1895.552124,903.105042 1892.232300,898.104370 
	C1883.845337,900.172668 1879.859375,905.797974 1875.805664,910.859802 
	C1869.164795,919.152283 1862.981689,927.841736 1857.030884,936.651062 
	C1830.562988,975.833069 1805.769897,1015.982727 1788.078369,1060.058350 
	C1780.151978,1079.805664 1771.476074,1099.368652 1765.298828,1119.671875 
	C1757.762207,1144.443115 1752.419678,1169.886597 1746.264404,1195.072632 
	C1736.281616,1235.921143 1731.573730,1277.382324 1731.985718,1319.437988 
	C1732.135742,1334.748413 1731.961548,1350.061768 1732.038452,1365.373291 
	C1732.065186,1370.691650 1731.929077,1376.076416 1732.678345,1381.314697 
	C1736.531128,1408.247681 1739.421265,1435.399414 1744.980469,1461.986938 
	C1752.048096,1495.787476 1758.104004,1529.928955 1769.576172,1562.681396 
	C1775.953613,1580.888550 1783.012207,1598.870239 1788.934204,1617.221069 
	C1801.883789,1657.348755 1819.987061,1695.091797 1842.051270,1730.828613 
	C1871.500244,1778.526123 1905.104370,1823.071045 1946.970337,1860.810913 
	C1951.826538,1865.188477 1957.562256,1868.604004 1962.968506,1872.352539 
	C1965.681885,1874.234009 1968.830444,1875.551514 1971.341797,1877.651001 
	C1993.796631,1896.422729 2016.699463,1914.593872 2041.416504,1930.343506 
	C2046.638794,1933.671143 2051.228271,1937.271729 2050.202637,1943.982178 
	C2033.176270,1944.089355 2017.995361,1943.504517 2003.093140,1948.084839 
	C1985.191162,1953.587158 1973.638672,1964.799072 1968.156616,1982.741455 
	C1963.614380,1997.607666 1963.854370,2012.785767 1962.890869,2027.330444 
	C1957.335327,2022.599365 1952.669434,2018.793579 1948.547974,2014.468994 
	C1926.059692,1990.872803 1901.014526,1969.752808 1881.201660,1943.542114 
	C1870.798340,1929.779663 1858.246582,1917.621338 1848.073364,1903.708862 
	C1824.494019,1871.463135 1802.673828,1838.109253 1782.961914,1803.216431 
	C1758.939941,1760.694092 1739.858032,1716.161987 1723.028809,1670.540649 
	C1717.506592,1655.570923 1713.255371,1640.109985 1708.877686,1624.744141 
	C1689.673340,1557.336548 1675.775269,1489.071899 1675.849854,1418.550537 
	C1675.856812,1411.956787 1674.752808,1405.307129 1673.618164,1398.778442 
	C1671.426147,1386.166382 1671.465210,1373.664307 1673.638184,1361.042480 
	C1674.874146,1353.864380 1676.126099,1346.490723 1675.800415,1339.276123 
	C1674.286621,1305.758423 1680.008301,1272.832031 1685.418823,1240.166626 
	C1693.359985,1192.224365 1704.636841,1144.841064 1721.060547,1098.937134 
	C1729.578125,1075.130615 1739.116821,1051.731567 1749.093750,1028.448975 
	C1762.794067,996.477539 1779.391602,966.214905 1797.141846,936.491638 
	C1807.037598,919.920654 1817.797485,903.864380 1828.225098,887.612732 
	C1832.182861,881.444397 1836.816895,875.567383 1835.562256,867.515381 
	C1837.967285,864.075256 1840.372314,860.635132 1844.502686,856.118652 
	C1847.043945,854.375366 1847.568115,853.528137 1847.800781,852.500549 
	C1847.800781,852.500549 1847.737183,851.832947 1848.803955,851.357788 
	C1850.780396,850.121887 1851.385986,849.167908 1851.687500,848.020813 
	C1851.687500,848.020813 1851.675415,847.721680 1852.616943,847.212097 
	C1854.544556,845.867249 1855.186035,844.820862 1855.483032,843.563232 
	C1860.427002,837.389404 1865.070923,830.944946 1870.360229,825.082703 
	C1942.080322,745.592468 2024.777954,679.882202 2118.369385,627.885193 
	C2124.736328,624.347900 2131.089600,620.786011 2138.481934,616.385071 
	C2146.800537,612.123169 2154.086670,608.711792 2162.371094,604.415649 
	C2196.488525,589.817444 2229.223389,575.067749 2262.809570,562.614563 
	C2325.321289,539.436340 2389.770508,523.479736 2459.177246,515.499817 
	C2468.436279,516.301392 2474.531250,516.754883 2479.718750,512.564209 
	C2484.007812,511.856873 2488.296631,511.149536 2495.224121,511.727386 
	C2511.391846,517.571716 2512.864746,517.279724 2519.916504,508.640320 
	C2527.986328,507.913879 2536.056152,507.187408 2545.826172,506.804565 
z" />
	<path fill="#DFDFDF" opacity="1.000000" stroke="none" d="
M1834.351929,868.087769 
	C1836.816895,875.567383 1832.182861,881.444397 1828.225098,887.612732 
	C1817.797485,903.864380 1807.037598,919.920654 1797.141846,936.491638 
	C1779.391602,966.214905 1762.794067,996.477539 1749.093750,1028.448975 
	C1739.116821,1051.731567 1729.578125,1075.130615 1721.060547,1098.937134 
	C1704.636841,1144.841064 1693.359985,1192.224365 1685.418823,1240.166626 
	C1680.008301,1272.832031 1674.286621,1305.758423 1675.800415,1339.276123 
	C1676.126099,1346.490723 1674.874146,1353.864380 1673.638184,1361.042480 
	C1671.465210,1373.664307 1671.426147,1386.166382 1673.618164,1398.778442 
	C1674.752808,1405.307129 1675.856812,1411.956787 1675.849854,1418.550537 
	C1675.775269,1489.071899 1689.673340,1557.336548 1708.877686,1624.744141 
	C1713.255371,1640.109985 1717.506592,1655.570923 1723.028809,1670.540649 
	C1739.858032,1716.161987 1758.939941,1760.694092 1782.961914,1803.216431 
	C1802.673828,1838.109253 1824.494019,1871.463135 1848.073364,1903.708862 
	C1858.246582,1917.621338 1870.798340,1929.779663 1881.201660,1943.542114 
	C1901.014526,1969.752808 1926.059692,1990.872803 1948.547974,2014.468994 
	C1952.669434,2018.793579 1957.335327,2022.599365 1963.685547,2028.181885 
	C1966.454712,2031.870483 1967.288086,2034.021851 1968.196777,2037.648926 
	C1972.928467,2058.916260 1983.207397,2075.755615 1996.722778,2090.482422 
	C2017.712769,2113.353516 2044.604980,2127.455078 2072.679443,2139.539551 
	C2091.654297,2147.707520 2111.117188,2153.634277 2133.439941,2152.632812 
	C2139.247314,2153.433350 2143.777832,2153.975586 2148.279297,2153.792725 
	C2152.225342,2153.632812 2156.138428,2152.659180 2160.172363,2153.492188 
	C2160.713623,2160.096436 2163.498047,2163.613770 2168.112793,2165.623779 
	C2174.212158,2168.280518 2180.469238,2170.581787 2186.534424,2173.311523 
	C2236.457764,2195.779541 2287.995361,2213.409912 2341.458740,2225.338867 
	C2357.041748,2228.815674 2372.575439,2232.513916 2388.126465,2237.644043 
	C2387.779785,2250.616699 2393.244385,2259.272461 2401.015625,2267.046875 
	C2409.192383,2275.227295 2418.816406,2280.854492 2429.994629,2283.241699 
	C2443.659180,2286.160156 2456.605713,2280.335938 2463.652100,2267.984863 
	C2467.204102,2261.759521 2469.271240,2254.687012 2473.883789,2247.994385 
	C2527.498535,2246.422607 2579.401611,2251.686035 2631.004883,2244.075928 
	C2655.260742,2240.499023 2679.770508,2238.361084 2703.831543,2233.808105 
	C2745.641357,2225.896973 2786.840576,2215.325195 2826.988281,2200.970703 
	C2843.242188,2195.159180 2859.589111,2189.606689 2876.225098,2185.295410 
	C2883.037598,2201.542480 2892.490479,2213.635742 2907.970703,2220.060547 
	C2908.903320,2229.814697 2904.911377,2236.392090 2895.712402,2240.123291 
	C2883.526855,2245.065918 2871.737549,2251.110107 2859.310791,2255.293701 
	C2848.820068,2258.825195 2837.663574,2260.378906 2823.844238,2263.120850 
	C2793.925537,2253.250977 2766.513184,2253.469238 2738.947510,2260.281738 
	C2723.884521,2264.004639 2713.008789,2272.872559 2707.844727,2287.942627 
	C2703.708740,2289.109375 2701.070068,2291.814941 2699.393555,2295.732666 
	C2695.867188,2303.973633 2689.124756,2306.936768 2680.582520,2308.322266 
	C2651.105469,2313.103271 2621.742432,2318.584229 2592.279053,2323.453369 
	C2586.431885,2324.419678 2580.316650,2323.636719 2574.353027,2324.056641 
	C2566.427002,2324.614990 2558.541992,2325.765625 2550.614746,2326.291504 
	C2539.363037,2327.037842 2528.093994,2327.607666 2516.823242,2327.953369 
	C2506.188477,2328.279785 2494.688965,2325.687256 2485.099854,2328.918457 
	C2470.605957,2333.802490 2457.451904,2336.433594 2443.646240,2328.441895 
	C2442.612549,2327.843506 2441.015381,2328.016846 2439.705322,2328.127686 
	C2415.007324,2330.220703 2390.746582,2324.779297 2366.220947,2323.791504 
	C2357.657471,2323.446289 2349.158936,2321.381836 2340.640381,2320.043457 
	C2323.600342,2317.366211 2306.553223,2314.731934 2289.540283,2311.890869 
	C2284.974609,2311.128174 2280.500732,2309.764893 2276.023926,2308.533936 
	C2269.788086,2306.819336 2265.431396,2303.182373 2264.147949,2296.504639 
	C2263.086426,2290.982422 2260.724854,2286.431152 2253.188721,2282.917725 
	C2249.151367,2275.765625 2247.223389,2270.105469 2244.312500,2265.006592 
	C2236.042969,2250.520752 2223.462646,2241.449951 2207.216797,2237.940674 
	C2192.184082,2234.693359 2177.182861,2233.221924 2164.024902,2244.016846 
	C2142.906250,2247.246582 2142.517334,2247.782227 2125.571533,2235.477783 
	C2106.982422,2221.979980 2086.240234,2212.901123 2065.118652,2204.878906 
	C2045.633911,2197.478271 2027.908447,2186.975098 2010.065186,2176.728760 
	C1983.516235,2161.483398 1957.244507,2145.665527 1931.630737,2128.905029 
	C1902.676392,2109.958740 1875.225342,2088.845947 1848.739868,2066.533447 
	C1847.213867,2065.247559 1845.879883,2063.736816 1844.397949,2062.395508 
	C1825.664917,2045.439575 1807.003296,2028.402344 1788.072021,2011.670410 
	C1785.789917,2009.653442 1782.032959,2009.305420 1777.520020,2008.124023 
	C1776.080322,2008.064087 1775.865723,2008.020386 1775.578369,2007.233276 
	C1774.769165,2005.571289 1774.100342,2004.828857 1773.284424,2004.218628 
	C1773.284424,2004.218628 1771.953613,2002.830200 1771.869629,2000.224609 
	C1772.595093,1988.104004 1770.684937,1979.954224 1762.801514,1973.260986 
	C1759.153564,1970.163940 1757.138184,1964.892456 1755.018066,1960.312622 
	C1752.489136,1954.849976 1748.255127,1952.811035 1742.684204,1952.541260 
	C1741.844238,1951.557007 1741.004395,1950.572754 1739.854980,1947.980713 
	C1739.144165,1945.577881 1738.588623,1944.911377 1737.879150,1944.373169 
	C1725.954956,1920.901123 1714.030762,1897.429199 1701.072754,1873.027710 
	C1694.653076,1857.976929 1689.219116,1843.873779 1683.901367,1829.727051 
	C1681.121582,1822.331787 1678.546387,1814.859741 1675.692383,1805.192383 
	C1675.176514,1801.982788 1674.656616,1801.117676 1673.946045,1800.367065 
	C1660.765869,1768.245850 1652.409668,1734.661133 1644.209473,1701.064453 
	C1631.868896,1650.504028 1625.099487,1599.043579 1619.903564,1545.653687 
	C1619.385132,1534.725586 1619.611450,1525.416748 1619.245850,1516.131348 
	C1614.994019,1408.152588 1628.294312,1302.404175 1659.289307,1197.355957 
	C1663.446533,1183.939575 1667.668213,1172.066162 1671.838379,1160.174805 
	C1709.115967,1053.877930 1762.463867,956.474976 1834.351929,868.087769 
M1848.679443,1921.599609 
	C1837.409058,1918.549561 1831.179321,1925.373657 1826.430786,1933.757568 
	C1825.127075,1936.059326 1825.477905,1940.706421 1827.015503,1942.933960 
	C1830.965942,1948.657471 1836.936890,1951.746094 1844.183228,1950.462891 
	C1850.087280,1949.417480 1854.828491,1943.034302 1855.515259,1935.779663 
	C1855.970581,1930.970093 1855.035522,1926.538330 1848.679443,1921.599609 
z" />
	<path fill="#DFDFDF" opacity="1.000000" stroke="none" d="
M1846.972534,852.672852 
	C1847.568115,853.528137 1847.043945,854.375366 1845.570923,855.421387 
	C1844.640503,854.530334 1845.050781,853.545227 1846.972534,852.672852 
z" />
	<path fill="#DFDFDF" opacity="1.000000" stroke="none" d="
M1850.771729,848.245850 
	C1851.385986,849.167908 1850.780396,850.121887 1849.136963,851.318787 
	C1848.198486,850.355469 1848.682617,849.260803 1850.771729,848.245850 
z" />
	<path fill="#DFDFDF" opacity="1.000000" stroke="none" d="
M1854.522095,843.858887 
	C1855.186035,844.820862 1854.544556,845.867249 1852.765869,847.195984 
	C1852.502319,846.511169 1853.031738,845.332886 1854.522095,843.858887 
z" />
	<path fill="#DADBDB" opacity="1.000000" stroke="none" d="
M2518.391113,508.285339 
	C2512.864746,517.279724 2511.391846,517.571716 2496.843018,511.956909 
	C2502.837402,509.910950 2509.851562,508.920654 2518.391113,508.285339 
z" />
	<path fill="#DADBDB" opacity="1.000000" stroke="none" d="
M2478.238770,512.248840 
	C2474.531250,516.754883 2468.436279,516.301392 2460.866943,515.642700 
	C2465.167480,514.197510 2470.963135,513.065491 2478.238770,512.248840 
z" />
	<path fill="#DADBDB" opacity="1.000000" stroke="none" d="
M1673.879150,1801.181152 
	C1674.656616,1801.117676 1675.176514,1801.982788 1675.671997,1803.706421 
	C1674.777954,1803.949341 1674.102661,1803.130981 1673.879150,1801.181152 
z" />
	<path fill="#F3F3F3" opacity="1.000000" stroke="none" d="
M2631.976807,639.970032 
	C2631.565918,635.511169 2631.154785,631.052368 2630.744873,626.603699 
	C2633.629639,625.616333 2635.447754,624.631958 2637.348633,624.431213 
	C2639.969971,624.154236 2642.705566,624.153748 2645.302734,624.581177 
	C2662.276855,627.374451 2679.227051,630.315125 2696.621094,633.281982 
	C2698.093994,637.814209 2699.187500,641.533997 2700.507812,645.171448 
	C2703.736328,654.065552 2710.457275,657.719238 2719.125244,654.913574 
	C2722.204102,653.917053 2725.297607,652.229004 2727.729248,650.105896 
	C2735.815186,643.045593 2744.540283,643.535706 2753.953369,646.674683 
	C2779.841553,655.307983 2805.449219,664.535461 2830.713379,674.999390 
	C2870.907959,691.647400 2908.337646,713.292114 2944.421387,736.990051 
	C2968.186035,752.597412 2991.760010,769.129211 3011.874268,789.758118 
	C3015.563721,793.541626 3020.203369,796.386353 3023.999512,800.080322 
	C3033.491699,809.316895 3043.221924,818.376099 3051.980957,828.280945 
	C3062.097168,839.720764 3071.270264,851.995422 3086.371094,859.783020 
	C3085.308105,883.031799 3097.021484,900.436279 3110.932129,916.408875 
	C3120.348633,927.221191 3131.388672,936.619446 3142.925049,948.852051 
	C3146.366943,957.236267 3148.192139,963.596130 3150.879639,969.567932 
	C3159.291260,988.260742 3168.998291,1006.429016 3176.427002,1025.492676 
	C3189.867676,1059.983643 3202.123779,1094.905273 3209.133301,1131.483032 
	C3210.706299,1139.692993 3210.306641,1148.842529 3215.725586,1157.481201 
	C3204.421631,1180.441406 3203.872803,1201.356323 3218.426514,1221.625488 
	C3220.693848,1224.783203 3222.198730,1228.488037 3224.040527,1233.816162 
	C3223.298828,1262.259888 3226.244629,1288.997437 3220.232910,1315.329224 
	C3219.652344,1317.873169 3220.233643,1320.659424 3219.983643,1323.305664 
	C3218.296875,1341.156250 3217.734863,1359.217041 3214.553467,1376.801880 
	C3206.725586,1420.069580 3196.247559,1462.686035 3182.051025,1504.441895 
	C3161.340088,1565.359619 3133.007568,1622.394775 3098.310059,1676.423462 
	C3075.596924,1711.790771 3049.142578,1744.417725 3021.447510,1775.769775 
	C2995.486816,1805.157471 2967.362793,1832.876465 2936.185059,1856.918213 
	C2901.427490,1883.720459 2866.627930,1910.493408 2828.782959,1933.070557 
	C2798.970947,1950.855591 2768.402588,1967.231812 2736.722900,1981.133789 
	C2688.471680,2002.307739 2638.569092,2019.169922 2586.925781,2030.142334 
	C2555.731934,2036.770142 2524.500977,2043.658325 2492.353271,2044.192383 
	C2488.399658,2044.258057 2484.472900,2045.379028 2480.514404,2045.848877 
	C2473.923340,2046.631592 2467.332764,2047.557007 2460.713867,2047.941284 
	C2434.827148,2049.443848 2408.952393,2045.734375 2383.038086,2047.640259 
	C2379.174561,2047.924316 2375.192871,2046.403442 2371.249023,2045.834595 
	C2366.647217,2045.170898 2362.028076,2044.136353 2357.414551,2044.127686 
	C2331.922852,2044.079224 2307.157959,2038.433105 2282.536865,2033.193359 
	C2254.572998,2027.241943 2227.181396,2018.613403 2199.509521,2011.267944 
	C2194.393555,2009.909790 2189.127686,2009.117676 2182.798828,2007.353149 
	C2175.302246,2001.817871 2168.841064,1997.115845 2162.589844,1992.149170 
	C2130.004639,1966.260010 2092.480469,1951.749146 2052.021240,1943.948242 
	C2051.228271,1937.271729 2046.638794,1933.671143 2041.416504,1930.343506 
	C2016.699463,1914.593872 1993.796631,1896.422729 1971.341797,1877.651001 
	C1968.830444,1875.551514 1965.681885,1874.234009 1962.968506,1872.352539 
	C1957.562256,1868.604004 1951.826538,1865.188477 1946.970337,1860.810913 
	C1905.104370,1823.071045 1871.500244,1778.526123 1842.051270,1730.828613 
	C1819.987061,1695.091797 1801.883789,1657.348755 1788.934204,1617.221069 
	C1783.012207,1598.870239 1775.953613,1580.888550 1769.576172,1562.681396 
	C1758.104004,1529.928955 1752.048096,1495.787476 1744.980469,1461.986938 
	C1739.421265,1435.399414 1736.531128,1408.247681 1732.678345,1381.314697 
	C1731.929077,1376.076416 1732.065186,1370.691650 1732.038452,1365.373291 
	C1731.961548,1350.061768 1732.135742,1334.748413 1731.985718,1319.437988 
	C1731.573730,1277.382324 1736.281616,1235.921143 1746.264404,1195.072632 
	C1752.419678,1169.886597 1757.762207,1144.443115 1765.298828,1119.671875 
	C1771.476074,1099.368652 1780.151978,1079.805664 1788.078369,1060.058350 
	C1805.769897,1015.982727 1830.562988,975.833069 1857.030884,936.651062 
	C1862.981689,927.841736 1869.164795,919.152283 1875.805664,910.859802 
	C1879.859375,905.797974 1883.845337,900.172668 1892.232300,898.104370 
	C1895.552124,903.105042 1899.103882,908.455261 1903.063843,916.350952 
	C1901.546997,923.122314 1900.087158,927.643372 1897.622681,931.526733 
	C1878.976318,960.907104 1863.498413,991.736755 1853.512695,1025.197754 
	C1851.803955,1030.923584 1848.970825,1036.307983 1847.157227,1042.009277 
	C1840.900391,1061.677124 1834.313965,1081.265869 1828.915405,1101.172974 
	C1824.409180,1117.789062 1824.577759,1135.528320 1817.265381,1151.561890 
	C1816.466797,1153.312866 1816.442627,1155.463013 1816.269043,1157.446167 
	C1813.721069,1186.557617 1806.861694,1215.246094 1807.762085,1244.707031 
	C1807.862061,1247.977905 1806.734497,1251.270264 1806.377075,1254.574341 
	C1805.520752,1262.492676 1804.805664,1270.426147 1803.993286,1278.349365 
	C1803.180908,1286.271484 1802.292725,1294.186035 1801.488770,1302.109009 
	C1800.952026,1307.399170 1799.865723,1312.729736 1800.123535,1317.988403 
	C1801.425781,1344.537964 1803.087036,1371.069824 1804.633179,1397.607300 
	C1804.671753,1398.269165 1804.824219,1398.926392 1804.947266,1399.581421 
	C1808.017944,1415.928955 1811.134399,1432.268066 1814.146484,1448.626343 
	C1815.590820,1456.470581 1815.910767,1464.650879 1818.339722,1472.161743 
	C1827.762817,1501.299927 1836.401245,1530.816284 1848.008911,1559.092896 
	C1863.168213,1596.020996 1882.485107,1630.973022 1905.255371,1663.963745 
	C1924.571777,1691.950195 1943.880127,1719.849731 1969.047852,1743.081543 
	C1971.004150,1744.887207 1972.770142,1746.898682 1974.631958,1748.807251 
	C1993.678345,1768.332153 2012.671021,1787.869385 2034.621460,1804.306152 
	C2073.136230,1833.145996 2113.292480,1859.283081 2157.491943,1878.588501 
	C2180.665527,1888.710083 2203.789307,1899.648071 2227.975586,1906.596802 
	C2273.354736,1919.633789 2319.290283,1931.119019 2367.009277,1932.159668 
	C2370.971436,1932.246094 2374.905029,1933.277832 2378.870117,1933.694580 
	C2386.791504,1934.526978 2394.736084,1935.974854 2402.653076,1935.865601 
	C2431.249023,1935.470947 2459.593262,1931.984253 2487.963135,1928.529053 
	C2532.471680,1923.108032 2575.627197,1912.065796 2617.570801,1896.801147 
	C2665.276855,1879.438965 2710.739746,1857.318970 2752.440186,1827.862671 
	C2779.672852,1808.625977 2806.777100,1789.378174 2829.459961,1764.627441 
	C2835.759521,1757.753418 2842.454834,1751.218506 2849.243896,1744.820435 
	C2866.270752,1728.774048 2880.670898,1710.538696 2894.887451,1692.034058 
	C2908.344482,1674.518188 2918.480713,1654.972778 2930.640869,1636.758667 
	C2948.583008,1609.884521 2961.192627,1580.629883 2973.889160,1551.323730 
	C2980.232910,1536.681396 2985.815674,1521.589111 2990.248779,1506.267944 
	C2996.535400,1484.541870 3002.228271,1462.576416 3006.731934,1440.419922 
	C3011.891602,1415.037598 3017.405518,1389.628662 3016.212891,1363.321777 
	C3015.765869,1353.466431 3017.922363,1343.512695 3018.515625,1333.581543 
	C3018.788818,1329.005737 3018.291016,1324.364380 3017.902588,1319.773193 
	C3017.398438,1313.819214 3015.871582,1307.848389 3016.149170,1301.949097 
	C3017.350098,1276.421265 3012.848145,1251.601440 3008.194580,1226.697632 
	C3001.820312,1192.587158 2993.950439,1158.793335 2982.337158,1126.169922 
	C2968.473145,1087.223755 2951.411133,1049.512939 2929.107422,1014.527832 
	C2906.191895,978.582031 2882.084473,943.522095 2851.508057,913.343567 
	C2830.177979,892.291138 2809.346680,870.696411 2785.699707,852.219543 
	C2771.305664,840.972900 2762.335449,825.891479 2757.853027,809.318787 
	C2751.841553,787.093506 2741.639160,767.062622 2731.352051,746.933350 
	C2719.169189,723.095276 2703.277832,701.880737 2684.708740,682.515381 
	C2668.900879,666.029602 2650.920898,652.455688 2631.976807,639.970032 
M1915.583130,1716.543213 
	C1915.655029,1714.560669 1916.045288,1712.528809 1915.747437,1710.603394 
	C1913.734741,1697.592651 1906.523071,1693.228882 1895.062256,1699.083008 
	C1889.357300,1701.997070 1883.983398,1706.401123 1879.818359,1711.288940 
	C1873.728760,1718.435425 1876.383423,1728.713135 1884.762817,1733.255859 
	C1891.752686,1737.045044 1899.105591,1736.985229 1905.218018,1731.840820 
	C1909.120361,1728.556396 1911.745117,1723.754028 1915.583130,1716.543213 
M2891.343262,722.799133 
	C2890.239746,715.192871 2884.981201,711.656311 2878.217773,710.142456 
	C2872.653809,708.897156 2867.994873,711.510132 2864.134033,715.285339 
	C2861.072510,718.278931 2860.001221,722.164124 2862.308105,725.950073 
	C2866.409912,732.681885 2873.039307,735.293640 2880.580566,735.213623 
	C2886.565674,735.150085 2890.103516,731.583252 2891.343262,722.799133 
z" />
	<path fill="#EAEAEA" opacity="1.000000" stroke="none" d="
M2183.930908,2008.064331 
	C2189.127686,2009.117676 2194.393555,2009.909790 2199.509521,2011.267944 
	C2227.181396,2018.613403 2254.572998,2027.241943 2282.536865,2033.193359 
	C2307.157959,2038.433105 2331.922852,2044.079224 2357.414551,2044.127686 
	C2362.028076,2044.136353 2366.647217,2045.170898 2371.249023,2045.834595 
	C2375.192871,2046.403442 2379.174561,2047.924316 2383.038086,2047.640259 
	C2408.952393,2045.734375 2434.827148,2049.443848 2460.713867,2047.941284 
	C2467.332764,2047.557007 2473.923340,2046.631592 2480.514404,2045.848877 
	C2484.472900,2045.379028 2488.399658,2044.258057 2492.353271,2044.192383 
	C2524.500977,2043.658325 2555.731934,2036.770142 2586.925781,2030.142334 
	C2638.569092,2019.169922 2688.471680,2002.307739 2736.722900,1981.133789 
	C2768.402588,1967.231812 2798.970947,1950.855591 2828.782959,1933.070557 
	C2866.627930,1910.493408 2901.427490,1883.720459 2936.185059,1856.918213 
	C2967.362793,1832.876465 2995.486816,1805.157471 3021.447510,1775.769775 
	C3049.142578,1744.417725 3075.596924,1711.790771 3098.310059,1676.423462 
	C3133.007568,1622.394775 3161.340088,1565.359619 3182.051025,1504.441895 
	C3196.247559,1462.686035 3206.725586,1420.069580 3214.553467,1376.801880 
	C3217.734863,1359.217041 3218.296875,1341.156250 3219.983643,1323.305664 
	C3220.233643,1320.659424 3219.652344,1317.873169 3220.232910,1315.329224 
	C3226.244629,1288.997437 3223.298828,1262.259888 3225.181641,1234.514526 
	C3229.324463,1235.980835 3232.343018,1238.589600 3235.292236,1241.274414 
	C3257.759521,1261.726074 3282.783447,1269.031128 3312.416504,1258.128906 
	C3325.829590,1253.194092 3334.716064,1244.516968 3341.778076,1232.677979 
	C3348.712158,1221.053955 3348.086914,1208.476807 3348.042480,1195.832153 
	C3347.979248,1177.816650 3339.855957,1164.126465 3325.928467,1153.215088 
	C3297.878662,1131.239624 3247.671143,1124.606445 3217.800781,1154.943604 
	C3217.348145,1155.403564 3216.676270,1155.647705 3216.106689,1155.992554 
	C3210.306641,1148.842529 3210.706299,1139.692993 3209.133301,1131.483032 
	C3202.123779,1094.905273 3189.867676,1059.983643 3176.427002,1025.492676 
	C3168.998291,1006.429016 3159.291260,988.260742 3150.879639,969.567932 
	C3148.192139,963.596130 3146.366943,957.236267 3144.048584,949.562500 
	C3162.385010,956.337646 3182.121826,960.862305 3201.827393,962.764465 
	C3226.663330,965.161865 3250.868408,960.204468 3271.775635,944.942993 
	C3274.911621,942.653870 3277.571533,939.712708 3281.211426,936.376953 
	C3284.234863,938.628906 3286.863770,940.330688 3289.166748,942.395874 
	C3290.624268,943.703064 3291.873779,945.414917 3292.743652,947.178589 
	C3304.213379,970.437500 3318.877930,991.905273 3329.059326,1015.990112 
	C3340.730713,1043.599609 3352.428955,1071.096924 3362.034668,1099.536865 
	C3378.482666,1148.234741 3390.638184,1197.948364 3398.969971,1248.597046 
	C3401.552734,1264.298706 3401.868164,1280.365967 3404.264404,1296.106934 
	C3411.733643,1345.171753 3407.561279,1394.508911 3407.448975,1443.682129 
	C3407.393311,1468.069580 3402.193604,1492.488159 3398.732666,1516.809082 
	C3396.580078,1531.937500 3393.808105,1547.017822 3390.450195,1561.925171 
	C3385.773926,1582.686646 3381.182861,1603.539673 3374.962158,1623.866089 
	C3362.493164,1664.610474 3348.567627,1704.797363 3330.545654,1743.610962 
	C3311.149170,1785.385742 3288.665771,1825.331421 3263.639648,1863.829224 
	C3250.982910,1883.298950 3236.021973,1901.267456 3222.173096,1919.966797 
	C3197.915771,1952.719482 3169.516846,1981.722290 3140.098633,2009.711060 
	C3123.259766,2025.731323 3105.335693,2040.607544 3088.036133,2056.150391 
	C3085.162109,2058.732666 3082.987305,2062.093750 3078.676758,2066.416992 
	C3073.915039,2067.655273 3070.965332,2067.571289 3067.091064,2066.351074 
	C3063.942139,2063.810791 3061.893066,2061.761963 3059.466309,2061.102783 
	C3035.126221,2054.489502 3010.551758,2056.099854 2986.509521,2061.666992 
	C2952.153564,2069.622314 2921.148438,2084.174072 2897.728027,2112.073486 
	C2884.492432,2127.840088 2874.504639,2144.517090 2875.865234,2166.043945 
	C2876.159180,2170.693359 2875.996826,2175.371094 2876.014648,2181.011230 
	C2875.984619,2181.986572 2875.893799,2183.936279 2875.893799,2183.936035 
	C2859.589111,2189.606689 2843.242188,2195.159180 2826.988281,2200.970703 
	C2786.840576,2215.325195 2745.641357,2225.896973 2703.831543,2233.808105 
	C2679.770508,2238.361084 2655.260742,2240.499023 2631.004883,2244.075928 
	C2579.401611,2251.686035 2527.498535,2246.422607 2473.815430,2247.043213 
	C2471.873291,2246.095215 2471.785156,2244.189697 2471.262695,2242.887695 
	C2465.565674,2227.077881 2453.655518,2222.186523 2439.866211,2220.391602 
	C2434.648438,2219.712646 2429.291992,2220.121094 2424.000244,2219.982910 
	C2410.504883,2219.629883 2399.289795,2223.863281 2390.953613,2235.903320 
	C2390.012207,2235.961914 2388.131592,2236.110840 2388.131592,2236.110840 
	C2372.575439,2232.513916 2357.041748,2228.815674 2341.458740,2225.338867 
	C2287.995361,2213.409912 2236.457764,2195.779541 2186.534424,2173.311523 
	C2180.469238,2170.581787 2174.212158,2168.280518 2168.112793,2165.623779 
	C2163.498047,2163.613770 2160.713623,2160.096436 2161.636230,2153.403320 
	C2183.200928,2148.396240 2194.114746,2133.248535 2204.696533,2118.058105 
	C2210.054199,2110.367188 2212.395264,2101.390137 2212.052490,2091.785889 
	C2211.770020,2083.874756 2211.859375,2075.942383 2212.028809,2068.024902 
	C2212.203125,2059.899658 2210.630371,2052.185059 2206.518555,2045.219849 
	C2199.150879,2032.739258 2191.476807,2020.439575 2183.930908,2008.064331 
z" />
	<path fill="#CECECE" opacity="1.000000" stroke="none" d="
M2876.225098,2185.295654 
	C2875.893799,2183.936279 2875.984619,2181.986572 2877.511230,2180.915039 
	C2884.029297,2178.219482 2889.303711,2177.170410 2893.963135,2174.873779 
	C2916.437256,2163.796875 2939.702148,2154.557373 2961.452637,2141.707520 
	C2993.314209,2122.884033 3024.497803,2103.123291 3054.770264,2081.914795 
	C3059.991943,2078.256592 3063.640625,2072.353516 3068.015869,2067.487549 
	C3070.965332,2067.571289 3073.915039,2067.655273 3078.335205,2067.726807 
	C3090.345215,2073.329834 3100.411377,2079.261719 3109.678223,2087.250244 
	C3139.652588,2113.089355 3148.157471,2168.992188 3115.476562,2206.338379 
	C3096.114258,2228.464844 3073.356934,2244.649170 3043.793701,2250.164062 
	C3033.135010,2252.152100 3022.733643,2252.690186 3012.196533,2250.052002 
	C2987.682861,2243.915039 2963.075684,2238.128906 2938.677734,2231.563477 
	C2929.099121,2228.985840 2919.978516,2224.706055 2909.310059,2220.630859 
	C2892.490479,2213.635742 2883.037598,2201.542480 2876.225098,2185.295654 
z" />
	<path fill="#CECECE" opacity="1.000000" stroke="none" d="
M2707.887451,2289.555176 
	C2713.008789,2272.872559 2723.884521,2264.004639 2738.947510,2260.281738 
	C2766.513184,2253.469238 2793.925537,2253.250977 2822.411621,2263.741211 
	C2824.281006,2264.617188 2824.546875,2265.254639 2824.980713,2265.743896 
	C2835.824951,2277.980225 2837.464844,2291.026367 2830.738525,2306.235596 
	C2824.042969,2321.374268 2811.884766,2328.429932 2797.110840,2331.301514 
	C2778.795898,2334.861084 2760.067383,2334.010498 2741.747803,2331.118164 
	C2719.773926,2327.648682 2709.860352,2315.109863 2707.887451,2289.555176 
z" />
	<path fill="#CECECE" opacity="1.000000" stroke="none" d="
M2163.431152,2245.391113 
	C2177.182861,2233.221924 2192.184082,2234.693359 2207.216797,2237.940674 
	C2223.462646,2241.449951 2236.042969,2250.520752 2244.312500,2265.006592 
	C2247.223389,2270.105469 2249.151367,2275.765625 2251.806885,2282.567383 
	C2252.726562,2294.752441 2249.541992,2303.723145 2238.954346,2308.109375 
	C2234.917969,2309.781738 2229.954346,2310.851318 2225.736084,2310.176514 
	C2203.492920,2306.617188 2184.988525,2295.666992 2169.708496,2279.394287 
	C2160.993652,2270.113037 2157.344971,2259.277832 2163.431152,2245.391113 
z" />
	<path fill="#CECECE" opacity="1.000000" stroke="none" d="
M2651.853027,2383.962402 
	C2647.679688,2399.699219 2642.886230,2404.215820 2632.821777,2403.657959 
	C2624.763184,2403.211182 2619.226562,2398.574707 2615.518555,2392.124756 
	C2614.225342,2389.874756 2614.402100,2384.951416 2616.019287,2383.208252 
	C2620.399902,2378.486328 2625.485107,2374.007568 2631.130371,2371.016846 
	C2634.789062,2369.078613 2640.188965,2368.801025 2644.329834,2369.788086 
	C2650.212402,2371.190186 2651.531250,2376.831543 2651.853027,2383.962402 
z" />

	<path fill="#DADBDB" opacity="1.000000" stroke="none" d="
M1742.989014,1953.943970 
	C1748.255127,1952.811035 1752.489136,1954.849976 1755.018066,1960.312622 
	C1757.138184,1964.892456 1759.153564,1970.163940 1762.801514,1973.260986 
	C1770.684937,1979.954224 1772.595093,1988.104004 1771.685913,1999.280762 
	C1762.155518,1985.743896 1752.724731,1970.545288 1742.989014,1953.943970 
z" />
	<path fill="#DADBDB" opacity="1.000000" stroke="none" d="
M1737.890991,1945.088013 
	C1738.588623,1944.911377 1739.144165,1945.577881 1739.777344,1946.983643 
	C1738.991821,1947.367676 1738.289673,1946.770508 1737.890991,1945.088013 
z" />
	<path fill="#DADBDB" opacity="1.000000" stroke="none" d="
M1773.355225,2005.034180 
	C1774.100342,2004.828857 1774.769165,2005.571289 1775.604492,2007.127563 
	C1774.757935,2007.575073 1773.927124,2006.922119 1773.355225,2005.034180 
z" />
	<path fill="#F7F7F7" opacity="1.000000" stroke="none" d="
M2630.707275,639.723389 
	C2650.920898,652.455688 2668.900879,666.029602 2684.708740,682.515381 
	C2703.277832,701.880737 2719.169189,723.095276 2731.352051,746.933350 
	C2741.639160,767.062622 2751.841553,787.093506 2757.853027,809.318787 
	C2762.335449,825.891479 2771.305664,840.972900 2785.699707,852.219543 
	C2809.346680,870.696411 2830.177979,892.291138 2851.508057,913.343567 
	C2882.084473,943.522095 2906.191895,978.582031 2929.107422,1014.527832 
	C2951.411133,1049.512939 2968.473145,1087.223755 2982.337158,1126.169922 
	C2993.950439,1158.793335 3001.820312,1192.587158 3008.194580,1226.697632 
	C3012.848145,1251.601440 3017.350098,1276.421265 3016.149170,1301.949097 
	C3015.871582,1307.848389 3017.398438,1313.819214 3017.902588,1319.773193 
	C3018.291016,1324.364380 3018.788818,1329.005737 3018.515625,1333.581543 
	C3017.922363,1343.512695 3015.765869,1353.466431 3016.212891,1363.321777 
	C3017.405518,1389.628662 3011.891602,1415.037598 3006.731934,1440.419922 
	C3002.228271,1462.576416 2996.535400,1484.541870 2990.248779,1506.267944 
	C2985.815674,1521.589111 2980.232910,1536.681396 2973.889160,1551.323730 
	C2961.192627,1580.629883 2948.583008,1609.884521 2930.640869,1636.758667 
	C2918.480713,1654.972778 2908.344482,1674.518188 2894.887451,1692.034058 
	C2880.670898,1710.538696 2866.270752,1728.774048 2849.243896,1744.820435 
	C2842.454834,1751.218506 2835.759521,1757.753418 2829.459961,1764.627441 
	C2806.777100,1789.378174 2779.672852,1808.625977 2752.440186,1827.862671 
	C2710.739746,1857.318970 2665.276855,1879.438965 2617.570801,1896.801147 
	C2575.627197,1912.065796 2532.471680,1923.108032 2487.963135,1928.529053 
	C2459.593262,1931.984253 2431.249023,1935.470947 2402.653076,1935.865601 
	C2394.736084,1935.974854 2386.791504,1934.526978 2378.870117,1933.694580 
	C2374.905029,1933.277832 2370.971436,1932.246094 2367.009277,1932.159668 
	C2319.290283,1931.119019 2273.354736,1919.633789 2227.975586,1906.596802 
	C2203.789307,1899.648071 2180.665527,1888.710083 2157.491943,1878.588501 
	C2113.292480,1859.283081 2073.136230,1833.145996 2034.621460,1804.306152 
	C2012.671021,1787.869385 1993.678345,1768.332153 1974.631958,1748.807251 
	C1972.770142,1746.898682 1971.004150,1744.887207 1969.047852,1743.081543 
	C1943.880127,1719.849731 1924.571777,1691.950195 1905.255371,1663.963745 
	C1882.485107,1630.973022 1863.168213,1596.020996 1848.008911,1559.092896 
	C1836.401245,1530.816284 1827.762817,1501.299927 1818.339722,1472.161743 
	C1815.910767,1464.650879 1815.590820,1456.470581 1814.146484,1448.626343 
	C1811.134399,1432.268066 1808.017944,1415.928955 1804.947266,1399.581421 
	C1804.824219,1398.926392 1804.671753,1398.269165 1804.633179,1397.607300 
	C1803.087036,1371.069824 1801.425781,1344.537964 1800.123535,1317.988403 
	C1799.865723,1312.729736 1800.952026,1307.399170 1801.488770,1302.109009 
	C1802.292725,1294.186035 1803.180908,1286.271484 1803.993286,1278.349365 
	C1804.805664,1270.426147 1805.520752,1262.492676 1806.377075,1254.574341 
	C1806.734497,1251.270264 1807.862061,1247.977905 1807.762085,1244.707031 
	C1806.861694,1215.246094 1813.721069,1186.557617 1816.269043,1157.446167 
	C1816.442627,1155.463013 1816.466797,1153.312866 1817.265381,1151.561890 
	C1824.577759,1135.528320 1824.409180,1117.789062 1828.915405,1101.172974 
	C1834.313965,1081.265869 1840.900391,1061.677124 1847.157227,1042.009277 
	C1848.970825,1036.307983 1851.803955,1030.923584 1853.512695,1025.197754 
	C1863.498413,991.736755 1878.976318,960.907104 1897.622681,931.526733 
	C1900.087158,927.643372 1901.546997,923.122314 1903.735107,917.509277 
	C1909.982178,915.863159 1916.084717,916.259705 1921.924438,915.203674 
	C1932.745117,913.246826 1937.281738,904.869446 1932.040161,894.629395 
	C1927.918335,886.576904 1929.566040,881.095947 1934.871582,874.849609 
	C1947.348022,860.160645 1959.779053,845.407654 1971.584229,830.181091 
	C1982.639526,815.921509 1994.761597,802.730957 2007.727417,790.247070 
	C2051.042725,748.541870 2098.050049,711.620300 2149.884033,681.033752 
	C2193.029297,655.574402 2237.767334,633.583923 2285.812256,618.683594 
	C2322.172363,607.407166 2359.177979,600.038757 2396.992676,595.401794 
	C2416.940674,592.955627 2436.749512,591.449463 2456.680664,592.138855 
	C2498.123779,593.572205 2538.775146,599.679138 2577.719727,614.849548 
	C2583.826416,617.228394 2590.445312,618.293274 2599.172363,621.107666 
	C2605.147705,627.170227 2610.433105,627.930237 2615.990234,628.006470 
	C2620.447998,631.858765 2622.768066,638.217346 2630.707275,639.723389 
M2684.600098,784.774841 
	C2685.723389,778.951355 2687.058350,773.159302 2687.930908,767.298462 
	C2690.755615,748.328308 2682.008545,735.580139 2665.822754,726.999756 
	C2662.902100,725.451538 2659.975098,723.802002 2656.865967,722.741028 
	C2629.862549,713.525879 2602.183350,713.415466 2574.672119,718.844360 
	C2557.770996,722.179626 2541.906738,729.300903 2527.800293,736.994141 
	C2527.239990,729.098755 2522.568115,725.336853 2515.165283,723.823547 
	C2496.259766,719.958862 2477.309082,716.232117 2457.952393,716.074097 
	C2425.956543,715.812805 2393.957031,715.951599 2361.959717,716.049133 
	C2355.979248,716.067322 2349.941162,716.266418 2344.032471,717.105164 
	C2329.557129,719.159912 2315.180176,721.921021 2300.694092,723.883972 
	C2272.177979,727.747986 2244.475586,735.222290 2217.421387,744.478638 
	C2173.246338,759.592834 2130.133789,777.511780 2090.651855,802.866943 
	C2069.936035,816.170776 2049.464600,829.972900 2029.802979,844.772339 
	C2003.132324,864.847656 1980.149170,889.115723 1957.151611,913.170227 
	C1944.781006,926.109253 1933.980713,940.550476 1922.484375,954.324341 
	C1909.654053,969.696594 1898.735229,986.400452 1888.336060,1003.462036 
	C1873.436035,1027.907715 1857.738525,1051.957886 1848.383911,1079.297363 
	C1843.645874,1093.144531 1839.482178,1107.187744 1835.008301,1121.125977 
	C1830.085815,1136.462402 1827.176514,1152.027832 1827.896118,1168.279053 
	C1828.426514,1180.254639 1828.082642,1192.273560 1827.983276,1204.271851 
	C1827.760498,1231.168823 1833.500977,1257.159424 1840.385254,1282.885742 
	C1849.094727,1315.433105 1865.638550,1344.383789 1883.165894,1372.805908 
	C1887.358154,1379.603882 1890.669922,1387.162720 1895.848511,1393.095703 
	C1915.223389,1415.292969 1936.670410,1435.604370 1963.001953,1449.098267 
	C1990.782959,1463.334961 2017.927612,1479.181152 2047.963501,1488.693237 
	C2056.485107,1491.391724 2063.473633,1496.220703 2068.114990,1504.145630 
	C2070.131592,1507.588745 2072.501709,1510.832764 2074.819580,1514.090210 
	C2095.309326,1542.890015 2117.028320,1570.163086 2145.693115,1591.968994 
	C2189.956787,1625.641357 2238.379395,1649.325317 2292.678467,1660.966431 
	C2302.403076,1663.051147 2312.402344,1663.818359 2322.205811,1665.577637 
	C2347.375732,1670.094482 2372.699463,1668.213135 2397.927246,1667.070312 
	C2409.786377,1666.533203 2421.802246,1664.409058 2433.264893,1661.252808 
	C2455.090332,1655.243042 2476.827881,1648.687134 2498.096924,1640.967285 
	C2511.127930,1636.237305 2523.475830,1629.381714 2535.651855,1622.618286 
	C2544.942627,1617.457275 2553.500000,1610.969604 2562.351074,1605.023560 
	C2591.242676,1585.614136 2618.260742,1564.222168 2637.163574,1534.244751 
	C2638.224854,1532.562012 2639.468750,1530.966675 2640.801025,1529.486450 
	C2664.918701,1502.690186 2678.684326,1469.846680 2691.671631,1437.203857 
	C2703.979248,1406.269165 2709.056152,1372.976685 2711.675293,1339.736450 
	C2713.987549,1310.392578 2711.121826,1281.164185 2703.985107,1252.579590 
	C2699.633545,1235.149414 2694.984863,1217.661011 2688.618164,1200.902222 
	C2681.783203,1182.911011 2684.825684,1167.695801 2694.510986,1151.662720 
	C2709.629150,1126.636597 2725.059570,1101.470093 2729.174072,1071.548584 
	C2729.440186,1069.613892 2730.551758,1067.806885 2731.167480,1065.907227 
	C2737.528320,1046.275391 2744.383545,1026.782715 2749.998047,1006.939148 
	C2752.853027,996.848877 2755.248291,986.421021 2753.071045,975.450684 
	C2752.081543,970.464233 2753.429199,964.938965 2754.109619,959.709290 
	C2756.938965,937.964661 2760.384277,916.388245 2760.362793,894.249268 
	C2760.345215,876.083496 2756.737549,858.517700 2754.832520,840.700317 
	C2753.786865,830.920715 2750.965576,820.251465 2742.899902,813.769470 
	C2725.721191,799.964111 2707.772949,786.987061 2684.600098,784.774841 
M2419.109131,685.804443 
	C2426.448242,680.700562 2428.439209,673.459961 2427.775879,664.950073 
	C2427.148682,656.897949 2422.263428,651.684753 2416.378906,647.174316 
	C2413.781982,645.183899 2410.850830,643.458252 2407.820557,642.232117 
	C2385.300049,633.120483 2362.680908,633.017578 2340.186035,642.254333 
	C2336.582275,643.734070 2333.073730,645.939941 2330.170166,648.535767 
	C2322.306396,655.566223 2322.201904,667.663269 2329.710205,675.058838 
	C2331.572266,676.893066 2333.762451,678.492493 2336.032471,679.799438 
	C2361.616943,694.531799 2388.523438,695.857605 2419.109131,685.804443 
z" />
	<path fill="#DADBDB" opacity="1.000000" stroke="none" d="
M2182.798828,2007.353149 
	C2191.476807,2020.439575 2199.150879,2032.739258 2206.518555,2045.219849 
	C2210.630371,2052.185059 2212.203125,2059.899658 2212.028809,2068.024902 
	C2211.859375,2075.942383 2211.770020,2083.874756 2212.052490,2091.785889 
	C2212.395264,2101.390137 2210.054199,2110.367188 2204.696533,2118.058105 
	C2194.114746,2133.248535 2183.200928,2148.396240 2161.529541,2151.956055 
	C2156.138428,2152.659180 2152.225342,2153.632812 2148.279297,2153.792725 
	C2143.777832,2153.975586 2139.247314,2153.433350 2132.997559,2151.328125 
	C2127.863770,2146.488281 2124.802246,2142.964844 2121.001709,2140.660400 
	C2102.960449,2129.721436 2084.386475,2119.633301 2066.621826,2108.272705 
	C2036.588135,2089.065674 2008.616333,2067.046143 1981.557007,2043.840210 
	C1977.713501,2040.544067 1972.630615,2038.693115 1968.121460,2036.173218 
	C1967.288086,2034.021851 1966.454712,2031.870483 1964.826538,2028.867676 
	C1963.854370,2012.785767 1963.614380,1997.607666 1968.156616,1982.741455 
	C1973.638672,1964.799072 1985.191162,1953.587158 2003.093140,1948.084839 
	C2017.995361,1943.504517 2033.176270,1944.089355 2050.202637,1943.982178 
	C2092.480469,1951.749146 2130.004639,1966.260010 2162.589844,1992.149170 
	C2168.841064,1997.115845 2175.302246,2001.817871 2182.798828,2007.353149 
z" />
	<path fill="#F3F3F3" opacity="1.000000" stroke="none" d="
M2615.500488,626.708130 
	C2610.433105,627.930237 2605.147705,627.170227 2600.755615,621.141968 
	C2605.529297,620.345581 2611.599854,619.163208 2615.500488,626.708130 
z" />
	<path fill="#CECECE" opacity="1.000000" stroke="none" d="
M1968.196777,2037.648926 
	C1972.630615,2038.693115 1977.713501,2040.544067 1981.557007,2043.840210 
	C2008.616333,2067.046143 2036.588135,2089.065674 2066.621826,2108.272705 
	C2084.386475,2119.633301 2102.960449,2129.721436 2121.001709,2140.660400 
	C2124.802246,2142.964844 2127.863770,2146.488281 2131.708496,2150.754639 
	C2111.117188,2153.634277 2091.654297,2147.707520 2072.679443,2139.539551 
	C2044.604980,2127.455078 2017.712769,2113.353516 1996.722778,2090.482422 
	C1983.207397,2075.755615 1972.928467,2058.916260 1968.196777,2037.648926 
z" />
	<path fill="#CECECE" opacity="1.000000" stroke="none" d="
M2471.785156,2244.189697 
	C2471.785156,2244.189697 2471.873291,2246.095215 2471.941406,2247.046387 
	C2469.271240,2254.687012 2467.204102,2261.759521 2463.652100,2267.984863 
	C2456.605713,2280.335938 2443.659180,2286.160156 2429.994629,2283.241699 
	C2418.816406,2280.854492 2409.192383,2275.227295 2401.015625,2267.046875 
	C2393.244385,2259.272461 2387.779785,2250.616699 2388.126465,2237.644043 
	C2388.131592,2236.110840 2390.012207,2235.961914 2392.608643,2236.063477 
	C2420.512939,2240.927490 2445.878418,2245.140869 2471.785156,2244.189697 
z" />
	<path fill="#CECECE" opacity="1.000000" stroke="none" d="
M1849.960205,1922.359375 
	C1855.035522,1926.538330 1855.970581,1930.970093 1855.515259,1935.779663 
	C1854.828491,1943.034302 1850.087280,1949.417480 1844.183228,1950.462891 
	C1836.936890,1951.746094 1830.965942,1948.657471 1827.015503,1942.933960 
	C1825.477905,1940.706421 1825.127075,1936.059326 1826.430786,1933.757568 
	C1831.179321,1925.373657 1837.409058,1918.549561 1849.960205,1922.359375 
z" />

	<path fill="#DADBDB" opacity="1.000000" stroke="none" d="
M3215.725586,1157.481201 
	C3216.676270,1155.647705 3217.348145,1155.403564 3217.800781,1154.943604 
	C3247.671143,1124.606445 3297.878662,1131.239624 3325.928467,1153.215088 
	C3339.855957,1164.126465 3347.979248,1177.816650 3348.042480,1195.832153 
	C3348.086914,1208.476807 3348.712158,1221.053955 3341.778076,1232.677979 
	C3334.716064,1244.516968 3325.829590,1253.194092 3312.416504,1258.128906 
	C3282.783447,1269.031128 3257.759521,1261.726074 3235.292236,1241.274414 
	C3232.343018,1238.589600 3229.324463,1235.980835 3225.197266,1232.638184 
	C3222.198730,1228.488037 3220.693848,1224.783203 3218.426514,1221.625488 
	C3203.872803,1201.356323 3204.421631,1180.441406 3215.725586,1157.481201 
z" />
	<path fill="#DFDFDF" opacity="1.000000" stroke="none" d="
M1915.262939,1718.087646 
	C1911.745117,1723.754028 1909.120361,1728.556396 1905.218018,1731.840820 
	C1899.105591,1736.985229 1891.752686,1737.045044 1884.762817,1733.255859 
	C1876.383423,1728.713135 1873.728760,1718.435425 1879.818359,1711.288940 
	C1883.983398,1706.401123 1889.357300,1701.997070 1895.062256,1699.083008 
	C1906.523071,1693.228882 1913.734741,1697.592651 1915.747437,1710.603394 
	C1916.045288,1712.528809 1915.655029,1714.560669 1915.262939,1718.087646 
z" />
	<path fill="#ECECEC" opacity="1.000000" stroke="none" d="
M2891.306885,724.257812 
	C2890.103516,731.583252 2886.565674,735.150085 2880.580566,735.213623 
	C2873.039307,735.293640 2866.409912,732.681885 2862.308105,725.950073 
	C2860.001221,722.164124 2861.072510,718.278931 2864.134033,715.285339 
	C2867.994873,711.510132 2872.653809,708.897156 2878.217773,710.142456 
	C2884.981201,711.656311 2890.239746,715.192871 2891.306885,724.257812 
z" />
	<path fill="#DADBDB" opacity="1.000000" stroke="none" d="
M3067.091064,2066.351074 
	C3063.640625,2072.353516 3059.991943,2078.256592 3054.770264,2081.914795 
	C3024.497803,2103.123291 2993.314209,2122.884033 2961.452637,2141.707520 
	C2939.702148,2154.557373 2916.437256,2163.796875 2893.963135,2174.873779 
	C2889.303711,2177.170410 2884.029297,2178.219482 2877.541504,2179.939453 
	C2875.996826,2175.371094 2876.159180,2170.693359 2875.865234,2166.043945 
	C2874.504639,2144.517090 2884.492432,2127.840088 2897.728027,2112.073486 
	C2921.148438,2084.174072 2952.153564,2069.622314 2986.509521,2061.666992 
	C3010.551758,2056.099854 3035.126221,2054.489502 3059.466309,2061.102783 
	C3061.893066,2061.761963 3063.942139,2063.810791 3067.091064,2066.351074 
z" />
	<path fill="#DADBDB" opacity="1.000000" stroke="none" d="
M2471.262695,2242.887695 
	C2445.878418,2245.140869 2420.512939,2240.927490 2393.550293,2236.004883 
	C2399.289795,2223.863281 2410.504883,2219.629883 2424.000244,2219.982910 
	C2429.291992,2220.121094 2434.648438,2219.712646 2439.866211,2220.391602 
	C2453.655518,2222.186523 2465.565674,2227.077881 2471.262695,2242.887695 
z" />
	<path fill="#FCFCFC" opacity="1.000000" stroke="none" d="
M2683.947754,787.968811 
	C2707.772949,786.987061 2725.721191,799.964111 2742.899902,813.769470 
	C2750.965576,820.251465 2753.786865,830.920715 2754.832520,840.700317 
	C2756.737549,858.517700 2760.345215,876.083496 2760.362793,894.249268 
	C2760.384277,916.388245 2756.938965,937.964661 2754.109619,959.709290 
	C2753.429199,964.938965 2752.081543,970.464233 2753.071045,975.450684 
	C2755.248291,986.421021 2752.853027,996.848877 2749.998047,1006.939148 
	C2744.383545,1026.782715 2737.528320,1046.275391 2731.167480,1065.907227 
	C2730.551758,1067.806885 2729.440186,1069.613892 2729.174072,1071.548584 
	C2725.059570,1101.470093 2709.629150,1126.636597 2694.510986,1151.662720 
	C2684.825684,1167.695801 2681.783203,1182.911011 2688.618164,1200.902222 
	C2694.984863,1217.661011 2699.633545,1235.149414 2703.985107,1252.579590 
	C2711.121826,1281.164185 2713.987549,1310.392578 2711.675293,1339.736450 
	C2709.056152,1372.976685 2703.979248,1406.269165 2691.671631,1437.203857 
	C2678.684326,1469.846680 2664.918701,1502.690186 2640.801025,1529.486450 
	C2639.468750,1530.966675 2638.224854,1532.562012 2637.163574,1534.244751 
	C2618.260742,1564.222168 2591.242676,1585.614136 2562.351074,1605.023560 
	C2553.500000,1610.969604 2544.942627,1617.457275 2535.651855,1622.618286 
	C2523.475830,1629.381714 2511.127930,1636.237305 2498.096924,1640.967285 
	C2476.827881,1648.687134 2455.090332,1655.243042 2433.264893,1661.252808 
	C2421.802246,1664.409058 2409.786377,1666.533203 2397.927246,1667.070312 
	C2372.699463,1668.213135 2347.375732,1670.094482 2322.205811,1665.577637 
	C2312.402344,1663.818359 2302.403076,1663.051147 2292.678467,1660.966431 
	C2238.379395,1649.325317 2189.956787,1625.641357 2145.693115,1591.968994 
	C2117.028320,1570.163086 2095.309326,1542.890015 2074.819580,1514.090210 
	C2072.501709,1510.832764 2070.131592,1507.588745 2068.114990,1504.145630 
	C2063.473633,1496.220703 2056.485107,1491.391724 2047.963501,1488.693237 
	C2017.927612,1479.181152 1990.782959,1463.334961 1963.001953,1449.098267 
	C1936.670410,1435.604370 1915.223389,1415.292969 1895.848511,1393.095703 
	C1890.669922,1387.162720 1887.358154,1379.603882 1883.165894,1372.805908 
	C1865.638550,1344.383789 1849.094727,1315.433105 1840.385254,1282.885742 
	C1833.500977,1257.159424 1827.760498,1231.168823 1827.983276,1204.271851 
	C1828.082642,1192.273560 1828.426514,1180.254639 1827.896118,1168.279053 
	C1827.176514,1152.027832 1830.085815,1136.462402 1835.008301,1121.125977 
	C1839.482178,1107.187744 1843.645874,1093.144531 1848.383911,1079.297363 
	C1857.738525,1051.957886 1873.436035,1027.907715 1888.336060,1003.462036 
	C1898.735229,986.400452 1909.654053,969.696594 1922.484375,954.324341 
	C1933.980713,940.550476 1944.781006,926.109253 1957.151611,913.170227 
	C1980.149170,889.115723 2003.132324,864.847656 2029.802979,844.772339 
	C2049.464600,829.972900 2069.936035,816.170776 2090.651855,802.866943 
	C2130.133789,777.511780 2173.246338,759.592834 2217.421387,744.478638 
	C2244.475586,735.222290 2272.177979,727.747986 2300.694092,723.883972 
	C2315.180176,721.921021 2329.557129,719.159912 2344.032471,717.105164 
	C2349.941162,716.266418 2355.979248,716.067322 2361.959717,716.049133 
	C2393.957031,715.951599 2425.956543,715.812805 2457.952393,716.074097 
	C2477.309082,716.232117 2496.259766,719.958862 2515.165283,723.823547 
	C2522.568115,725.336853 2527.239990,729.098755 2527.258789,739.828125 
	C2517.059326,763.930664 2518.062988,771.291016 2533.166016,787.224548 
	C2538.640869,793.000366 2544.285889,798.630493 2550.085449,804.079773 
	C2561.133057,814.459900 2573.937988,820.613953 2589.509277,820.113037 
	C2597.462646,819.857117 2605.434082,820.211243 2613.392334,820.041870 
	C2636.137207,819.557861 2656.103760,811.836792 2673.235107,796.807617 
	C2676.713623,793.755981 2680.372070,790.909668 2683.947754,787.968811 
M2221.096436,780.903259 
	C2218.869629,783.084473 2215.193604,785.044556 2214.817383,787.508240 
	C2214.430664,790.042786 2216.576416,793.925415 2218.814697,795.719666 
	C2225.626465,801.179810 2233.677734,801.247314 2241.286133,797.770020 
	C2243.727295,796.654358 2246.241455,792.803955 2246.290039,790.160400 
	C2246.337891,787.512939 2243.839844,783.119812 2241.591797,782.465271 
	C2236.029053,780.845459 2229.970947,780.925598 2221.096436,780.903259 
M1968.244751,1225.529175 
	C1969.755737,1226.826660 1971.062622,1228.629272 1972.812134,1229.336060 
	C1981.166992,1232.711548 1987.625488,1231.091431 1990.042236,1225.347290 
	C1992.629761,1219.197266 1987.631836,1211.333374 1979.331909,1209.040283 
	C1974.712646,1207.763916 1969.788940,1207.547119 1966.463013,1211.760376 
	C1963.711304,1215.246216 1964.673462,1219.301392 1968.244751,1225.529175 
z" />
	<path fill="#EAEAEA" opacity="1.000000" stroke="none" d="
M2684.273926,786.371826 
	C2680.372070,790.909668 2676.713623,793.755981 2673.235107,796.807617 
	C2656.103760,811.836792 2636.137207,819.557861 2613.392334,820.041870 
	C2605.434082,820.211243 2597.462646,819.857117 2589.509277,820.113037 
	C2573.937988,820.613953 2561.133057,814.459900 2550.085449,804.079773 
	C2544.285889,798.630493 2538.640869,793.000366 2533.166016,787.224548 
	C2518.062988,771.291016 2517.059326,763.930664 2527.372559,741.350952 
	C2541.906738,729.300903 2557.770996,722.179626 2574.672119,718.844360 
	C2602.183350,713.415466 2629.862549,713.525879 2656.865967,722.741028 
	C2659.975098,723.802002 2662.902100,725.451538 2665.822754,726.999756 
	C2682.008545,735.580139 2690.755615,748.328308 2687.930908,767.298462 
	C2687.058350,773.159302 2685.723389,778.951355 2684.273926,786.371826 
z" />
	<path fill="#EAEAEA" opacity="1.000000" stroke="none" d="
M2417.726807,686.668213 
	C2388.523438,695.857605 2361.616943,694.531799 2336.032471,679.799438 
	C2333.762451,678.492493 2331.572266,676.893066 2329.710205,675.058838 
	C2322.201904,667.663269 2322.306396,655.566223 2330.170166,648.535767 
	C2333.073730,645.939941 2336.582275,643.734070 2340.186035,642.254333 
	C2362.680908,633.017578 2385.300049,633.120483 2407.820557,642.232117 
	C2410.850830,643.458252 2413.781982,645.183899 2416.378906,647.174316 
	C2422.263428,651.684753 2427.148682,656.897949 2427.775879,664.950073 
	C2428.439209,673.459961 2426.448242,680.700562 2417.726807,686.668213 
z" />
	<path fill="#EAEAEA" opacity="1.000000" stroke="none" d="
M2222.604248,780.612915 
	C2229.970947,780.925598 2236.029053,780.845459 2241.591797,782.465271 
	C2243.839844,783.119812 2246.337891,787.512939 2246.290039,790.160400 
	C2246.241455,792.803955 2243.727295,796.654358 2241.286133,797.770020 
	C2233.677734,801.247314 2225.626465,801.179810 2218.814697,795.719666 
	C2216.576416,793.925415 2214.430664,790.042786 2214.817383,787.508240 
	C2215.193604,785.044556 2218.869629,783.084473 2222.604248,780.612915 
z" />
	<path fill="#EAEAEA" opacity="1.000000" stroke="none" d="
M1967.375488,1224.302368 
	C1964.673462,1219.301392 1963.711304,1215.246216 1966.463013,1211.760376 
	C1969.788940,1207.547119 1974.712646,1207.763916 1979.331909,1209.040283 
	C1987.631836,1211.333374 1992.629761,1219.197266 1990.042236,1225.347290 
	C1987.625488,1231.091431 1981.166992,1232.711548 1972.812134,1229.336060 
	C1971.062622,1228.629272 1969.755737,1226.826660 1967.375488,1224.302368 
z" />
</svg>