<svg version="1.1" id="Layer_1" xmlns="http://www.w3.org/2000/svg" xmlns:xlink="http://www.w3.org/1999/xlink" x="0px"
    y="0px" viewBox="0 0 1120 1120" enable-background="new 0 0 1120 1120" xml:space="preserve">
    <path fill="#4CD2D3" opacity="1.000000" stroke="none" d="
M899.962891,603.942444 
	C871.759583,687.180420 831.674255,764.112488 784.281311,837.382507 
	C722.878845,932.311462 651.885559,1019.481384 571.633728,1099.112183 
	C570.929443,1099.811035 570.189209,1100.473755 569.226746,1101.377808 
	C568.186584,1100.499756 567.148315,1099.735962 566.239929,1098.840454 
	C475.256439,1009.129456 396.591187,909.629822 330.483398,800.330261 
	C290.279358,733.858704 256.782074,664.119324 233.254852,589.899353 
	C217.804947,541.160461 207.356018,491.378448 203.826492,440.255615 
	C200.831360,396.872650 201.345306,353.633148 210.001816,310.854279 
	C222.581818,248.686188 249.599686,193.509949 290.937775,145.310303 
	C328.041473,102.047844 372.841125,69.246162 425.041107,46.689945 
	C456.215607,33.219067 488.787445,24.267626 522.572205,20.208612 
	C567.656494,14.792033 612.341492,16.919258 656.512451,27.868523 
	C711.958069,41.612595 761.519958,66.909851 805.127869,103.769989 
	C844.207092,136.802185 875.212402,176.279572 897.853210,222.155304 
	C915.528809,257.970337 927.134827,295.737579 932.064636,335.436035 
	C937.159973,376.468109 936.899658,417.622589 932.606018,458.631409 
	C927.422180,508.142731 916.281738,556.457153 899.962891,603.942444 
M286.089752,504.400116 
	C290.415009,513.391602 294.283844,522.638000 299.140472,531.332642 
	C328.271057,583.484009 368.657684,624.686035 421.143860,653.295288 
	C483.923309,687.515076 550.989563,698.471252 621.490784,686.645142 
	C664.879456,679.366943 705.121460,663.423462 741.265930,638.267334 
	C818.885864,584.244812 863.316650,509.886536 874.745422,416.094910 
	C877.973999,389.599487 877.126648,362.924255 872.839417,336.513031 
	C863.419006,278.478912 840.247559,226.578888 801.312012,182.399673 
	C742.515747,115.685013 668.143860,80.633156 579.421326,76.308784 
	C550.160889,74.882622 521.265625,78.494293 492.906982,85.814789 
	C436.084656,100.482864 387.291168,128.854462 346.770874,171.472778 
	C295.706970,225.180649 267.618011,289.100983 262.253845,362.787292 
	C258.707153,411.508026 266.706909,458.603546 286.089752,504.400116 
z" />
    <path fill="#FEFEFE" opacity="1.000000" stroke="none" d="
M285.955872,504.043579 
	C266.706909,458.603546 258.707153,411.508026 262.253845,362.787292 
	C267.618011,289.100983 295.706970,225.180649 346.770874,171.472778 
	C387.291168,128.854462 436.084656,100.482864 492.906982,85.814789 
	C521.265625,78.494293 550.160889,74.882622 579.421326,76.308784 
	C668.143860,80.633156 742.515747,115.685013 801.312012,182.399673 
	C840.247559,226.578888 863.419006,278.478912 872.839417,336.513031 
	C877.126648,362.924255 877.973999,389.599487 874.745422,416.094910 
	C863.316650,509.886536 818.885864,584.244812 741.265930,638.267334 
	C705.121460,663.423462 664.879456,679.366943 621.490784,686.645142 
	C550.989563,698.471252 483.923309,687.515076 421.143860,653.295288 
	C368.657684,624.686035 328.271057,583.484009 299.140472,531.332642 
	C294.283844,522.638000 290.415009,513.391602 285.955872,504.043579 
M358.556671,284.962463 
	C354.110382,296.308716 349.664124,307.654968 345.108124,319.281219 
	C339.313019,313.039551 333.991882,306.096649 325.218292,303.353058 
	C327.482880,315.136444 326.684235,328.389099 342.530792,332.781006 
	C333.950439,340.618439 325.786987,347.677643 318.156677,355.272400 
	C315.675018,357.742462 313.502228,361.463867 313.037659,364.865509 
	C310.198090,385.656250 307.856750,406.515778 305.458008,427.364899 
	C305.217072,429.458923 304.980652,432.077240 305.971802,433.702301 
	C311.466522,442.711426 312.289093,452.840759 314.021301,462.854462 
	C314.786224,467.276428 317.398163,471.369781 319.093475,475.643311 
	C320.091583,478.159271 321.618652,480.707947 321.724579,483.290466 
	C322.063599,491.555420 321.850464,499.842987 321.850464,508.462280 
	C344.086456,508.462280 365.805084,508.462280 388.132446,508.462280 
	C388.132446,500.961609 388.099884,493.827850 388.140442,486.694489 
	C388.194214,477.242645 388.218811,477.336609 397.654694,477.336823 
	C464.475372,477.338257 531.296143,477.345276 598.116394,477.158722 
	C602.292969,477.147034 603.198547,478.322723 603.076050,482.203369 
	C602.804443,490.807831 602.991394,499.426758 602.991394,508.402100 
	C625.198364,508.402100 646.934082,508.402100 669.354370,508.402100 
	C669.354370,502.779327 669.244873,497.472778 669.381592,492.172638 
	C669.560303,485.245148 667.507568,477.706787 674.471191,472.473053 
	C675.023315,472.058105 675.166443,470.974243 675.315308,470.167236 
	C676.519226,463.643005 677.732483,457.119629 678.824951,450.576263 
	C679.244019,448.066528 679.250366,445.099884 682.736267,445.575043 
	C683.433899,445.670166 684.237671,449.033966 684.057434,450.794922 
	C683.404541,457.172821 682.353516,463.509949 681.376770,470.398224 
	C692.209473,468.634766 702.328491,466.822205 712.504822,465.427887 
	C715.710022,464.988678 716.672119,463.810455 716.675476,460.713379 
	C716.687195,449.883636 716.735046,439.044556 717.249390,428.231903 
	C717.363647,425.829926 718.980896,423.096466 720.695312,421.247406 
	C726.318298,415.183044 732.650513,409.755798 738.062500,403.521515 
	C744.605347,395.984619 750.409180,387.810944 756.684387,380.035126 
	C760.494019,375.314453 761.777161,375.465057 764.695862,380.843750 
	C771.843384,394.015045 779.021423,407.173950 785.860535,420.505402 
	C787.561462,423.820923 788.429626,427.713043 788.975586,431.443329 
	C790.543030,442.152405 791.552795,452.943970 793.164368,463.645508 
	C794.303528,471.210114 800.078735,475.542206 806.790405,474.550720 
	C813.610535,473.543274 818.105713,467.963348 817.176208,460.517548 
	C815.505859,447.136627 813.546570,433.782379 811.276062,420.490784 
	C810.449219,415.650513 808.869019,410.797455 806.792236,406.341949 
	C802.574524,397.293793 796.992798,388.816589 793.430664,379.544159 
	C788.990967,367.987152 781.676880,361.817230 769.289124,360.152893 
	C759.990967,358.903625 750.954956,355.703247 742.991394,353.674469 
	C734.599426,365.646851 726.702576,376.912781 718.805786,388.178680 
	C717.866516,376.740692 717.751526,365.821198 717.952515,354.907532 
	C717.999084,352.379700 718.649292,349.617065 719.837524,347.399536 
	C724.552917,338.599426 729.619751,329.988281 734.502686,321.277069 
	C739.344604,312.638916 749.010742,311.249146 755.790771,305.532532 
	C756.021912,305.870758 756.253113,306.209015 756.484253,306.547272 
	C751.940857,320.682068 747.397522,334.816864 742.728943,349.341187 
	C757.088013,353.144348 770.732300,356.820923 784.442993,360.231110 
	C785.250244,360.431854 787.177063,358.688202 787.586853,357.504547 
	C789.817749,351.060913 791.746948,344.512451 793.755371,337.992432 
	C794.377869,335.971558 794.923218,333.926880 795.503906,331.893127 
	C797.477356,336.029724 797.473633,340.566254 799.611511,343.587128 
	C806.811646,353.760895 814.513428,363.615417 822.561340,373.137360 
	C826.212646,377.457550 830.326172,377.114868 834.468079,373.718384 
	C838.762756,370.196564 839.433716,367.042084 835.826416,362.041687 
	C831.157288,355.569305 825.577393,349.741547 821.069824,343.169708 
	C818.337585,339.186310 816.319641,334.482971 814.995117,329.815216 
	C812.727234,321.822723 810.841980,313.668488 809.570190,305.462219 
	C808.419739,298.037720 804.473816,293.385254 797.860168,290.643280 
	C795.768005,289.775848 793.465515,289.427734 791.286194,288.754913 
	C789.424011,288.179962 787.360962,287.834015 785.799255,286.777222 
	C776.946960,280.787018 767.819458,279.873993 758.213379,284.740723 
	C754.500244,286.621948 750.656128,288.283356 747.093628,290.415619 
	C737.153442,296.365173 725.009277,299.278778 718.898987,310.593109 
	C718.861328,310.662781 718.581787,310.601776 718.496094,310.601776 
	C718.496094,288.084625 718.496094,265.572113 718.496094,242.770309 
	C702.655090,244.769516 686.814392,246.709503 671.005859,248.883530 
	C669.825684,249.045853 668.350464,250.698151 667.900391,251.971664 
	C663.407715,264.682465 659.061462,277.445648 654.763428,290.224213 
	C653.110046,295.139801 651.686523,300.132721 650.158325,305.090393 
	C655.601685,302.189148 660.172180,299.333069 661.719116,293.153503 
	C664.546204,281.860474 667.962341,270.710999 671.339966,259.564423 
	C671.778381,258.117493 673.333557,256.084503 674.558044,255.943573 
	C686.586609,254.558960 698.654724,253.517807 710.968384,252.354904 
	C711.058716,253.631302 711.186707,254.430237 711.161255,255.224274 
	C710.398804,279.037781 709.509033,302.848083 708.937805,326.666046 
	C708.819275,331.607849 707.057922,333.252380 702.185425,333.427490 
	C688.441467,333.921387 674.714600,334.889923 660.425049,335.703033 
	C661.162903,336.625153 661.557678,337.285370 662.104553,337.776184 
	C667.804749,342.892700 673.656616,347.849670 679.174683,353.154297 
	C680.983398,354.893005 682.854614,357.402222 683.145264,359.751129 
	C685.312805,377.270996 687.091736,394.838989 688.984253,412.392792 
	C689.037598,412.887085 689.193970,413.515076 688.968994,413.868591 
	C688.154541,415.148376 687.197693,416.337524 686.294617,417.560913 
	C685.616943,416.395416 684.478516,415.285156 684.331299,414.056091 
	C682.389709,397.847595 680.742493,381.601990 678.612976,365.419464 
	C678.213379,362.383240 676.628174,359.019775 674.542236,356.785675 
	C669.665894,351.562958 664.141418,346.946899 658.902344,342.060638 
	C655.564941,338.948029 652.268433,335.791534 647.672913,331.442810 
	C656.736755,331.796417 660.324890,327.137543 662.476013,320.858521 
	C664.399475,315.243805 667.694031,309.830841 665.670959,303.402313 
	C659.475037,304.837006 658.109070,305.952789 645.851196,319.420654 
	C645.130554,317.729797 644.428101,316.317535 643.916504,314.839264 
	C642.011108,309.333679 640.689758,303.558655 638.206177,298.332947 
	C630.207092,281.502136 621.682007,264.921936 613.610229,248.124756 
	C611.732666,244.217651 609.165100,242.536301 604.970703,241.772232 
	C559.144714,233.424805 512.913513,232.172165 466.513336,233.387497 
	C439.464233,234.095978 412.666962,237.047363 386.103729,242.087311 
	C383.604553,242.561508 380.315826,243.923889 379.213989,245.892654 
	C372.144226,258.525177 365.582825,271.442169 358.556671,284.962463 
M787.041443,278.401428 
	C792.567322,284.542450 798.722168,285.965729 805.252136,282.612518 
	C812.951843,278.658600 816.991150,270.260895 815.322388,261.676697 
	C813.054077,250.008331 801.265076,244.872421 791.708923,251.389526 
	C783.210449,257.185303 780.894836,269.157318 787.041443,278.401428 
z" />
    <path fill="#050506" opacity="1.000000" stroke="none" d="
M358.705505,284.614075 
	C365.582825,271.442169 372.144226,258.525177 379.213989,245.892654 
	C380.315826,243.923889 383.604553,242.561508 386.103729,242.087311 
	C412.666962,237.047363 439.464233,234.095978 466.513336,233.387497 
	C512.913513,232.172165 559.144714,233.424805 604.970703,241.772232 
	C609.165100,242.536301 611.732666,244.217651 613.610229,248.124756 
	C621.682007,264.921936 630.207092,281.502136 638.206177,298.332947 
	C640.689758,303.558655 642.011108,309.333679 643.916504,314.839264 
	C644.428101,316.317535 645.130554,317.729797 645.851196,319.420654 
	C658.109070,305.952789 659.475037,304.837006 665.670959,303.402313 
	C667.694031,309.830841 664.399475,315.243805 662.476013,320.858521 
	C660.324890,327.137543 656.736755,331.796417 647.672913,331.442810 
	C652.268433,335.791534 655.564941,338.948029 658.902344,342.060638 
	C664.141418,346.946899 669.665894,351.562958 674.542236,356.785675 
	C676.628174,359.019775 678.213379,362.383240 678.612976,365.419464 
	C680.742493,381.601990 682.389709,397.847595 684.331299,414.056091 
	C684.478516,415.285156 685.616943,416.395416 686.294617,417.560913 
	C687.197693,416.337524 688.154541,415.148376 688.968994,413.868591 
	C689.193970,413.515076 689.037598,412.887085 688.984253,412.392792 
	C687.091736,394.838989 685.312805,377.270996 683.145264,359.751129 
	C682.854614,357.402222 680.983398,354.893005 679.174683,353.154297 
	C673.656616,347.849670 667.804749,342.892700 662.104553,337.776184 
	C661.557678,337.285370 661.162903,336.625153 660.425049,335.703033 
	C674.714600,334.889923 688.441467,333.921387 702.185425,333.427490 
	C707.057922,333.252380 708.819275,331.607849 708.937805,326.666046 
	C709.509033,302.848083 710.398804,279.037781 711.161255,255.224274 
	C711.186707,254.430237 711.058716,253.631302 710.968384,252.354904 
	C698.654724,253.517807 686.586609,254.558960 674.558044,255.943573 
	C673.333557,256.084503 671.778381,258.117493 671.339966,259.564423 
	C667.962341,270.710999 664.546204,281.860474 661.719116,293.153503 
	C660.172180,299.333069 655.601685,302.189148 650.158325,305.090393 
	C651.686523,300.132721 653.110046,295.139801 654.763428,290.224213 
	C659.061462,277.445648 663.407715,264.682465 667.900391,251.971664 
	C668.350464,250.698151 669.825684,249.045853 671.005859,248.883530 
	C686.814392,246.709503 702.655090,244.769516 718.496094,242.770309 
	C718.496094,265.572113 718.496094,288.084625 718.496094,310.601776 
	C718.581787,310.601776 718.861328,310.662781 718.898987,310.593109 
	C725.009277,299.278778 737.153442,296.365173 747.093628,290.415619 
	C750.656128,288.283356 754.500244,286.621948 758.213379,284.740723 
	C767.819458,279.873993 776.946960,280.787018 785.799255,286.777222 
	C787.360962,287.834015 789.424011,288.179962 791.286194,288.754913 
	C793.465515,289.427734 795.768005,289.775848 797.860168,290.643280 
	C804.473816,293.385254 808.419739,298.037720 809.570190,305.462219 
	C810.841980,313.668488 812.727234,321.822723 814.995117,329.815216 
	C816.319641,334.482971 818.337585,339.186310 821.069824,343.169708 
	C825.577393,349.741547 831.157288,355.569305 835.826416,362.041687 
	C839.433716,367.042084 838.762756,370.196564 834.468079,373.718384 
	C830.326172,377.114868 826.212646,377.457550 822.561340,373.137360 
	C814.513428,363.615417 806.811646,353.760895 799.611511,343.587128 
	C797.473633,340.566254 797.477356,336.029724 795.503906,331.893127 
	C794.923218,333.926880 794.377869,335.971558 793.755371,337.992432 
	C791.746948,344.512451 789.817749,351.060913 787.586853,357.504547 
	C787.177063,358.688202 785.250244,360.431854 784.442993,360.231110 
	C770.732300,356.820923 757.088013,353.144348 742.728943,349.341187 
	C747.397522,334.816864 751.940857,320.682068 756.484253,306.547272 
	C756.253113,306.209015 756.021912,305.870758 755.790771,305.532532 
	C749.010742,311.249146 739.344604,312.638916 734.502686,321.277069 
	C729.619751,329.988281 724.552917,338.599426 719.837524,347.399536 
	C718.649292,349.617065 717.999084,352.379700 717.952515,354.907532 
	C717.751526,365.821198 717.866516,376.740692 718.805786,388.178680 
	C726.702576,376.912781 734.599426,365.646851 742.991394,353.674469 
	C750.954956,355.703247 759.990967,358.903625 769.289124,360.152893 
	C781.676880,361.817230 788.990967,367.987152 793.430664,379.544159 
	C796.992798,388.816589 802.574524,397.293793 806.792236,406.341949 
	C808.869019,410.797455 810.449219,415.650513 811.276062,420.490784 
	C813.546570,433.782379 815.505859,447.136627 817.176208,460.517548 
	C818.105713,467.963348 813.610535,473.543274 806.790405,474.550720 
	C800.078735,475.542206 794.303528,471.210114 793.164368,463.645508 
	C791.552795,452.943970 790.543030,442.152405 788.975586,431.443329 
	C788.429626,427.713043 787.561462,423.820923 785.860535,420.505402 
	C779.021423,407.173950 771.843384,394.015045 764.695862,380.843750 
	C761.777161,375.465057 760.494019,375.314453 756.684387,380.035126 
	C750.409180,387.810944 744.605347,395.984619 738.062500,403.521515 
	C732.650513,409.755798 726.318298,415.183044 720.695312,421.247406 
	C718.980896,423.096466 717.363647,425.829926 717.249390,428.231903 
	C716.735046,439.044556 716.687195,449.883636 716.675476,460.713379 
	C716.672119,463.810455 715.710022,464.988678 712.504822,465.427887 
	C702.328491,466.822205 692.209473,468.634766 681.376770,470.398224 
	C682.353516,463.509949 683.404541,457.172821 684.057434,450.794922 
	C684.237671,449.033966 683.433899,445.670166 682.736267,445.575043 
	C679.250366,445.099884 679.244019,448.066528 678.824951,450.576263 
	C677.732483,457.119629 676.519226,463.643005 675.315308,470.167236 
	C675.166443,470.974243 675.023315,472.058105 674.471191,472.473053 
	C667.507568,477.706787 669.560303,485.245148 669.381592,492.172638 
	C669.244873,497.472778 669.354370,502.779327 669.354370,508.402100 
	C646.934082,508.402100 625.198364,508.402100 602.991394,508.402100 
	C602.991394,499.426758 602.804443,490.807831 603.076050,482.203369 
	C603.198547,478.322723 602.292969,477.147034 598.116394,477.158722 
	C531.296143,477.345276 464.475372,477.338257 397.654694,477.336823 
	C388.218811,477.336609 388.194214,477.242645 388.140442,486.694489 
	C388.099884,493.827850 388.132446,500.961609 388.132446,508.462280 
	C365.805084,508.462280 344.086456,508.462280 321.850464,508.462280 
	C321.850464,499.842987 322.063599,491.555420 321.724579,483.290466 
	C321.618652,480.707947 320.091583,478.159271 319.093475,475.643311 
	C317.398163,471.369781 314.786224,467.276428 314.021301,462.854462 
	C312.289093,452.840759 311.466522,442.711426 305.971802,433.702301 
	C304.980652,432.077240 305.217072,429.458923 305.458008,427.364899 
	C307.856750,406.515778 310.198090,385.656250 313.037659,364.865509 
	C313.502228,361.463867 315.675018,357.742462 318.156677,355.272400 
	C325.786987,347.677643 333.950439,340.618439 342.530792,332.781006 
	C326.684235,328.389099 327.482880,315.136444 325.218292,303.353058 
	C333.991882,306.096649 339.313019,313.039551 345.108124,319.281219 
	C349.664124,307.654968 354.110382,296.308716 358.705505,284.614075 
M540.573547,339.109406 
	C572.031921,334.960724 603.490295,330.812012 635.383362,326.605957 
	C634.373230,323.246277 633.554077,320.765594 632.881409,318.245758 
	C627.148804,296.771484 619.257507,276.198090 608.519958,256.659607 
	C605.643921,251.426346 602.237732,249.453461 596.578064,248.913254 
	C555.564880,244.998566 514.447937,243.683060 473.305786,244.841156 
	C444.863678,245.641769 416.456726,247.807831 388.053528,249.661575 
	C385.706818,249.814728 382.381226,251.712234 381.422180,253.714798 
	C374.252686,268.685486 367.158142,283.720734 360.884338,299.080566 
	C357.335693,307.768524 355.383270,317.108429 352.650757,326.361633 
	C353.983856,326.732727 354.740845,327.044006 355.525269,327.147339 
	C392.337372,331.997742 429.197540,336.514526 465.942047,341.830627 
	C479.328308,343.767365 492.702271,343.875000 506.029999,343.536255 
	C517.279785,343.250305 528.473450,340.756348 540.573547,339.109406 
M446.745758,384.672241 
	C439.366211,383.927216 431.986694,383.182159 424.801697,382.456757 
	C424.406250,383.162811 424.105377,383.449646 424.104523,383.737396 
	C424.055725,400.065643 424.061768,416.394073 423.981689,432.722107 
	C423.964569,436.212952 426.282715,436.699280 428.897461,437.059540 
	C438.632355,438.400726 448.396606,439.567078 458.089722,441.163879 
	C470.376862,443.188049 482.825958,444.770172 493.672089,451.815216 
	C494.684265,452.472717 496.776489,451.957245 498.172729,451.450531 
	C504.856323,449.024811 511.279694,445.468323 518.153137,444.065125 
	C532.822327,441.070374 547.700806,439.080017 562.520325,436.856445 
	C566.178894,436.307495 567.440613,434.882996 567.359314,431.013580 
	C567.043945,416.021790 567.141785,401.021393 567.055969,386.024414 
	C567.048828,384.776642 566.818909,383.530151 566.668396,382.045746 
	C563.937439,382.431061 561.658936,382.795929 559.369568,383.069122 
	C522.197205,387.505341 484.979492,388.952850 446.745758,384.672241 
M389.902740,407.147858 
	C394.820557,397.695557 390.443848,389.385742 384.939972,382.722351 
	C377.709503,373.968597 369.272064,365.955688 360.320526,358.943024 
	C348.538513,349.712921 335.512024,353.094025 328.689362,366.504730 
	C321.418182,380.797028 321.768738,395.421234 328.996063,409.683624 
	C331.639893,414.900940 335.815765,418.862000 342.122162,419.232178 
	C349.424194,419.660889 356.781769,420.365631 364.047272,419.896790 
	C373.953888,419.257538 383.726715,417.477325 389.902740,407.147858 
M653.716492,356.461029 
	C647.873413,353.629395 641.631897,352.631287 635.939880,355.862854 
	C621.830688,363.873230 609.732178,374.320770 602.394714,389.076172 
	C595.713379,402.512268 601.187988,414.017365 615.638672,418.102936 
	C627.595581,421.483429 639.741516,420.593231 651.739807,418.435944 
	C654.536133,417.933167 657.583069,415.737122 659.409180,413.440948 
	C669.134888,401.212158 668.640930,387.269714 665.230347,373.070343 
	C663.626831,366.394501 660.061401,360.868164 653.716492,356.461029 
M361.073212,434.884491 
	C358.765320,426.986877 354.460297,422.873260 348.875305,423.228851 
	C343.996674,423.539520 339.154053,428.647522 338.017181,434.682007 
	C336.775635,441.271881 341.150421,448.737518 347.246887,450.432709 
	C352.322296,451.843964 358.355957,447.709595 360.521576,441.106018 
	C361.072723,439.425446 360.959778,437.527100 361.073212,434.884491 
M638.543396,423.852661 
	C629.286011,428.368805 627.045959,440.515320 634.569397,447.475403 
	C636.641968,449.392761 640.224060,450.824402 642.979614,450.625366 
	C649.231323,450.173767 654.134277,441.758911 653.117981,434.546967 
	C652.090393,427.254486 646.386963,422.735718 638.543396,423.852661 
z" />
    <path fill="#080808" opacity="1.000000" stroke="none" d="
M786.819702,278.107513 
	C780.894836,269.157318 783.210449,257.185303 791.708923,251.389526 
	C801.265076,244.872421 813.054077,250.008331 815.322388,261.676697 
	C816.991150,270.260895 812.951843,278.658600 805.252136,282.612518 
	C798.722168,285.965729 792.567322,284.542450 786.819702,278.107513 
z" />
    <path fill="#FDFDFD" opacity="1.000000" stroke="none" d="
M540.132751,339.174561 
	C528.473450,340.756348 517.279785,343.250305 506.029999,343.536255 
	C492.702271,343.875000 479.328308,343.767365 465.942047,341.830627 
	C429.197540,336.514526 392.337372,331.997742 355.525269,327.147339 
	C354.740845,327.044006 353.983856,326.732727 352.650757,326.361633 
	C355.383270,317.108429 357.335693,307.768524 360.884338,299.080566 
	C367.158142,283.720734 374.252686,268.685486 381.422180,253.714798 
	C382.381226,251.712234 385.706818,249.814728 388.053528,249.661575 
	C416.456726,247.807831 444.863678,245.641769 473.305786,244.841156 
	C514.447937,243.683060 555.564880,244.998566 596.578064,248.913254 
	C602.237732,249.453461 605.643921,251.426346 608.519958,256.659607 
	C619.257507,276.198090 627.148804,296.771484 632.881409,318.245758 
	C633.554077,320.765594 634.373230,323.246277 635.383362,326.605957 
	C603.490295,330.812012 572.031921,334.960724 540.132751,339.174561 
z" />
    <path fill="#FDFDFD" opacity="1.000000" stroke="none" d="
M447.211975,384.698853 
	C484.979492,388.952850 522.197205,387.505341 559.369568,383.069122 
	C561.658936,382.795929 563.937439,382.431061 566.668396,382.045746 
	C566.818909,383.530151 567.048828,384.776642 567.055969,386.024414 
	C567.141785,401.021393 567.043945,416.021790 567.359314,431.013580 
	C567.440613,434.882996 566.178894,436.307495 562.520325,436.856445 
	C547.700806,439.080017 532.822327,441.070374 518.153137,444.065125 
	C511.279694,445.468323 504.856323,449.024811 498.172729,451.450531 
	C496.776489,451.957245 494.684265,452.472717 493.672089,451.815216 
	C482.825958,444.770172 470.376862,443.188049 458.089722,441.163879 
	C448.396606,439.567078 438.632355,438.400726 428.897461,437.059540 
	C426.282715,436.699280 423.964569,436.212952 423.981689,432.722107 
	C424.061768,416.394073 424.055725,400.065643 424.104523,383.737396 
	C424.105377,383.449646 424.406250,383.162811 424.801697,382.456757 
	C431.986694,383.182159 439.366211,383.927216 447.211975,384.698853 
z" />
    <path fill="#FCFCFC" opacity="1.000000" stroke="none" d="
M389.721191,407.480347 
	C383.726715,417.477325 373.953888,419.257538 364.047272,419.896790 
	C356.781769,420.365631 349.424194,419.660889 342.122162,419.232178 
	C335.815765,418.862000 331.639893,414.900940 328.996063,409.683624 
	C321.768738,395.421234 321.418182,380.797028 328.689362,366.504730 
	C335.512024,353.094025 348.538513,349.712921 360.320526,358.943024 
	C369.272064,365.955688 377.709503,373.968597 384.939972,382.722351 
	C390.443848,389.385742 394.820557,397.695557 389.721191,407.480347 
z" />
    <path fill="#FCFCFC" opacity="1.000000" stroke="none" d="
M654.041626,356.655701 
	C660.061401,360.868164 663.626831,366.394501 665.230347,373.070343 
	C668.640930,387.269714 669.134888,401.212158 659.409180,413.440948 
	C657.583069,415.737122 654.536133,417.933167 651.739807,418.435944 
	C639.741516,420.593231 627.595581,421.483429 615.638672,418.102936 
	C601.187988,414.017365 595.713379,402.512268 602.394714,389.076172 
	C609.732178,374.320770 621.830688,363.873230 635.939880,355.862854 
	C641.631897,352.631287 647.873413,353.629395 654.041626,356.655701 
z" />
    <path fill="#F6F6F6" opacity="1.000000" stroke="none" d="
M361.112610,435.306641 
	C360.959778,437.527100 361.072723,439.425446 360.521576,441.106018 
	C358.355957,447.709595 352.322296,451.843964 347.246887,450.432709 
	C341.150421,448.737518 336.775635,441.271881 338.017181,434.682007 
	C339.154053,428.647522 343.996674,423.539520 348.875305,423.228851 
	C354.460297,422.873260 358.765320,426.986877 361.112610,435.306641 
z" />
    <path fill="#F7F7F7" opacity="1.000000" stroke="none" d="
M638.900879,423.709412 
	C646.386963,422.735718 652.090393,427.254486 653.117981,434.546967 
	C654.134277,441.758911 649.231323,450.173767 642.979614,450.625366 
	C640.224060,450.824402 636.641968,449.392761 634.569397,447.475403 
	C627.045959,440.515320 629.286011,428.368805 638.900879,423.709412 
z" />
</svg>