<svg version="1.1" id="Layer_1" xmlns="http://www.w3.org/2000/svg" xmlns:xlink="http://www.w3.org/1999/xlink" x="0px" y="0px"
	 width="100%" viewBox="0 0 1120 1120" enable-background="new 0 0 1120 1120" xml:space="preserve">
<path fill="#B1DD52" opacity="1.000000" stroke="none" d="
M899.962891,603.942444 
	C871.759583,687.180420 831.674255,764.112488 784.281311,837.382507 
	C722.878845,932.311462 651.885559,1019.481384 571.633728,1099.112183 
	C570.929443,1099.811035 570.189209,1100.473755 569.226746,1101.377808 
	C568.186584,1100.499756 567.148315,1099.735962 566.239929,1098.840454 
	C475.256439,1009.129456 396.591187,909.629822 330.483398,800.330261 
	C290.279358,733.858704 256.782074,664.119324 233.254852,589.899353 
	C217.804947,541.160461 207.356018,491.378448 203.826492,440.255615 
	C200.831360,396.872650 201.345306,353.633148 210.001816,310.854279 
	C222.581818,248.686188 249.599686,193.509949 290.937775,145.310303 
	C328.041473,102.047844 372.841125,69.246162 425.041107,46.689945 
	C456.215607,33.219067 488.787445,24.267626 522.572205,20.208612 
	C567.656494,14.792033 612.341492,16.919258 656.512451,27.868523 
	C711.958069,41.612595 761.519958,66.909851 805.127869,103.769989 
	C844.207092,136.802185 875.212402,176.279572 897.853210,222.155304 
	C915.528809,257.970337 927.134827,295.737579 932.064636,335.436035 
	C937.159973,376.468109 936.899658,417.622589 932.606018,458.631409 
	C927.422180,508.142731 916.281738,556.457153 899.962891,603.942444 
M286.089752,504.400116 
	C290.415009,513.391602 294.283844,522.638000 299.140472,531.332642 
	C328.271057,583.484009 368.657684,624.686035 421.143860,653.295288 
	C483.923309,687.515076 550.989563,698.471252 621.490784,686.645142 
	C664.879456,679.366943 705.121460,663.423462 741.265930,638.267334 
	C818.885864,584.244812 863.316650,509.886536 874.745422,416.094910 
	C877.973999,389.599487 877.126648,362.924255 872.839417,336.513031 
	C863.419006,278.478912 840.247559,226.578888 801.312012,182.399673 
	C742.515747,115.685013 668.143860,80.633156 579.421326,76.308784 
	C550.160889,74.882622 521.265625,78.494293 492.906982,85.814789 
	C436.084656,100.482864 387.291168,128.854462 346.770874,171.472778 
	C295.706970,225.180649 267.618011,289.100983 262.253845,362.787292 
	C258.707153,411.508026 266.706909,458.603546 286.089752,504.400116 
z" />
<path fill="#D1D581" opacity="1.000000" stroke="none" 
	d="
M935.640808,365.812866 
	C935.024292,364.822144 934.178772,363.557404 934.099976,362.246613 
	C932.435547,334.556030 928.351135,307.297180 919.893982,280.792969 
	C919.359619,279.118286 919.042114,277.374451 918.623779,275.662750 
	C919.185791,275.532227 919.747803,275.401703 920.309814,275.271179 
	C923.536682,289.579254 927.124878,303.818298 929.875610,318.217316 
	C932.062683,329.666260 933.319763,341.298828 934.790283,352.875214 
	C935.268738,356.641815 935.117676,360.488342 935.535278,364.586792 
	C935.800354,365.089325 935.784607,365.303375 935.640808,365.812866 
z"/>
<path fill="#D1D581" opacity="1.000000" stroke="none" 
	d="
M935.796570,427.801727 
	C935.529663,429.692139 935.140930,431.254242 934.975525,432.839691 
	C933.337585,448.537201 931.803406,464.245850 930.098450,479.935974 
	C929.181763,488.371887 927.990112,496.777924 926.922485,505.197418 
	C926.471008,505.135132 926.019470,505.072845 925.567993,505.010559 
	C926.475891,499.223999 927.540222,493.456848 928.260315,487.647003 
	C929.945435,474.049988 931.513000,460.437775 933.032104,446.821014 
	C933.758972,440.305145 934.267761,433.764954 935.210999,427.063873 
	C935.623901,427.089386 935.701172,427.286835 935.796570,427.801727 
z"/>
<path fill="#D0D37F" opacity="1.000000" stroke="none" 
	d="
M202.354492,427.194153 
	C202.956146,427.685699 203.801346,428.442108 203.869385,429.262939 
	C205.499771,448.927063 207.046890,468.598053 208.583145,487.940857 
	C205.453186,468.558075 202.846649,448.768188 202.474457,428.414276 
	C202.206772,427.911621 202.221390,427.700287 202.354492,427.194153 
z"/>
<path fill="#D0D37F" opacity="1.000000" stroke="none" 
	d="
M202.240311,371.464844 
	C202.575562,372.294952 202.979828,373.579102 202.977356,374.862488 
	C202.945541,391.342529 202.855652,407.822449 202.564240,424.644348 
	C202.272079,407.297028 202.196167,389.607758 202.240311,371.464844 
z"/>
<path fill="#D1D581" opacity="1.000000" stroke="none" 
	d="
M935.762451,424.540100 
	C935.427734,423.375275 935.034546,421.757233 935.036499,420.139679 
	C935.055542,403.993439 935.139771,387.847290 935.419312,371.358490 
	C935.717896,388.706299 935.802673,406.396729 935.762451,424.540100 
z"/>
<path fill="#D0D37F" opacity="1.000000" stroke="none" 
	d="
M202.220978,365.203247 
	C202.643967,363.924286 203.092377,362.962250 203.540787,362.000183 
	C203.718109,362.043365 203.895432,362.086548 204.072754,362.129730 
	C203.739059,363.362579 203.405350,364.595428 202.789978,365.963867 
	C202.420990,365.906342 202.333694,365.713226 202.220978,365.203247 
z"/>
<path fill="#FFFFFE" opacity="1.000000" stroke="none" 
	d="
M863.280151,471.285156 
	C846.089233,528.870605 814.745178,576.836365 769.749878,615.950256 
	C724.863647,654.969177 672.729553,678.494385 614.154724,687.566101 
	C586.248596,691.887939 558.167603,691.922058 530.036133,688.318542 
	C492.650665,683.529724 457.367279,672.324585 424.213654,654.635193 
	C390.528320,636.662109 361.225647,613.089966 336.276886,584.073303 
	C309.328522,552.730957 289.399231,517.519470 276.703156,478.202209 
	C269.163971,454.854858 264.618011,430.968262 262.803802,406.463165 
	C258.320007,345.899200 270.370117,288.806152 299.783417,235.851746 
	C336.038269,170.580170 389.112457,123.925072 459.008148,96.972527 
	C490.895142,84.676567 523.941406,77.862335 558.180847,76.813583 
	C629.966125,74.614822 695.058533,94.576233 752.459717,137.453613 
	C812.123596,182.021164 850.609131,241.091660 867.973938,313.721527 
	C874.753479,342.077545 877.337769,370.841064 875.825623,399.878479 
	C874.569580,423.998535 870.346008,447.717438 863.280151,471.285156 
M499.160095,300.618958 
	C505.517731,295.836731 512.638306,293.620819 520.621948,293.870148 
	C526.614563,294.057312 532.618286,293.853271 538.616272,293.907471 
	C546.403748,293.977844 547.632019,294.768250 547.634949,302.358276 
	C547.642578,322.008026 547.217957,341.657654 547.037659,361.308014 
	C547.004211,364.952332 545.291626,366.378296 541.783569,366.281342 
	C537.953796,366.175415 534.118652,366.246613 530.285950,366.263550 
	C522.572815,366.297607 522.180115,366.826202 523.535461,374.243286 
	C525.409424,384.498199 523.903320,394.102325 517.849487,402.809998 
	C508.615967,416.091309 493.705414,419.933990 477.054871,412.528748 
	C468.420990,408.688904 460.283966,403.728821 451.938934,399.244202 
	C449.111572,397.724731 446.778534,397.057159 446.784485,401.617706 
	C446.804260,416.781982 446.834778,431.946289 446.818115,447.110504 
	C446.814423,450.482635 448.297394,451.153931 451.229340,449.947144 
	C455.833344,448.052094 460.351135,445.772949 465.130981,444.510284 
	C484.470337,439.401459 501.243073,449.869995 504.877289,469.007233 
	C508.391388,487.511871 495.989014,505.020935 477.496704,507.489838 
	C468.615997,508.675507 460.867889,505.136108 453.276123,501.185577 
	C448.533875,498.717834 446.884033,499.586853 446.797516,504.935394 
	C446.689789,511.598877 446.765961,518.266724 446.853821,524.931458 
	C446.913696,529.472961 449.241272,532.651367 453.555267,533.778137 
	C458.847198,535.160339 464.232697,536.559875 469.655121,537.001099 
	C492.016907,538.820862 522.807190,523.439575 531.811951,493.028198 
	C534.136292,485.178436 534.471130,485.053925 542.615295,485.052368 
	C586.608887,485.044098 630.602539,485.079956 674.596069,485.027832 
	C687.663025,485.012329 686.202393,485.113434 690.172424,495.754150 
	C704.653442,534.567017 752.454041,552.886902 789.000122,521.165100 
	C798.462158,512.952148 804.160522,502.315186 807.746704,490.480103 
	C808.781677,487.064392 810.450073,484.712799 814.356323,485.086182 
	C819.296692,485.558411 823.191528,483.382568 826.351257,480.024536 
	C831.825012,474.207123 837.332642,468.367554 842.187622,462.046844 
	C844.281616,459.320587 845.770630,455.391754 845.839966,451.974792 
	C846.154541,436.487030 845.921753,420.986389 845.775208,405.491455 
	C845.636108,390.792633 837.735474,381.662720 824.494141,376.633453 
	C820.152039,374.984253 815.639465,373.784882 811.208801,372.367676 
	C797.431091,367.960724 783.818054,362.914124 769.831116,359.322845 
	C756.866394,355.993988 745.806213,350.026367 735.965088,341.126709 
	C718.789612,325.594208 701.431396,310.262329 684.059631,294.948669 
	C664.284851,277.516815 641.593079,268.423828 614.782288,269.041748 
	C584.969482,269.728882 555.128052,269.159668 525.299072,269.183655 
	C522.310303,269.186066 519.292480,269.300140 516.337769,269.715454 
	C496.256653,272.537994 480.999359,284.405365 466.172119,296.914673 
	C465.074066,297.841003 464.570038,300.853241 465.218414,302.216248 
	C467.420654,306.845856 470.170471,311.228851 472.891937,315.593323 
	C475.129486,319.181732 477.490784,318.817261 480.556396,316.049774 
	C486.354950,310.815094 492.534882,306.002838 499.160095,300.618958 
M336.913300,289.380737 
	C326.334717,298.981750 323.350647,311.643341 323.194855,325.111511 
	C322.932831,347.763580 323.673523,370.437042 322.981598,393.070648 
	C322.558075,406.924622 326.170837,416.876404 340.683502,420.640167 
	C344.227112,421.559174 345.696228,424.239685 344.819275,427.999481 
	C344.519623,429.284210 344.329315,430.629150 344.335510,431.945435 
	C344.485779,463.925690 344.600037,495.906433 344.890137,527.885559 
	C344.975220,537.269836 350.724548,544.706238 359.605530,547.800049 
	C367.947327,550.705994 376.708099,547.964600 382.795380,540.543457 
	C387.366394,534.970825 387.270111,535.055420 392.026123,540.465881 
	C397.678864,546.896423 404.666351,550.187073 413.372375,548.322632 
	C422.075409,546.458801 427.212738,540.648254 429.543854,532.397034 
	C430.430786,529.257629 430.461243,525.808594 430.471985,522.499329 
	C430.640564,470.525787 430.734467,418.551971 430.886475,366.578369 
	C430.892670,364.464081 431.301483,362.350952 431.522736,360.237305 
	C432.294891,359.871033 433.067078,359.504761 433.839233,359.138519 
	C434.911774,360.815063 435.747467,362.716644 437.093506,364.133331 
	C450.732971,378.488373 465.749359,391.016632 484.309021,398.618744 
	C492.661560,402.040039 500.166656,399.709534 505.386261,392.407745 
	C509.950043,386.023407 509.307312,377.857269 503.360840,371.407318 
	C500.210205,367.989868 496.601624,364.990540 493.159698,361.846375 
	C474.607025,344.898712 457.685364,326.689362 447.403717,303.269958 
	C446.407776,301.001434 445.039307,298.873230 443.665741,296.797729 
	C437.624573,287.669525 429.124115,281.563812 418.298859,280.980530 
	C400.037506,279.996552 381.708954,280.201935 363.407501,280.042877 
	C353.765961,279.959106 345.096161,282.993896 336.913300,289.380737 
M367.552582,262.025848 
	C375.328430,267.137817 383.654633,269.547211 393.085602,268.102356 
	C412.993652,265.052338 427.636292,244.503922 423.624878,224.916992 
	C419.424133,204.405518 398.550812,190.674332 378.985870,196.149902 
	C364.803101,200.119186 355.243805,209.403473 352.052673,224.079041 
	C348.644989,239.750504 354.623840,252.031006 367.552582,262.025848 
z"/>
<path fill="#CDCE74" opacity="1.000000" stroke="none" 
	d="
M466.580505,32.642162 
	C455.404266,36.293587 444.595886,39.794338 433.787476,43.295090 
	C433.660980,42.912018 433.534485,42.528946 433.407990,42.145870 
	C446.478302,37.855217 459.548615,33.564560 472.618927,29.273907 
	C472.761536,29.706764 472.904114,30.139622 473.046722,30.572479 
	C471.013916,31.212149 468.981110,31.851820 466.580505,32.642162 
z"/>
<path fill="#D1D582" opacity="1.000000" stroke="none" 
	d="
M206.572586,332.750916 
	C205.808533,338.712646 205.196426,344.280060 204.584305,349.847473 
	C204.270157,349.816620 203.955994,349.785767 203.641846,349.754913 
	C204.446182,342.059784 205.250519,334.364624 206.054840,326.669495 
	C206.370346,326.680084 206.685837,326.690674 207.001343,326.701263 
	C207.001343,327.594727 207.037155,328.489990 206.991776,329.381104 
	C206.941193,330.374908 206.816788,331.364929 206.572586,332.750916 
z"/>
<path fill="#010101" opacity="1.000000" stroke="none" 
	d="
M498.858215,300.816986 
	C492.534882,306.002838 486.354950,310.815094 480.556396,316.049774 
	C477.490784,318.817261 475.129486,319.181732 472.891937,315.593323 
	C470.170471,311.228851 467.420654,306.845856 465.218414,302.216248 
	C464.570038,300.853241 465.074066,297.841003 466.172119,296.914673 
	C480.999359,284.405365 496.256653,272.537994 516.337769,269.715454 
	C519.292480,269.300140 522.310303,269.186066 525.299072,269.183655 
	C555.128052,269.159668 584.969482,269.728882 614.782288,269.041748 
	C641.593079,268.423828 664.284851,277.516815 684.059631,294.948669 
	C701.431396,310.262329 718.789612,325.594208 735.965088,341.126709 
	C745.806213,350.026367 756.866394,355.993988 769.831116,359.322845 
	C783.818054,362.914124 797.431091,367.960724 811.208801,372.367676 
	C815.639465,373.784882 820.152039,374.984253 824.494141,376.633453 
	C837.735474,381.662720 845.636108,390.792633 845.775208,405.491455 
	C845.921753,420.986389 846.154541,436.487030 845.839966,451.974792 
	C845.770630,455.391754 844.281616,459.320587 842.187622,462.046844 
	C837.332642,468.367554 831.825012,474.207123 826.351257,480.024536 
	C823.191528,483.382568 819.296692,485.558411 814.356323,485.086182 
	C810.450073,484.712799 808.781677,487.064392 807.746704,490.480103 
	C804.160522,502.315186 798.462158,512.952148 789.000122,521.165100 
	C752.454041,552.886902 704.653442,534.567017 690.172424,495.754150 
	C686.202393,485.113434 687.663025,485.012329 674.596069,485.027832 
	C630.602539,485.079956 586.608887,485.044098 542.615295,485.052368 
	C534.471130,485.053925 534.136292,485.178436 531.811951,493.028198 
	C522.807190,523.439575 492.016907,538.820862 469.655121,537.001099 
	C464.232697,536.559875 458.847198,535.160339 453.555267,533.778137 
	C449.241272,532.651367 446.913696,529.472961 446.853821,524.931458 
	C446.765961,518.266724 446.689789,511.598877 446.797516,504.935394 
	C446.884033,499.586853 448.533875,498.717834 453.276123,501.185577 
	C460.867889,505.136108 468.615997,508.675507 477.496704,507.489838 
	C495.989014,505.020935 508.391388,487.511871 504.877289,469.007233 
	C501.243073,449.869995 484.470337,439.401459 465.130981,444.510284 
	C460.351135,445.772949 455.833344,448.052094 451.229340,449.947144 
	C448.297394,451.153931 446.814423,450.482635 446.818115,447.110504 
	C446.834778,431.946289 446.804260,416.781982 446.784485,401.617706 
	C446.778534,397.057159 449.111572,397.724731 451.938934,399.244202 
	C460.283966,403.728821 468.420990,408.688904 477.054871,412.528748 
	C493.705414,419.933990 508.615967,416.091309 517.849487,402.809998 
	C523.903320,394.102325 525.409424,384.498199 523.535461,374.243286 
	C522.180115,366.826202 522.572815,366.297607 530.285950,366.263550 
	C534.118652,366.246613 537.953796,366.175415 541.783569,366.281342 
	C545.291626,366.378296 547.004211,364.952332 547.037659,361.308014 
	C547.217957,341.657654 547.642578,322.008026 547.634949,302.358276 
	C547.632019,294.768250 546.403748,293.977844 538.616272,293.907471 
	C532.618286,293.853271 526.614563,294.057312 520.621948,293.870148 
	C512.638306,293.620819 505.517731,295.836731 498.858215,300.816986 
M649.742798,304.751190 
	C642.680176,298.844452 634.727844,294.491302 625.447754,294.244720 
	C609.143372,293.811493 592.820557,294.066376 576.505432,294.052856 
	C572.635559,294.049652 570.729553,295.918549 570.778931,299.909912 
	C570.865356,306.901306 570.787476,313.894684 570.785217,320.887238 
	C570.780884,334.372711 570.695129,347.859467 570.900024,361.341827 
	C570.922913,362.851654 572.332214,365.154083 573.603027,365.578400 
	C574.653076,365.929016 576.705139,364.293640 577.859131,363.099426 
	C580.029724,360.853058 581.542236,357.893219 583.906555,355.924347 
	C597.459045,344.638763 624.339233,346.615448 632.550781,365.833313 
	C654.496277,365.833313 676.467468,365.846497 698.438599,365.821014 
	C702.345215,365.816467 705.741943,363.998962 706.274231,360.232758 
	C706.681885,357.348907 705.264954,354.090729 704.195190,351.169067 
	C703.737122,349.917999 702.135376,349.056976 700.993408,348.089417 
	C684.105103,333.779755 667.206787,319.481964 649.742798,304.751190 
M727.803162,449.244659 
	C720.959595,455.474701 716.130066,462.932343 714.925171,472.220123 
	C713.337769,484.455719 721.705688,499.185394 733.003052,504.720734 
	C745.208679,510.701080 761.442383,508.311737 771.119324,499.110565 
	C783.707764,487.140930 784.765991,468.274597 773.626770,454.407104 
	C762.720581,440.829773 743.644470,438.462189 727.803162,449.244659 
z"/>
<path fill="#010101" opacity="1.000000" stroke="none" 
	d="
M337.193420,289.159851 
	C345.096161,282.993896 353.765961,279.959106 363.407501,280.042877 
	C381.708954,280.201935 400.037506,279.996552 418.298859,280.980530 
	C429.124115,281.563812 437.624573,287.669525 443.665741,296.797729 
	C445.039307,298.873230 446.407776,301.001434 447.403717,303.269958 
	C457.685364,326.689362 474.607025,344.898712 493.159698,361.846375 
	C496.601624,364.990540 500.210205,367.989868 503.360840,371.407318 
	C509.307312,377.857269 509.950043,386.023407 505.386261,392.407745 
	C500.166656,399.709534 492.661560,402.040039 484.309021,398.618744 
	C465.749359,391.016632 450.732971,378.488373 437.093506,364.133331 
	C435.747467,362.716644 434.911774,360.815063 433.839233,359.138519 
	C433.067078,359.504761 432.294891,359.871033 431.522736,360.237305 
	C431.301483,362.350952 430.892670,364.464081 430.886475,366.578369 
	C430.734467,418.551971 430.640564,470.525787 430.471985,522.499329 
	C430.461243,525.808594 430.430786,529.257629 429.543854,532.397034 
	C427.212738,540.648254 422.075409,546.458801 413.372375,548.322632 
	C404.666351,550.187073 397.678864,546.896423 392.026123,540.465881 
	C387.270111,535.055420 387.366394,534.970825 382.795380,540.543457 
	C376.708099,547.964600 367.947327,550.705994 359.605530,547.800049 
	C350.724548,544.706238 344.975220,537.269836 344.890137,527.885559 
	C344.600037,495.906433 344.485779,463.925690 344.335510,431.945435 
	C344.329315,430.629150 344.519623,429.284210 344.819275,427.999481 
	C345.696228,424.239685 344.227112,421.559174 340.683502,420.640167 
	C326.170837,416.876404 322.558075,406.924622 322.981598,393.070648 
	C323.673523,370.437042 322.932831,347.763580 323.194855,325.111511 
	C323.350647,311.643341 326.334717,298.981750 337.193420,289.159851 
z"/>
<path fill="#020202" opacity="1.000000" stroke="none" 
	d="
M367.246521,261.831543 
	C354.623840,252.031006 348.644989,239.750504 352.052673,224.079041 
	C355.243805,209.403473 364.803101,200.119186 378.985870,196.149902 
	C398.550812,190.674332 419.424133,204.405518 423.624878,224.916992 
	C427.636292,244.503922 412.993652,265.052338 393.085602,268.102356 
	C383.654633,269.547211 375.328430,267.137817 367.246521,261.831543 
z"/>
<path fill="#FDFDFD" opacity="1.000000" stroke="none" 
	d="
M650.026794,304.966309 
	C667.206787,319.481964 684.105103,333.779755 700.993408,348.089417 
	C702.135376,349.056976 703.737122,349.917999 704.195190,351.169067 
	C705.264954,354.090729 706.681885,357.348907 706.274231,360.232758 
	C705.741943,363.998962 702.345215,365.816467 698.438599,365.821014 
	C676.467468,365.846497 654.496277,365.833313 632.550781,365.833313 
	C624.339233,346.615448 597.459045,344.638763 583.906555,355.924347 
	C581.542236,357.893219 580.029724,360.853058 577.859131,363.099426 
	C576.705139,364.293640 574.653076,365.929016 573.603027,365.578400 
	C572.332214,365.154083 570.922913,362.851654 570.900024,361.341827 
	C570.695129,347.859467 570.780884,334.372711 570.785217,320.887238 
	C570.787476,313.894684 570.865356,306.901306 570.778931,299.909912 
	C570.729553,295.918549 572.635559,294.049652 576.505432,294.052856 
	C592.820557,294.066376 609.143372,293.811493 625.447754,294.244720 
	C634.727844,294.491302 642.680176,298.844452 650.026794,304.966309 
M602.183594,304.301239 
	C592.366516,309.122864 587.453979,317.814484 589.275757,327.138977 
	C591.104736,336.500610 599.044739,343.610474 608.335510,343.944611 
	C617.151489,344.261658 623.840515,340.397583 627.781738,332.576965 
	C631.644531,324.911926 630.795715,317.292694 625.336670,310.658386 
	C619.477295,303.537567 611.828735,301.441376 602.183594,304.301239 
z"/>
<path fill="#FDFDFD" opacity="1.000000" stroke="none" 
	d="
M728.085083,449.017273 
	C743.644470,438.462189 762.720581,440.829773 773.626770,454.407104 
	C784.765991,468.274597 783.707764,487.140930 771.119324,499.110565 
	C761.442383,508.311737 745.208679,510.701080 733.003052,504.720734 
	C721.705688,499.185394 713.337769,484.455719 714.925171,472.220123 
	C716.130066,462.932343 720.959595,455.474701 728.085083,449.017273 
z"/>
<path fill="#020202" opacity="1.000000" stroke="none" 
	d="
M602.563843,304.180054 
	C611.828735,301.441376 619.477295,303.537567 625.336670,310.658386 
	C630.795715,317.292694 631.644531,324.911926 627.781738,332.576965 
	C623.840515,340.397583 617.151489,344.261658 608.335510,343.944611 
	C599.044739,343.610474 591.104736,336.500610 589.275757,327.138977 
	C587.453979,317.814484 592.366516,309.122864 602.563843,304.180054 
z"/>
</svg>