<svg xmlns="http://www.w3.org/2000/svg" width="200" height="200" viewBox="0 0 27820 19400">
    <g aria-label="search" style="fill: orange;">
        <path
            d="M25705 17699 c-16 -6 -52 -14 -80 -19 -62 -10 -178 -52 -225 -80 -8 -5 -33 -19 -55 -30 -22 -12 -47 -29 -56 -39 -15 -15 -540 -528 -739 -721 -83 -80 -680 -666 -1090 -1070 -633 -623 -1103 -1084 -1304 -1281 -476 -465 -714 -705 -730 -734 -8 -16 -22 -44 -30 -62 -9 -17 -20 -34 -26 -38 -5 -3 -10 -15 -10 -27 0 -11 -6 -32 -14 -46 -40 -76 -58 -247 -51 -477 6 -198 6 -200 -17 -230 -64 -84 -169 -198 -207 -225 -20 -14 -42 -31 -49 -37 -26 -25 -76 -15 -118 22 -21 19 -64 52 -94 72 -30 21 -58 42 -61 46 -7 9 -40 30 -74 46 -12 5 -27 16 -34 25 -7 9 -18 16 -23 16 -5 0 -24 11 -42 25 -18 14 -53 36 -78 49 -25 13 -65 36 -89 52 -47 30 -96 57 -199 111 -84 44 -96 51 -117 63 -10 6 -25 13 -33 16 -8 3 -46 21 -85 39 -66 32 -103 48 -200 89 -22 9 -52 24 -67 32 -14 7 -34 14 -45 14 -10 0 -27 7 -37 15 -11 8 -27 15 -35 15 -9 0 -29 7 -45 15 -15 8 -33 15 -40 15 -6 1 -29 9 -51 20 -22 11 -47 19 -56 20 -9 0 -30 7 -45 15 -16 8 -37 15 -47 15 -10 0 -30 6 -45 14 -15 7 -49 16 -76 20 -27 3 -54 10 -60 15 -6 5 -33 14 -61 20 -67 13 -133 30 -170 43 -16 6 -55 14 -87 18 -31 4 -62 11 -69 16 -8 4 -48 14 -89 20 -41 7 -95 17 -120 23 -25 6 -67 10 -95 11 -27 0 -72 7 -99 15 -27 8 -77 15 -110 15 -34 0 -88 6 -121 14 -52 12 -455 31 -645 30 -135 0 -381 -17 -442 -30 -37 -8 -102 -14 -145 -14 -43 0 -103 -7 -133 -15 -30 -8 -74 -15 -97 -15 -23 0 -62 -6 -85 -14 -24 -8 -69 -17 -101 -21 -32 -4 -74 -13 -92 -21 -19 -8 -51 -14 -72 -14 -21 -1 -49 -7 -63 -15 -14 -8 -40 -14 -58 -15 -18 0 -45 -6 -60 -14 -15 -7 -48 -16 -74 -20 -26 -4 -50 -11 -53 -16 -3 -4 -24 -11 -48 -15 -23 -4 -54 -14 -69 -21 -15 -8 -37 -14 -50 -14 -13 0 -32 -6 -43 -14 -11 -7 -33 -16 -50 -19 -16 -3 -61 -17 -100 -32 -38 -15 -82 -29 -97 -32 -15 -3 -33 -11 -39 -19 -6 -8 -19 -14 -29 -14 -22 0 -199 -76 -260 -111 -8 -5 -22 -12 -30 -15 -20 -8 -161 -75 -180 -85 -8 -5 -22 -12 -30 -15 -8 -3 -22 -10 -30 -15 -8 -5 -42 -23 -75 -40 -33 -16 -73 -39 -90 -49 -16 -11 -40 -24 -53 -30 -12 -5 -28 -15 -35 -21 -6 -5 -50 -34 -97 -64 -47 -30 -90 -57 -95 -62 -9 -7 -51 -36 -188 -129 -26 -18 -54 -39 -62 -46 -22 -20 -37 -31 -67 -51 -15 -9 -60 -45 -100 -80 -40 -34 -91 -76 -113 -92 -158 -117 -489 -447 -687 -684 -98 -118 -241 -308 -273 -363 -14 -24 -108 -162 -115 -168 -3 -3 -11 -16 -18 -30 -6 -14 -18 -34 -24 -44 -54 -82 -78 -122 -78 -133 0 -7 -4 -13 -9 -13 -5 0 -14 -12 -20 -27 -6 -16 -23 -48 -37 -73 -57 -99 -164 -315 -164 -331 0 -9 -7 -22 -15 -29 -8 -7 -15 -19 -15 -26 0 -8 -9 -31 -20 -51 -11 -21 -20 -45 -20 -54 0 -9 -7 -22 -15 -29 -8 -7 -15 -22 -15 -34 0 -12 -7 -31 -15 -42 -8 -10 -15 -25 -15 -33 0 -8 -8 -32 -19 -55 -23 -52 -40 -100 -52 -149 -5 -21 -13 -45 -18 -55 -14 -25 -41 -111 -51 -157 -4 -22 -12 -53 -18 -70 -29 -88 -43 -138 -48 -181 -4 -27 -13 -61 -20 -76 -8 -15 -14 -47 -14 -72 0 -25 -6 -63 -14 -83 -8 -21 -17 -66 -20 -101 -3 -35 -10 -71 -15 -81 -6 -10 -13 -49 -16 -87 -4 -38 -13 -99 -21 -136 -8 -37 -14 -104 -14 -150 0 -46 -7 -146 -15 -223 -17 -161 -19 -407 -4 -545 5 -52 13 -162 18 -245 5 -82 13 -161 18 -175 6 -14 13 -65 17 -114 4 -50 12 -98 17 -108 5 -10 12 -48 16 -86 3 -37 12 -79 19 -94 8 -15 14 -45 14 -68 0 -22 6 -55 14 -73 7 -18 16 -54 20 -80 4 -26 14 -59 22 -75 7 -15 14 -40 14 -57 1 -16 7 -41 15 -55 8 -14 14 -36 15 -48 0 -13 6 -38 14 -55 14 -33 41 -110 56 -162 12 -43 31 -94 52 -141 10 -22 18 -45 18 -51 0 -6 6 -24 14 -40 7 -15 20 -44 28 -63 8 -19 25 -56 37 -81 11 -25 21 -51 21 -56 0 -6 7 -16 15 -23 8 -7 15 -23 15 -35 0 -12 7 -28 15 -35 8 -7 15 -18 15 -25 0 -7 20 -50 44 -96 25 -46 57 -109 73 -139 15 -30 30 -57 33 -60 3 -3 27 -41 53 -85 65 -110 64 -107 139 -225 37 -58 73 -112 81 -120 7 -8 24 -33 37 -55 14 -22 33 -49 43 -60 11 -11 31 -38 45 -60 30 -47 123 -165 170 -215 18 -19 56 -65 85 -102 28 -37 144 -158 257 -270 216 -214 270 -264 335 -313 22 -16 48 -36 57 -45 18 -16 90 -75 177 -143 75 -59 174 -130 256 -184 39 -25 89 -58 113 -74 23 -16 46 -29 51 -29 5 0 20 -9 35 -21 32 -25 100 -65 139 -80 15 -6 27 -14 27 -18 0 -4 35 -24 78 -45 42 -21 84 -42 92 -47 8 -5 22 -12 30 -15 8 -3 22 -10 30 -15 8 -5 26 -14 40 -20 14 -5 84 -39 156 -75 72 -35 138 -64 145 -64 8 0 23 -7 33 -15 11 -8 29 -15 41 -15 12 0 30 -7 41 -15 10 -8 29 -15 42 -15 12 0 39 -9 59 -20 21 -11 47 -20 58 -20 11 0 29 -7 39 -15 11 -8 32 -15 46 -15 14 0 35 -7 46 -15 10 -8 30 -15 44 -15 14 0 38 -7 53 -15 15 -8 45 -17 65 -21 20 -4 42 -11 48 -15 6 -5 33 -12 60 -15 27 -4 61 -13 76 -20 15 -8 40 -14 55 -14 15 0 39 -6 53 -13 15 -8 56 -17 93 -20 37 -3 76 -11 86 -17 11 -5 48 -13 83 -16 35 -4 82 -12 106 -20 23 -8 69 -14 101 -14 31 0 77 -6 102 -14 24 -8 103 -17 174 -20 72 -4 153 -11 180 -17 68 -13 692 -13 778 0 37 6 136 16 220 21 83 5 168 13 187 19 19 6 58 11 87 11 28 0 64 5 80 11 15 6 63 15 106 20 44 5 87 14 98 19 10 6 46 13 81 17 34 3 73 12 88 20 14 7 41 13 60 13 19 1 46 7 60 15 14 8 39 14 55 15 17 0 42 6 56 14 14 7 43 16 65 20 21 4 51 14 66 22 15 8 37 14 50 14 13 0 32 7 42 15 11 8 31 15 46 15 14 0 34 6 45 14 11 7 34 16 50 20 17 4 44 13 60 20 76 35 107 46 124 46 10 0 24 7 31 15 7 8 19 15 28 15 9 0 36 9 61 21 25 11 60 27 76 34 55 25 229 113 275 139 25 14 52 28 60 32 8 3 22 9 30 14 8 5 40 21 70 37 30 15 73 40 95 54 22 15 50 30 63 33 12 4 22 11 22 16 0 4 12 13 28 19 29 12 147 91 173 116 9 8 19 15 23 15 9 0 62 38 96 68 13 12 28 22 31 22 7 0 168 117 209 152 14 11 72 59 130 107 127 103 560 528 638 626 31 39 61 75 68 80 11 10 77 95 147 190 21 28 43 57 50 65 8 8 24 33 37 55 13 22 27 42 30 45 15 13 160 238 160 248 0 7 4 12 8 12 5 0 21 24 36 53 15 28 45 84 67 122 21 39 41 77 44 85 4 8 11 22 16 30 5 8 16 29 24 45 15 29 23 44 45 83 6 9 13 24 16 32 3 8 15 35 26 60 42 95 49 111 64 147 9 21 23 51 30 66 8 16 14 34 14 40 0 7 9 29 20 50 11 20 20 45 20 56 0 10 6 24 14 30 8 6 16 26 19 44 6 37 34 119 53 159 8 14 14 37 14 50 1 12 7 34 15 48 8 14 14 36 15 50 0 14 7 38 16 55 8 16 18 49 21 74 3 25 12 56 20 71 7 14 13 39 13 57 0 18 6 47 14 65 13 31 20 64 46 218 6 36 18 93 25 127 8 34 15 87 15 118 0 31 6 86 14 123 17 78 41 475 41 672 0 188 -23 543 -41 616 -8 33 -14 88 -14 121 0 33 -7 80 -15 103 -8 23 -15 59 -15 80 0 21 -9 66 -20 100 -11 34 -20 79 -20 99 -1 20 -7 47 -15 61 -8 14 -14 39 -15 55 0 17 -6 50 -14 75 -8 25 -24 79 -36 120 -12 41 -26 89 -32 105 -5 17 -14 44 -18 60 -19 66 -42 131 -56 157 -8 14 -14 35 -14 45 0 11 -7 28 -15 39 -8 10 -15 28 -15 40 0 11 -7 29 -15 40 -8 10 -15 25 -15 33 0 13 -23 68 -56 134 -8 16 -14 33 -14 39 0 10 -61 144 -81 178 -5 8 -12 22 -15 30 -3 8 -9 22 -14 30 -5 8 -23 43 -40 77 -18 35 -35 65 -40 68 -5 3 -11 19 -15 35 -4 17 -10 30 -15 30 -4 0 -13 12 -19 28 -6 15 -21 43 -32 62 -12 19 -34 59 -50 88 -15 29 -48 83 -73 121 -25 38 -46 71 -46 75 0 3 -8 14 -17 25 -10 10 -36 47 -58 81 -49 76 -114 172 -180 266 -7 9 -5 17 6 26 9 7 33 35 55 63 112 143 255 265 292 250 36 -16 242 -39 342 -39 107 1 191 14 247 40 17 7 35 14 41 14 12 0 124 58 177 92 108 68 240 185 440 389 317 322 315 320 370 366 50 41 126 115 626 607 146 143 454 446 684 671 230 226 470 462 535 525 64 63 298 293 520 510 222 217 451 442 510 500 92 91 218 240 257 305 40 66 93 190 93 217 0 13 7 41 15 63 21 58 21 401 0 452 -8 19 -15 45 -16 57 0 24 -67 149 -121 228 -63 93 -587 608 -617 608 -11 0 -23 4 -26 10 -6 10 -85 48 -145 70 -19 7 -62 16 -95 21 -33 4 -76 13 -95 19 -43 12 -284 12 -325 -1z m-7805 -5048 c91 -7 192 -18 226 -26 33 -8 85 -15 116 -15 30 0 75 -7 98 -15 23 -8 58 -15 77 -15 18 0 50 -7 70 -15 19 -8 46 -15 59 -15 13 0 44 -7 70 -16 25 -8 67 -19 93 -24 67 -13 132 -30 166 -45 17 -7 41 -16 55 -18 36 -8 111 -35 142 -52 14 -8 33 -15 42 -15 8 0 32 -7 53 -16 21 -9 52 -22 68 -29 17 -7 51 -22 76 -34 25 -11 50 -21 55 -21 5 0 54 -22 109 -49 55 -27 107 -52 115 -55 8 -3 56 -29 105 -56 50 -28 104 -57 120 -66 17 -8 44 -23 60 -34 17 -11 37 -23 45 -27 8 -4 26 -14 40 -23 14 -10 81 -55 150 -100 116 -77 289 -204 335 -247 11 -10 54 -46 95 -80 86 -70 271 -257 385 -388 44 -49 82 -92 85 -95 3 -3 19 -23 35 -45 16 -22 49 -63 72 -91 24 -28 43 -55 43 -59 0 -4 15 -26 33 -49 18 -23 48 -63 67 -91 101 -149 137 -205 155 -241 11 -21 23 -41 27 -44 4 -3 12 -17 18 -30 6 -14 29 -56 50 -95 38 -68 112 -214 124 -245 3 -8 10 -22 14 -30 11 -18 30 -63 62 -140 12 -30 28 -68 36 -83 8 -16 14 -34 14 -40 0 -7 6 -24 14 -39 8 -15 17 -42 21 -60 4 -18 14 -42 21 -53 8 -11 14 -31 14 -45 1 -14 7 -36 15 -50 8 -14 14 -36 15 -50 0 -14 7 -38 15 -54 8 -16 18 -47 21 -70 4 -22 13 -53 20 -68 8 -15 14 -43 14 -62 0 -20 6 -53 14 -73 8 -21 18 -69 24 -108 5 -38 15 -88 21 -110 6 -22 11 -65 11 -95 0 -30 7 -82 15 -115 21 -85 21 -744 1 -848 -8 -40 -17 -111 -20 -159 -3 -48 -10 -96 -16 -107 -5 -11 -13 -48 -16 -83 -3 -35 -12 -80 -20 -101 -8 -20 -14 -54 -14 -75 0 -20 -7 -50 -15 -66 -8 -15 -15 -38 -15 -50 0 -19 -26 -115 -52 -191 -5 -16 -13 -47 -18 -67 -4 -21 -12 -43 -17 -50 -6 -7 -14 -28 -18 -46 -4 -18 -13 -45 -21 -60 -8 -15 -14 -34 -14 -42 0 -8 -7 -24 -15 -34 -8 -11 -15 -28 -15 -39 0 -10 -6 -31 -14 -45 -14 -26 -49 -102 -60 -132 -3 -8 -10 -22 -15 -30 -5 -8 -35 -69 -67 -135 -31 -66 -70 -139 -86 -163 -15 -24 -28 -49 -28 -57 0 -8 -4 -16 -9 -20 -6 -3 -25 -31 -43 -61 -18 -31 -40 -67 -48 -79 -8 -13 -28 -45 -44 -72 -16 -26 -35 -52 -41 -58 -7 -5 -23 -28 -36 -50 -13 -21 -31 -47 -40 -56 -10 -10 -26 -30 -35 -46 -22 -35 -144 -195 -160 -208 -6 -5 -44 -48 -84 -95 -40 -47 -87 -101 -104 -121 -17 -19 -80 -79 -141 -134 -60 -54 -128 -114 -150 -134 -70 -63 -159 -136 -185 -153 -14 -8 -41 -30 -60 -47 -33 -30 -219 -156 -340 -232 -30 -19 -64 -40 -75 -47 -11 -7 -33 -19 -50 -28 -16 -8 -43 -23 -60 -34 -16 -11 -42 -25 -57 -31 -16 -6 -28 -15 -28 -20 0 -5 -8 -9 -17 -10 -10 0 -40 -14 -68 -30 -27 -16 -56 -31 -62 -34 -7 -3 -19 -7 -25 -10 -13 -5 -23 -10 -63 -33 -11 -7 -31 -17 -45 -22 -14 -6 -38 -17 -55 -24 -16 -8 -46 -21 -65 -29 -19 -8 -52 -22 -73 -31 -21 -9 -43 -16 -50 -16 -7 -1 -30 -9 -52 -20 -22 -11 -49 -20 -60 -20 -11 0 -29 -7 -39 -15 -11 -8 -32 -15 -46 -15 -14 0 -35 -7 -46 -15 -10 -8 -32 -15 -47 -15 -15 0 -40 -6 -55 -14 -15 -7 -47 -17 -72 -21 -25 -4 -50 -11 -55 -16 -6 -4 -38 -12 -72 -18 -34 -5 -71 -15 -82 -20 -11 -6 -37 -11 -59 -11 -22 0 -57 -6 -78 -13 -22 -8 -91 -17 -154 -21 -63 -3 -133 -11 -155 -16 -58 -14 -389 -35 -540 -35 -197 1 -533 23 -595 40 -30 8 -73 15 -96 15 -23 0 -61 7 -84 15 -23 8 -61 15 -84 15 -22 1 -52 7 -66 15 -14 8 -42 14 -63 15 -21 0 -48 5 -59 11 -12 7 -47 17 -77 25 -94 21 -145 36 -166 47 -11 6 -36 14 -55 18 -57 12 -249 83 -313 115 -16 8 -33 14 -39 14 -6 0 -29 9 -52 19 -23 11 -48 22 -56 25 -8 3 -22 10 -30 15 -8 5 -33 17 -55 26 -22 10 -47 21 -55 26 -8 4 -44 23 -80 42 -84 44 -162 86 -208 114 -20 12 -46 27 -57 33 -11 5 -33 19 -50 30 -16 11 -41 24 -54 30 -13 6 -41 24 -61 40 -21 17 -40 30 -43 30 -6 0 -131 90 -159 114 -10 9 -41 32 -70 52 -29 20 -60 44 -69 53 -9 9 -63 58 -120 110 -148 134 -402 393 -472 481 -33 41 -63 77 -67 80 -4 3 -48 59 -98 125 -51 66 -95 125 -100 130 -9 13 -44 65 -57 87 -5 9 -28 43 -50 75 -22 32 -48 74 -58 93 -11 19 -25 42 -32 50 -8 8 -18 26 -24 40 -6 14 -15 33 -21 43 -23 39 -30 53 -45 82 -8 17 -19 37 -24 45 -5 8 -12 22 -15 30 -3 8 -10 22 -15 30 -12 21 -81 169 -97 207 -8 18 -20 48 -27 65 -8 18 -24 54 -35 81 -12 26 -22 55 -22 65 0 9 -7 26 -15 36 -8 11 -15 29 -15 41 0 11 -6 29 -14 40 -7 11 -16 38 -20 59 -4 22 -14 49 -22 60 -8 11 -14 34 -14 51 0 17 -6 39 -14 50 -7 11 -16 42 -20 69 -3 27 -10 54 -15 60 -6 6 -13 36 -17 66 -4 30 -13 69 -21 87 -7 18 -13 53 -13 78 0 25 -7 62 -15 82 -8 19 -15 61 -15 93 0 32 -8 95 -17 141 -25 127 -26 770 0 881 9 42 17 104 17 136 0 33 7 79 15 102 8 23 15 62 15 87 0 24 6 58 13 76 8 18 17 55 21 84 3 28 13 68 21 87 8 19 15 50 15 68 0 18 7 42 15 52 8 11 15 34 15 50 0 17 6 43 14 57 7 14 16 43 20 64 4 22 14 48 22 59 8 11 14 32 14 46 0 14 7 34 15 44 8 11 15 27 15 35 1 9 9 34 20 56 11 22 19 45 20 52 0 6 7 24 15 40 7 15 24 51 36 78 11 28 34 77 49 110 16 33 31 67 34 75 3 8 10 22 15 30 5 8 12 22 15 30 3 8 10 22 16 30 5 8 15 26 20 40 6 14 19 39 29 55 11 17 32 55 47 85 16 30 41 71 56 91 15 20 28 40 28 44 0 8 115 179 188 281 156 218 644 717 824 843 29 20 65 47 78 58 37 32 118 88 178 123 28 17 52 36 52 41 0 5 5 9 10 9 6 0 39 20 75 45 35 25 74 50 87 55 13 6 41 21 63 34 85 51 253 138 345 179 30 14 85 39 122 56 37 17 71 31 77 31 5 0 23 7 40 15 17 8 45 22 62 30 17 8 38 15 48 15 9 0 25 6 36 14 11 7 35 17 53 21 18 4 45 13 60 21 15 8 36 14 47 14 11 1 31 7 45 15 14 8 39 15 55 15 17 0 41 7 55 15 14 8 34 14 46 15 20 0 109 24 204 55 25 8 68 15 96 15 28 0 71 7 94 15 23 8 68 15 99 15 32 0 80 7 107 14 27 8 114 20 194 26 80 6 147 14 150 16 8 8 367 -2 550 -15z">
        </path>
        <path
            d="M20609 8589 c-56 -40 -103 -91 -130 -143 -19 -35 -23 -65 -29 -221 -5 -99 -13 -196 -19 -215 -6 -19 -11 -60 -11 -90 -1 -30 -7 -73 -15 -95 -8 -22 -15 -54 -15 -70 0 -17 -9 -56 -20 -88 -11 -31 -20 -69 -20 -84 0 -16 -7 -37 -15 -47 -8 -11 -15 -31 -15 -46 0 -14 -6 -34 -14 -45 -7 -11 -16 -37 -20 -59 -4 -21 -11 -46 -16 -55 -5 -9 -19 -38 -30 -66 -60 -138 -91 -201 -140 -290 -22 -38 -43 -77 -46 -85 -36 -78 -243 -360 -346 -469 -35 -37 -77 -83 -94 -102 -72 -80 -407 -359 -432 -359 -5 0 -29 -15 -53 -32 -55 -41 -77 -55 -109 -70 -14 -7 -39 -22 -55 -34 -17 -13 -41 -27 -55 -33 -14 -6 -32 -15 -40 -20 -39 -24 -163 -81 -177 -81 -8 0 -27 -6 -41 -13 -67 -34 -99 -47 -132 -54 -19 -3 -46 -12 -60 -20 -14 -7 -36 -13 -50 -13 -14 0 -34 -7 -44 -15 -11 -8 -35 -15 -53 -15 -18 0 -50 -7 -70 -15 -21 -8 -67 -19 -103 -24 -36 -5 -85 -14 -110 -20 -25 -6 -68 -10 -95 -11 -28 0 -57 -6 -63 -12 -9 -9 -70 -15 -200 -18 -109 -3 -195 -10 -207 -16 -11 -6 -36 -14 -56 -18 -50 -9 -109 -63 -149 -138 -34 -63 -34 -64 -33 -194 0 -120 2 -134 21 -159 12 -15 22 -33 22 -39 0 -14 109 -116 124 -116 6 0 25 -8 41 -17 39 -21 235 -29 360 -14 50 6 144 16 210 21 66 6 143 18 171 26 28 8 70 14 94 14 24 0 66 6 94 14 70 20 142 37 200 48 28 5 59 16 70 24 11 8 31 14 44 14 28 0 114 26 154 46 14 8 32 14 40 14 7 0 30 9 51 20 20 11 43 20 51 20 8 0 27 6 43 14 15 8 93 47 173 86 162 80 198 99 218 117 7 7 21 13 31 13 9 0 30 14 46 30 16 17 34 30 40 30 25 0 268 180 410 304 121 105 358 349 443 456 42 52 82 99 89 103 7 4 13 12 13 18 0 10 35 62 58 87 7 8 33 46 58 86 25 39 55 83 65 98 10 15 19 31 19 36 0 4 7 17 16 27 16 21 47 79 114 215 23 47 48 97 56 112 8 14 14 33 14 41 0 8 7 20 15 27 8 7 15 20 15 29 0 9 9 34 20 56 11 22 20 49 20 60 0 12 4 25 9 30 16 16 61 146 61 174 0 15 5 32 11 38 11 11 32 97 50 207 5 33 14 65 19 71 6 7 15 57 20 111 5 55 14 117 19 139 6 22 11 163 11 313 0 292 0 289 -52 360 -23 31 -103 92 -121 92 -8 0 -20 7 -27 15 -10 12 -40 15 -155 15 l-142 0 -44 -31z">
        </path>
    </g>
    <g aria-label="car" style="fill: #333;">
        <path
            d="M1815 16453 c-11 -3 -24 -9 -29 -14 -6 -5 -21 -9 -34 -9 -60 0 -171 -100 -221 -201 -18 -35 -36 -71 -40 -79 -26 -46 -59 -136 -77 -210 -7 -30 -18 -73 -26 -95 -9 -30 -13 -144 -13 -457 l0 -418 28 -27 27 -28 2106 2 c1555 1 2109 4 2118 13 16 16 15 780 -1 835 -6 22 -16 72 -21 110 -12 82 -32 161 -50 192 -6 12 -12 29 -12 37 0 9 -9 33 -20 53 -11 21 -20 43 -20 49 0 6 -7 17 -15 24 -8 7 -15 19 -15 27 0 16 -88 133 -100 133 -4 0 -17 9 -30 20 -13 11 -31 20 -40 20 -10 0 -23 7 -30 15 -11 13 -216 15 -1739 14 -949 -1 -1735 -3 -1746 -6z">
        </path>
        <path
            d="M15046 16445 c-11 -8 -27 -15 -36 -15 -18 0 -151 -134 -168 -170 -7 -14 -16 -33 -22 -42 -5 -10 -15 -26 -20 -35 -6 -10 -13 -25 -16 -33 -3 -8 -12 -28 -20 -43 -7 -16 -14 -34 -14 -42 0 -7 -9 -41 -20 -75 -11 -34 -20 -79 -20 -99 0 -20 -7 -58 -15 -85 -12 -40 -15 -124 -15 -456 0 -367 2 -409 17 -421 13 -12 199 -14 1137 -11 617 1 1563 2 2103 2 670 -1 983 2 988 9 3 6 7 228 8 494 2 390 -1 487 -11 500 -8 9 -17 40 -22 69 -18 116 -109 302 -179 366 -42 38 -104 72 -130 72 -10 0 -35 7 -54 15 -32 13 -249 15 -1754 15 -1495 -1 -1721 -3 -1737 -15z">
        </path>
        <path
            d="M1375 14743 c-11 -3 -24 -9 -30 -13 -5 -4 -25 -11 -43 -15 -18 -4 -45 -13 -60 -21 -15 -8 -34 -14 -43 -14 -9 0 -22 -7 -29 -15 -7 -8 -18 -15 -24 -15 -26 0 -169 -123 -220 -189 -79 -103 -116 -161 -116 -180 0 -10 -6 -24 -14 -30 -7 -6 -17 -30 -20 -53 -4 -23 -12 -49 -19 -57 -9 -11 -13 -231 -15 -922 -2 -889 -2 -910 18 -966 11 -31 20 -63 20 -71 0 -19 71 -162 80 -162 5 0 12 -12 18 -27 5 -16 36 -57 68 -92 32 -35 69 -80 81 -100 l22 -36 1 -1250 c0 -1078 2 -1257 15 -1299 8 -27 15 -74 15 -105 1 -31 7 -67 15 -81 8 -14 14 -41 15 -60 0 -19 7 -48 15 -63 8 -15 17 -45 21 -65 4 -20 13 -46 20 -57 8 -11 14 -31 14 -46 0 -15 7 -32 15 -39 8 -7 15 -21 15 -32 0 -11 6 -32 14 -46 8 -15 24 -49 36 -77 13 -27 26 -57 31 -65 4 -8 22 -42 39 -75 36 -71 41 -79 100 -170 115 -176 226 -319 338 -435 45 -47 82 -87 82 -90 0 -3 -28 -11 -62 -18 -130 -27 -144 -31 -173 -46 -16 -9 -35 -16 -41 -16 -6 0 -31 -11 -55 -25 -24 -13 -54 -29 -67 -35 -47 -21 -146 -94 -208 -155 -35 -34 -64 -65 -64 -68 0 -3 -13 -26 -30 -50 -16 -24 -34 -55 -40 -68 -5 -13 -14 -31 -19 -39 -4 -8 -16 -38 -25 -66 -22 -70 -23 -406 -1 -444 8 -14 14 -37 15 -51 0 -15 7 -32 15 -39 8 -7 15 -18 15 -24 0 -6 23 -45 52 -86 57 -83 166 -193 243 -245 28 -18 59 -42 70 -52 11 -10 70 -42 130 -72 61 -29 123 -59 138 -67 16 -8 33 -14 39 -14 5 0 24 -7 41 -15 18 -8 50 -19 72 -24 22 -6 60 -15 85 -21 25 -6 66 -18 91 -26 26 -8 66 -14 90 -14 24 -1 73 -7 109 -15 93 -21 436 -20 525 0 37 9 94 15 128 13 60 -3 61 -3 70 -38 5 -19 13 -40 19 -47 5 -7 14 -27 18 -45 9 -36 26 -86 45 -133 35 -84 55 -142 55 -161 0 -11 5 -25 11 -31 6 -6 15 -29 20 -50 9 -45 37 -131 50 -155 5 -10 13 -34 18 -55 5 -21 15 -54 22 -73 7 -19 21 -60 32 -90 11 -30 26 -70 33 -88 8 -18 14 -43 14 -55 0 -12 7 -31 15 -41 8 -11 15 -27 15 -35 1 -9 9 -34 20 -56 11 -22 20 -47 20 -55 0 -8 7 -24 15 -34 8 -11 15 -30 15 -42 0 -12 7 -27 15 -34 8 -7 15 -22 15 -34 0 -11 9 -34 20 -51 11 -16 20 -39 20 -50 0 -11 7 -29 15 -39 8 -11 15 -28 15 -37 0 -10 6 -30 14 -46 7 -15 21 -44 29 -63 38 -87 110 -230 141 -285 20 -33 42 -73 51 -90 16 -31 28 -51 56 -95 9 -14 38 -59 65 -100 44 -69 178 -248 194 -260 4 -3 26 -27 50 -55 118 -139 195 -216 324 -324 77 -65 159 -130 181 -144 22 -15 76 -51 120 -82 44 -30 85 -55 90 -55 6 0 16 -5 23 -12 22 -22 222 -127 327 -172 105 -46 145 -61 205 -77 19 -6 49 -17 67 -25 17 -8 44 -14 60 -14 15 -1 39 -7 53 -15 14 -8 40 -14 58 -15 18 0 49 -7 69 -15 19 -8 54 -15 77 -15 23 0 66 -8 96 -17 51 -16 334 -17 4081 -22 2214 -4 4124 -4 4245 0 145 3 227 9 242 17 12 7 52 15 90 18 37 4 86 12 110 20 23 8 62 14 85 14 23 1 53 7 67 15 14 8 39 15 55 15 17 0 48 9 70 20 22 11 49 20 60 20 11 0 29 7 39 15 11 8 28 15 39 15 10 0 31 6 45 13 15 8 43 21 62 29 19 8 88 41 153 73 l117 58 0 36 c0 20 -4 41 -8 48 -11 17 -81 63 -96 63 -8 0 -19 7 -26 15 -7 8 -19 15 -27 15 -8 0 -27 6 -41 14 -26 14 -87 41 -160 72 -97 41 -145 62 -243 108 -72 35 -80 36 -185 36 -68 0 -128 -6 -158 -15 -27 -8 -81 -15 -120 -15 -39 -1 -100 -7 -136 -15 -101 -22 -8128 -22 -8213 0 -32 8 -76 15 -98 15 -22 0 -56 7 -76 15 -19 8 -50 15 -67 15 -17 0 -44 7 -59 15 -15 8 -45 17 -65 20 -49 8 -120 35 -272 104 -14 6 -33 15 -42 21 -27 15 -49 27 -93 49 -34 18 -165 99 -229 143 -135 93 -324 272 -419 397 -81 108 -159 219 -174 251 -4 8 -20 34 -36 58 -16 24 -40 64 -54 90 -14 26 -38 66 -54 90 -16 24 -29 49 -29 57 0 8 -4 16 -9 19 -9 6 -37 59 -60 116 -6 14 -15 32 -20 40 -5 8 -18 38 -31 65 -12 28 -28 62 -36 77 -8 14 -14 33 -14 41 0 9 -6 28 -14 44 -45 92 -73 167 -85 225 -5 21 -13 43 -18 50 -6 7 -13 27 -16 43 -6 36 -35 120 -53 157 -8 14 -14 37 -14 50 0 13 -7 33 -15 44 -8 10 -15 28 -15 39 0 11 -9 38 -20 60 -11 22 -20 51 -20 65 0 14 -7 34 -15 44 -8 11 -15 32 -15 46 0 14 -7 35 -15 46 -8 10 -15 28 -15 39 0 11 -9 38 -20 60 -11 22 -19 52 -20 66 0 15 -7 32 -15 39 -8 7 -15 27 -15 44 0 18 -7 41 -15 52 -8 10 -15 28 -15 39 0 11 -9 38 -20 60 -11 22 -20 51 -20 65 0 14 -7 34 -15 44 -8 11 -15 31 -15 46 0 14 -6 34 -14 45 -7 11 -17 35 -21 53 -4 18 -13 45 -21 60 -8 15 -14 36 -14 47 0 11 -6 29 -14 40 -7 11 -16 34 -19 50 -6 34 -35 120 -50 150 -6 11 -14 36 -18 55 -4 19 -13 51 -20 70 -18 50 -45 129 -57 168 -10 30 -9 33 6 26 9 -4 91 -11 182 -15 209 -9 6975 -11 7684 -2 l527 6 -4 81 c-8 137 -27 318 -43 387 -7 37 -14 99 -14 137 0 39 -6 101 -14 139 -8 37 -17 142 -21 233 -3 91 -10 210 -15 265 -6 72 -5 139 5 240 8 77 15 178 15 225 0 47 7 112 15 145 8 33 14 90 15 127 0 37 6 87 14 110 8 24 17 75 20 113 3 39 13 88 21 110 8 22 14 57 15 78 0 21 7 54 15 74 8 19 15 52 15 72 0 20 6 48 14 62 7 14 17 48 21 75 4 27 13 61 21 76 8 15 14 39 14 53 0 15 5 36 12 48 6 12 15 40 19 62 4 22 19 72 34 110 15 39 30 84 35 100 12 43 39 115 55 152 8 17 15 37 15 45 0 7 7 22 15 32 8 11 15 27 15 35 0 8 9 35 21 60 20 44 31 68 63 144 17 40 86 187 97 207 4 8 27 53 50 100 46 93 110 206 191 339 44 70 88 136 181 269 20 28 53 76 74 105 44 64 97 135 120 163 48 58 166 195 207 239 25 28 63 71 83 97 58 73 448 455 538 528 44 35 82 67 85 70 10 13 205 167 274 217 156 114 330 233 339 233 4 0 26 14 49 30 22 17 44 30 49 30 4 0 31 16 61 35 29 20 71 45 93 56 22 11 72 38 110 59 95 53 291 148 400 194 17 7 53 23 80 35 28 13 66 30 85 38 19 9 48 22 63 29 16 8 37 14 47 14 10 0 22 4 25 10 3 5 25 14 48 20 23 6 56 18 74 26 17 8 42 14 55 14 13 0 29 5 35 11 6 6 29 15 50 19 39 8 71 19 158 51 28 11 63 19 78 19 16 0 38 5 50 12 12 6 42 15 67 19 25 4 59 11 75 17 43 15 112 32 175 43 30 6 77 17 104 25 26 8 67 14 91 14 23 0 62 7 85 15 23 8 63 15 89 15 25 0 64 5 86 11 22 5 105 14 185 19 79 6 162 16 185 22 57 17 784 17 842 0 23 -7 104 -17 180 -22 76 -5 156 -14 178 -19 22 -6 65 -11 95 -11 30 -1 73 -7 95 -15 22 -8 63 -15 90 -15 28 0 66 -5 85 -10 34 -10 107 -27 220 -51 30 -6 70 -17 88 -25 18 -8 48 -14 68 -14 19 0 47 -6 62 -14 15 -7 44 -16 64 -20 20 -4 50 -13 65 -21 15 -8 34 -15 41 -15 7 0 23 -6 35 -14 30 -20 212 -32 251 -17 l29 12 -6 145 c-2 79 -9 150 -15 157 -5 6 -13 28 -16 47 -9 42 -38 107 -95 214 -41 74 -177 211 -254 255 -31 18 -59 36 -62 42 -4 5 -17 9 -29 9 -13 0 -29 6 -35 14 -7 8 -28 17 -49 21 -20 3 -56 13 -80 21 -37 12 -1231 14 -8810 13 -4822 -1 -8776 -4 -8787 -6z m2546 -1072 c79 -7 109 -15 170 -45 83 -39 164 -115 193 -181 10 -22 25 -53 32 -68 18 -37 18 -155 -1 -187 -8 -14 -14 -33 -15 -42 0 -41 -141 -208 -175 -208 -5 0 -16 -6 -24 -14 -46 -41 -248 -58 -641 -52 -360 5 -394 9 -499 65 -57 30 -137 105 -145 136 -4 14 -10 25 -15 25 -5 0 -13 15 -16 33 -4 17 -14 41 -21 52 -9 12 -14 46 -14 89 0 59 5 81 35 142 72 148 199 239 355 254 107 10 667 11 781 1z m8555 -477 c52 -25 114 -102 114 -142 0 -38 -61 -112 -92 -112 -10 0 -32 -6 -47 -14 -24 -13 -337 -15 -2277 -15 -2186 -1 -2251 0 -2304 18 -74 26 -124 88 -117 143 8 59 67 119 128 131 13 2 1045 5 2292 6 2078 1 2272 0 2303 -15z m-1255 -836 c1100 -3 1209 -4 1225 -19 11 -9 30 -20 43 -24 50 -15 101 -82 101 -132 0 -17 -5 -35 -11 -38 -5 -4 -14 -18 -19 -31 -5 -13 -20 -29 -32 -34 -13 -6 -30 -14 -38 -19 -8 -5 -40 -17 -70 -25 -50 -15 -267 -16 -2265 -13 -2371 3 -2247 0 -2331 51 -17 10 -39 34 -49 53 -41 75 -10 145 85 190 91 45 186 48 1215 46 517 -2 1483 -4 2146 -5z m-6134 -2055 l143 -6 18 -31 c23 -38 57 -141 73 -217 9 -43 9 -65 0 -89 -6 -18 -11 -46 -11 -62 0 -17 -9 -41 -20 -55 -11 -14 -20 -31 -20 -38 0 -38 -242 -273 -337 -328 -11 -7 -53 -34 -93 -62 -39 -27 -77 -53 -83 -56 -20 -11 -221 -107 -237 -113 -8 -3 -22 -10 -30 -15 -33 -20 -108 -51 -122 -51 -8 0 -23 -7 -34 -15 -10 -8 -28 -15 -39 -15 -11 0 -29 -7 -39 -15 -11 -8 -30 -15 -43 -15 -13 0 -40 -9 -60 -20 -21 -11 -47 -20 -58 -20 -11 0 -29 -7 -39 -15 -11 -8 -32 -15 -46 -15 -14 0 -35 -7 -46 -15 -10 -8 -34 -15 -52 -15 -18 0 -43 -6 -55 -14 -12 -8 -48 -17 -79 -21 -32 -3 -60 -10 -63 -15 -3 -5 -27 -11 -53 -15 -26 -3 -69 -12 -97 -19 -63 -18 -144 -35 -216 -45 -31 -5 -71 -13 -90 -19 -19 -6 -72 -16 -119 -21 -47 -6 -105 -15 -130 -20 -25 -6 -85 -10 -135 -10 -49 -1 -140 -8 -201 -17 -104 -16 -118 -16 -202 0 -49 9 -105 16 -123 16 -19 0 -46 6 -61 14 -15 8 -42 17 -60 21 -18 4 -40 13 -48 19 -8 7 -33 21 -54 31 -110 55 -246 237 -246 328 0 25 -7 81 -15 125 -14 71 -14 90 0 181 8 55 15 120 15 143 1 24 7 54 15 68 8 14 14 43 15 65 0 22 6 50 14 61 8 11 17 38 21 60 4 21 13 49 21 61 8 12 14 30 14 39 0 9 6 28 14 42 7 15 32 66 55 113 32 68 48 90 74 103 29 14 169 16 1427 16 767 0 1459 -3 1537 -7z">
        </path>
    </g>
    <g fill="#333" aria-label="background">
        <path id="pHbvd8UVk"
            d="M0 9700 l0 -9700 13910 0 13910 0 0 9700 0 9700 -13910 0 -13910 0 0 -9700z m26000 7970 c19 -6 62 -15 95 -19 33 -5 76 -14 95 -21 60 -22 139 -60 145 -70 3 -6 15 -10 26 -10 30 0 554 -515 617 -608 54 -79 121 -204 121 -228 1 -12 8 -38 16 -57 21 -50 20 -334 0 -392 -8 -22 -15 -50 -15 -63 0 -27 -53 -151 -93 -217 -39 -65 -165 -214 -257 -305 -59 -58 -288 -283 -510 -500 -222 -217 -456 -447 -520 -510 -65 -63 -305 -299 -535 -525 -230 -225 -538 -528 -684 -671 -500 -492 -576 -566 -626 -607 -55 -46 -53 -44 -370 -366 -200 -204 -332 -321 -440 -389 -53 -34 -165 -92 -177 -92 -6 0 -24 -7 -41 -14 -51 -24 -136 -39 -217 -39 -92 -1 -287 25 -317 41 -12 7 -31 12 -42 12 -49 0 -198 -129 -305 -265 -22 -28 -48 -58 -58 -68 -25 -25 -23 -57 8 -98 14 -19 42 -58 62 -88 21 -30 44 -65 52 -77 8 -12 33 -50 55 -84 22 -34 48 -71 58 -81 9 -11 17 -22 17 -25 0 -4 21 -37 46 -75 25 -38 58 -92 73 -121 16 -29 38 -69 50 -88 11 -19 26 -47 32 -62 6 -16 15 -28 19 -28 5 0 11 -13 15 -30 4 -16 10 -32 15 -35 5 -3 22 -33 40 -68 17 -34 35 -69 40 -77 5 -8 11 -22 14 -30 3 -8 10 -22 15 -30 20 -34 81 -168 81 -178 0 -6 6 -23 14 -39 33 -66 56 -121 56 -134 0 -8 7 -23 15 -33 8 -11 15 -29 15 -40 0 -12 7 -30 15 -40 8 -11 15 -28 15 -39 0 -10 6 -31 14 -45 14 -26 37 -91 56 -157 4 -16 13 -43 18 -60 6 -16 20 -64 32 -105 12 -41 28 -95 36 -120 8 -25 14 -58 14 -75 1 -16 7 -41 15 -55 8 -14 14 -41 15 -61 0 -20 9 -65 20 -99 11 -34 20 -79 20 -100 0 -21 7 -57 15 -80 8 -23 15 -70 15 -103 0 -33 6 -88 14 -121 16 -68 41 -424 41 -586 0 -173 -25 -570 -41 -642 -8 -37 -14 -92 -14 -123 0 -31 -7 -84 -15 -118 -7 -34 -19 -89 -24 -122 -26 -156 -34 -192 -47 -223 -8 -18 -14 -47 -14 -65 0 -18 -6 -43 -13 -57 -8 -15 -17 -46 -20 -71 -3 -25 -13 -58 -21 -74 -9 -17 -16 -41 -16 -55 -1 -14 -7 -36 -15 -50 -8 -14 -14 -36 -15 -48 0 -13 -6 -36 -14 -50 -19 -40 -47 -122 -53 -159 -3 -18 -11 -38 -19 -44 -8 -6 -14 -20 -14 -30 0 -11 -9 -36 -20 -56 -11 -21 -20 -43 -20 -50 0 -6 -6 -24 -14 -40 -7 -15 -21 -45 -30 -66 -15 -36 -22 -52 -64 -147 -11 -25 -23 -52 -26 -60 -3 -8 -10 -23 -16 -32 -22 -39 -30 -54 -45 -83 -8 -16 -19 -37 -24 -45 -5 -8 -12 -22 -16 -30 -3 -8 -23 -46 -44 -85 -22 -38 -52 -94 -67 -122 -15 -29 -31 -53 -36 -53 -4 0 -8 -5 -8 -12 0 -10 -145 -235 -160 -248 -3 -3 -17 -23 -30 -45 -13 -22 -29 -47 -37 -55 -7 -8 -29 -37 -50 -65 -70 -95 -136 -180 -147 -190 -7 -5 -37 -41 -68 -80 -78 -98 -511 -523 -638 -626 -58 -48 -116 -96 -130 -107 -41 -35 -202 -152 -209 -152 -3 0 -18 -10 -31 -22 -34 -30 -87 -68 -96 -68 -4 0 -14 -7 -23 -15 -26 -25 -144 -104 -173 -116 -16 -6 -28 -15 -28 -19 0 -5 -10 -12 -22 -16 -13 -3 -41 -18 -63 -33 -22 -14 -65 -39 -95 -54 -30 -16 -62 -32 -70 -37 -8 -5 -22 -11 -30 -14 -8 -4 -35 -18 -60 -32 -46 -26 -220 -114 -275 -139 -16 -7 -51 -23 -76 -34 -25 -12 -52 -21 -61 -21 -9 0 -21 -7 -28 -15 -7 -8 -21 -15 -31 -15 -17 0 -48 -11 -124 -46 -16 -7 -43 -16 -60 -20 -16 -4 -39 -13 -50 -20 -11 -8 -31 -14 -45 -14 -15 0 -35 -7 -46 -15 -10 -8 -29 -15 -42 -15 -13 0 -35 -6 -50 -14 -15 -8 -45 -18 -66 -22 -22 -4 -51 -13 -65 -20 -14 -8 -39 -14 -56 -14 -16 -1 -41 -7 -55 -15 -14 -8 -41 -14 -60 -15 -19 0 -46 -6 -60 -13 -15 -8 -54 -17 -88 -20 -35 -4 -71 -11 -81 -17 -11 -5 -54 -14 -98 -19 -43 -5 -91 -14 -106 -20 -16 -6 -52 -11 -80 -11 -29 0 -68 -5 -87 -11 -19 -6 -104 -14 -187 -19 -84 -5 -183 -14 -219 -20 -82 -13 -662 -13 -724 0 -25 5 -103 12 -175 16 -71 3 -150 12 -174 20 -25 8 -71 14 -102 14 -32 0 -78 6 -101 14 -24 8 -71 16 -106 20 -35 3 -72 11 -83 16 -10 6 -49 14 -86 17 -37 3 -78 12 -93 20 -14 7 -38 13 -53 13 -15 0 -40 6 -55 14 -15 7 -49 16 -76 20 -27 3 -54 10 -60 15 -6 4 -28 11 -48 15 -20 4 -50 13 -65 21 -15 8 -39 15 -53 15 -14 0 -34 7 -44 15 -11 8 -32 15 -46 15 -14 0 -35 7 -46 15 -10 8 -28 15 -39 15 -11 0 -37 9 -58 20 -20 11 -47 20 -59 20 -13 0 -32 7 -42 15 -11 8 -29 15 -41 15 -12 0 -30 7 -41 15 -10 8 -25 15 -33 15 -7 0 -73 29 -145 64 -72 36 -142 70 -156 75 -14 6 -32 15 -40 20 -8 5 -22 12 -30 15 -8 3 -22 10 -30 15 -8 5 -50 26 -92 47 -43 21 -78 41 -78 45 0 4 -12 12 -27 18 -39 15 -107 55 -139 80 -15 12 -30 21 -35 21 -5 0 -28 13 -51 29 -24 16 -74 49 -113 74 -82 54 -181 125 -256 184 -87 68 -159 127 -177 143 -9 9 -35 29 -57 45 -65 49 -119 99 -335 313 -113 112 -229 233 -257 270 -29 37 -67 83 -85 102 -47 50 -140 168 -170 215 -14 22 -34 49 -45 60 -10 11 -29 38 -43 60 -13 22 -30 47 -37 55 -8 8 -44 62 -81 120 -75 118 -74 115 -139 225 -26 44 -50 82 -53 85 -3 3 -18 30 -33 60 -16 30 -48 93 -73 139 -24 46 -44 89 -44 96 0 7 -7 18 -15 25 -8 7 -15 23 -15 35 0 12 -7 28 -15 35 -8 7 -15 17 -15 23 0 5 -10 31 -21 56 -12 25 -29 62 -37 81 -8 19 -21 48 -28 63 -8 16 -14 34 -14 40 0 6 -8 29 -18 51 -21 47 -40 98 -52 141 -15 52 -42 129 -56 162 -8 17 -14 42 -14 55 -1 12 -7 34 -15 48 -8 14 -14 39 -15 55 0 17 -7 42 -14 57 -8 16 -18 49 -22 75 -4 26 -13 62 -20 80 -8 18 -14 51 -14 73 0 23 -6 53 -14 68 -7 15 -16 57 -19 94 -4 38 -11 76 -16 86 -5 10 -13 58 -17 108 -4 49 -11 100 -17 114 -5 14 -13 93 -18 175 -5 83 -13 193 -18 245 -15 136 -13 323 4 485 8 77 15 177 15 223 0 46 6 113 14 150 8 37 17 98 21 136 3 38 10 77 16 87 5 10 12 46 15 81 3 35 12 80 20 101 8 20 14 58 14 83 0 25 6 57 14 72 7 15 16 49 20 76 5 43 19 93 48 181 6 17 14 48 18 70 10 46 37 132 51 157 5 10 13 34 18 55 12 49 29 97 52 149 11 23 19 47 19 55 0 8 7 23 15 33 8 11 15 30 15 42 0 12 7 27 15 34 8 7 15 20 15 29 0 9 9 33 20 54 11 20 20 43 20 51 0 7 7 19 15 26 8 7 15 20 15 29 0 16 107 232 164 331 14 25 31 57 37 73 6 15 15 27 20 27 5 0 9 6 9 13 0 11 24 51 78 133 6 10 18 30 24 44 7 14 15 27 18 30 7 6 101 144 115 168 32 55 175 245 273 363 198 237 529 567 687 684 22 16 73 58 113 92 40 35 85 71 100 80 30 20 45 31 67 51 8 7 36 28 62 46 137 93 179 122 188 129 5 5 48 32 95 62 47 30 91 59 97 64 7 6 23 16 35 21 13 6 37 19 53 30 17 10 57 33 90 49 33 17 67 35 75 40 8 5 22 12 30 15 8 3 22 10 30 15 19 10 160 77 180 85 8 3 22 10 30 15 61 35 238 111 260 111 10 0 23 6 29 14 6 8 24 16 39 19 15 3 59 17 97 32 39 15 84 29 100 32 17 3 39 12 50 19 11 8 30 14 43 14 13 0 35 6 50 14 15 7 46 17 69 21 24 4 45 11 48 15 3 5 27 12 53 16 26 4 59 13 74 20 15 8 42 14 60 14 18 1 44 7 58 15 14 8 42 14 63 15 21 0 53 6 72 14 18 8 60 17 92 21 32 4 77 13 101 21 23 8 62 14 85 14 23 0 67 7 97 15 30 8 90 15 133 15 43 0 108 6 145 14 54 12 294 29 412 29 162 1 567 -18 615 -29 33 -8 87 -14 121 -14 33 0 83 -7 110 -15 27 -8 72 -15 99 -15 28 -1 70 -5 95 -11 25 -6 79 -16 120 -23 41 -6 81 -16 89 -20 7 -5 38 -12 69 -16 32 -4 71 -12 87 -18 37 -13 103 -30 170 -43 28 -6 55 -15 61 -20 6 -5 33 -12 60 -15 27 -4 61 -13 76 -20 15 -8 35 -14 45 -14 10 0 31 -7 47 -15 15 -8 36 -15 45 -15 9 -1 34 -9 56 -20 22 -11 45 -19 51 -20 7 0 25 -7 40 -15 16 -8 36 -15 45 -15 8 0 24 -7 35 -15 10 -8 27 -15 37 -15 11 0 31 -7 45 -14 15 -8 45 -23 67 -32 97 -41 134 -57 200 -89 39 -18 77 -36 85 -39 8 -3 23 -10 33 -16 21 -12 33 -19 117 -63 103 -54 152 -81 199 -111 24 -16 64 -39 89 -52 25 -13 60 -35 78 -49 18 -14 37 -25 42 -25 5 0 16 -7 23 -16 7 -9 22 -20 34 -25 34 -16 67 -37 74 -46 3 -4 31 -25 62 -46 31 -21 71 -52 89 -68 18 -17 45 -35 59 -41 30 -11 105 -2 123 15 7 7 29 23 49 37 37 26 138 136 207 225 24 30 24 31 18 235 -7 234 11 396 50 472 8 14 14 35 14 46 0 12 5 24 10 27 6 4 17 21 26 38 8 18 22 46 30 62 16 29 254 269 730 734 201 197 671 658 1304 1281 410 404 1007 990 1090 1070 199 193 724 706 739 721 9 10 34 27 56 39 22 11 47 25 55 30 47 28 163 70 225 80 28 5 64 13 80 19 41 13 222 13 265 1z m-20730 -1255 c7 -8 20 -15 30 -15 9 0 27 -9 40 -20 13 -11 26 -20 30 -20 12 0 100 -117 100 -133 0 -8 7 -20 15 -27 8 -7 15 -18 15 -24 0 -6 9 -28 20 -49 11 -20 20 -44 20 -53 0 -8 6 -25 12 -37 18 -31 38 -110 50 -192 5 -38 15 -88 21 -110 16 -55 17 -759 1 -775 -8 -8 -577 -12 -2087 -13 l-2077 -2 -27 28 -28 27 0 388 c1 287 4 397 13 427 8 22 19 65 26 95 18 74 51 164 77 210 4 8 22 44 40 79 50 101 161 201 221 201 13 0 28 4 34 9 5 5 18 11 29 14 11 3 783 5 1716 6 1497 1 1698 -1 1709 -14z m13237 0 c19 -8 44 -15 54 -15 26 0 88 -34 130 -72 70 -64 161 -250 179 -366 5 -29 14 -60 22 -69 10 -13 13 -105 11 -470 -1 -250 -5 -458 -8 -463 -8 -12 -1297 -13 -1535 -1 -94 5 -177 5 -195 -1 -16 -4 -567 -9 -1226 -11 -1001 -2 -1199 0 -1212 12 -15 12 -17 52 -17 391 0 305 3 386 15 426 8 27 15 65 15 85 0 20 9 65 20 99 11 34 20 68 20 75 0 8 7 26 14 42 8 15 17 35 20 43 3 8 10 23 16 33 5 9 15 25 20 35 6 9 15 28 22 42 17 36 150 170 168 170 9 0 25 7 36 15 16 12 239 14 1707 15 1478 0 1692 -2 1724 -15z m435 -1709 c24 -8 60 -18 80 -21 21 -4 42 -13 49 -21 6 -8 22 -14 35 -14 12 0 25 -4 29 -9 3 -6 31 -24 62 -42 77 -44 213 -181 254 -255 57 -107 86 -172 95 -214 3 -19 10 -40 15 -46 5 -7 12 -64 16 -128 l6 -115 -28 -11 c-36 -14 -162 -3 -192 16 -12 8 -28 14 -35 14 -7 0 -26 7 -41 15 -15 8 -45 17 -65 21 -20 4 -49 13 -64 20 -15 8 -43 14 -62 14 -20 0 -50 6 -68 14 -18 8 -58 19 -88 25 -113 24 -186 41 -220 51 -19 5 -57 10 -85 10 -27 0 -68 7 -90 15 -22 8 -65 14 -95 15 -30 0 -73 5 -95 11 -22 5 -102 14 -178 19 -76 5 -157 15 -180 22 -58 17 -844 17 -902 0 -23 -6 -106 -16 -185 -22 -80 -5 -163 -14 -185 -19 -22 -6 -61 -11 -86 -11 -26 0 -66 -7 -89 -15 -23 -8 -62 -15 -85 -15 -24 0 -65 -6 -91 -14 -27 -8 -74 -19 -104 -25 -63 -11 -132 -28 -175 -43 -16 -6 -50 -13 -75 -17 -25 -4 -55 -13 -67 -19 -12 -7 -34 -12 -50 -12 -15 0 -50 -8 -78 -19 -87 -32 -119 -43 -158 -51 -21 -4 -44 -13 -50 -19 -6 -6 -22 -11 -35 -11 -13 0 -38 -6 -55 -14 -18 -8 -51 -20 -74 -26 -23 -6 -45 -15 -48 -20 -3 -6 -15 -10 -25 -10 -10 0 -31 -6 -47 -14 -15 -7 -44 -20 -63 -29 -19 -8 -57 -25 -85 -38 -27 -12 -63 -28 -80 -35 -109 -46 -305 -141 -400 -194 -38 -21 -88 -48 -110 -59 -22 -11 -64 -36 -93 -56 -30 -19 -57 -35 -61 -35 -5 0 -27 -13 -49 -30 -23 -16 -45 -30 -49 -30 -9 0 -183 -119 -339 -233 -69 -50 -264 -204 -274 -217 -3 -3 -41 -35 -85 -70 -90 -73 -480 -455 -538 -528 -20 -26 -58 -69 -83 -97 -41 -44 -159 -181 -207 -239 -23 -28 -76 -99 -120 -163 -21 -29 -54 -77 -74 -105 -93 -133 -137 -199 -181 -269 -81 -133 -145 -246 -191 -339 -23 -47 -46 -92 -50 -100 -11 -20 -80 -167 -97 -207 -32 -76 -43 -100 -63 -144 -12 -25 -21 -52 -21 -60 0 -8 -7 -24 -15 -35 -8 -10 -15 -25 -15 -32 0 -8 -7 -28 -15 -45 -16 -37 -43 -109 -55 -152 -5 -16 -20 -61 -35 -100 -15 -38 -30 -88 -34 -110 -4 -22 -13 -50 -19 -62 -7 -12 -12 -33 -12 -48 0 -14 -6 -38 -14 -53 -8 -15 -17 -49 -21 -76 -4 -27 -14 -61 -21 -75 -8 -14 -14 -42 -14 -62 0 -20 -7 -53 -15 -72 -8 -20 -15 -53 -15 -74 -1 -21 -7 -56 -15 -78 -8 -22 -18 -71 -21 -110 -3 -38 -12 -89 -20 -113 -8 -23 -14 -73 -14 -110 -1 -37 -7 -94 -15 -127 -8 -33 -15 -96 -15 -141 0 -44 -7 -152 -16 -238 -12 -127 -13 -183 -5 -280 6 -66 13 -193 17 -281 3 -88 12 -191 20 -228 8 -38 14 -100 14 -139 0 -38 7 -100 14 -137 13 -58 21 -120 43 -358 l5 -52 -369 -4 c-202 -2 -2067 -3 -4143 -2 -3607 1 -3777 2 -3828 19 -29 10 -59 15 -67 12 -19 -7 -19 -55 0 -80 8 -11 15 -28 15 -39 0 -10 8 -39 18 -65 31 -77 44 -115 51 -152 4 -19 12 -44 18 -55 15 -30 44 -116 50 -150 3 -16 12 -39 19 -50 8 -11 14 -29 14 -40 0 -11 6 -32 14 -47 8 -15 17 -42 21 -60 4 -18 14 -42 21 -53 8 -11 14 -31 14 -45 0 -15 7 -35 15 -46 8 -10 15 -30 15 -44 0 -14 9 -43 20 -65 11 -22 20 -49 20 -60 0 -11 7 -29 15 -39 8 -11 15 -34 15 -52 0 -17 7 -37 15 -44 8 -7 15 -24 15 -39 1 -14 9 -44 20 -66 11 -22 20 -49 20 -60 0 -11 7 -29 15 -39 8 -11 15 -32 15 -46 0 -14 7 -35 15 -46 8 -10 15 -30 15 -44 0 -14 9 -43 20 -65 11 -22 20 -49 20 -60 0 -11 7 -29 15 -39 8 -11 15 -31 15 -44 0 -13 6 -36 14 -50 18 -37 47 -121 53 -157 3 -16 10 -36 16 -43 5 -7 13 -29 18 -50 12 -58 40 -133 85 -225 8 -16 14 -35 14 -44 0 -8 6 -27 14 -41 8 -15 24 -49 36 -77 13 -27 26 -57 31 -65 5 -8 14 -26 20 -40 23 -57 51 -110 60 -116 5 -3 9 -11 9 -19 0 -8 13 -33 29 -57 16 -24 40 -64 54 -90 14 -26 38 -66 54 -90 16 -24 32 -50 36 -58 15 -32 93 -143 174 -251 95 -125 284 -304 419 -397 64 -44 195 -125 229 -143 44 -22 66 -34 93 -49 9 -6 28 -15 42 -21 152 -69 223 -96 272 -104 20 -3 50 -12 65 -20 15 -8 42 -15 59 -15 17 0 48 -7 67 -15 20 -8 54 -15 76 -15 22 0 66 -7 98 -15 85 -22 8172 -22 8273 0 36 8 97 14 136 15 39 0 93 7 120 15 27 8 85 15 128 15 71 0 88 -4 155 -36 98 -46 146 -67 243 -108 73 -31 134 -58 160 -72 14 -8 33 -14 41 -14 8 0 20 -7 27 -15 7 -8 18 -15 26 -15 26 0 103 -60 104 -81 0 -6 -195 -105 -270 -137 -19 -8 -47 -21 -62 -29 -14 -7 -35 -13 -45 -13 -11 0 -28 -7 -39 -15 -10 -8 -28 -15 -39 -15 -11 0 -38 -9 -60 -20 -22 -11 -53 -20 -70 -20 -16 0 -41 -7 -55 -15 -14 -8 -44 -14 -67 -15 -23 0 -62 -6 -85 -14 -24 -8 -73 -16 -110 -20 -38 -3 -78 -11 -90 -18 -15 -8 -97 -14 -242 -17 -121 -4 -2018 -4 -4215 0 -3722 5 -4000 6 -4051 22 -30 9 -73 17 -96 17 -23 0 -58 7 -77 15 -20 8 -51 15 -69 15 -18 1 -44 7 -58 15 -14 8 -38 14 -53 15 -16 0 -43 6 -60 14 -18 8 -48 19 -67 25 -137 38 -484 201 -532 249 -7 7 -17 12 -23 12 -5 0 -46 25 -90 55 -44 31 -98 67 -120 82 -22 14 -104 79 -181 144 -129 108 -206 185 -324 324 -24 28 -46 52 -50 55 -16 12 -150 191 -194 260 -27 41 -56 86 -65 100 -28 44 -40 64 -56 95 -9 17 -31 57 -51 90 -31 55 -103 198 -141 285 -8 19 -22 48 -29 63 -8 16 -14 36 -14 46 0 9 -7 26 -15 37 -8 10 -15 28 -15 39 0 11 -9 34 -20 50 -11 17 -20 40 -20 51 0 12 -7 27 -15 34 -8 7 -15 22 -15 34 0 12 -7 31 -15 42 -8 10 -15 26 -15 34 0 8 -9 33 -20 55 -11 22 -19 47 -20 56 0 8 -7 24 -15 35 -8 10 -15 29 -15 41 0 12 -6 37 -14 55 -7 18 -22 58 -33 88 -11 30 -25 71 -32 90 -7 19 -17 52 -22 73 -5 21 -13 45 -18 55 -13 24 -41 110 -50 155 -5 21 -14 44 -20 50 -6 6 -11 20 -11 31 0 19 -20 77 -55 161 -18 44 -36 96 -45 130 -4 17 -15 44 -24 60 -9 17 -16 38 -16 47 0 9 -5 20 -12 24 -19 12 -177 4 -246 -11 -85 -20 -373 -20 -462 0 -36 8 -85 14 -109 15 -24 0 -64 6 -90 14 -25 8 -66 20 -91 26 -25 6 -63 15 -85 21 -22 5 -54 16 -72 24 -17 8 -36 15 -41 15 -6 0 -23 6 -39 14 -15 8 -77 38 -138 67 -60 30 -119 62 -130 72 -11 10 -42 34 -70 52 -77 52 -186 162 -243 245 -29 41 -52 80 -52 86 0 6 -7 17 -15 24 -8 7 -15 24 -15 39 -1 14 -7 37 -15 51 -22 38 -21 315 1 384 9 28 21 58 25 66 5 8 14 26 19 39 6 13 24 44 40 68 17 24 30 47 30 50 0 3 29 34 64 68 62 61 161 134 208 155 13 6 43 22 67 35 24 14 49 25 55 25 6 1 29 9 51 20 22 11 49 20 60 20 11 0 42 7 69 15 27 8 62 15 78 15 64 0 44 50 -69 165 -107 110 -219 255 -333 430 -59 91 -64 99 -100 170 -17 33 -35 67 -39 75 -5 8 -18 38 -31 65 -12 28 -28 62 -36 77 -8 14 -14 35 -14 46 0 11 -7 25 -15 32 -8 7 -15 24 -15 39 0 15 -6 35 -14 46 -7 11 -16 37 -20 57 -4 20 -13 50 -21 65 -8 15 -15 44 -15 63 -1 19 -7 46 -15 60 -8 14 -14 50 -15 81 0 31 -7 78 -15 105 -13 42 -15 221 -15 1299 l-1 1250 -22 36 c-12 20 -49 65 -81 100 -32 35 -63 76 -68 92 -6 15 -13 27 -18 27 -9 0 -80 143 -80 162 0 8 -9 40 -20 71 -20 56 -20 77 -18 936 2 667 6 881 15 892 7 8 15 34 19 57 3 23 13 47 20 53 8 6 14 20 14 30 0 19 37 77 116 180 51 66 194 189 220 189 6 0 17 7 24 15 7 8 20 15 29 15 9 0 28 6 43 14 15 8 42 17 60 21 18 4 38 11 43 15 6 4 19 10 30 13 11 2 3952 5 8757 6 7553 1 8743 -1 8780 -13z">
        </path>
        <path id="pPjrDYJJM"
            d="M17320 12696 c-3 -2 -70 -10 -150 -16 -80 -6 -167 -18 -194 -26 -27 -7 -75 -14 -107 -14 -31 0 -76 -7 -99 -15 -23 -8 -66 -15 -94 -15 -28 0 -71 -7 -96 -15 -95 -31 -184 -55 -204 -55 -12 -1 -32 -7 -46 -15 -14 -8 -38 -15 -55 -15 -16 0 -41 -7 -55 -15 -14 -8 -34 -14 -45 -15 -11 0 -32 -6 -47 -14 -15 -8 -42 -17 -60 -21 -18 -4 -42 -14 -53 -21 -11 -8 -27 -14 -36 -14 -10 0 -31 -7 -48 -15 -17 -8 -45 -22 -62 -30 -17 -8 -35 -15 -40 -15 -6 0 -40 -14 -77 -31 -37 -17 -92 -42 -122 -56 -92 -41 -260 -128 -345 -179 -22 -13 -50 -28 -63 -34 -13 -5 -52 -30 -87 -55 -36 -25 -69 -45 -75 -45 -5 0 -10 -4 -10 -9 0 -5 -24 -24 -52 -41 -60 -35 -141 -91 -178 -123 -13 -11 -49 -38 -78 -58 -180 -126 -668 -625 -824 -843 -73 -102 -188 -273 -188 -281 0 -4 -13 -24 -28 -44 -15 -20 -40 -61 -56 -91 -15 -30 -36 -68 -47 -85 -10 -16 -23 -41 -29 -55 -5 -14 -15 -32 -20 -40 -6 -8 -13 -22 -16 -30 -3 -8 -10 -22 -15 -30 -5 -8 -12 -22 -15 -30 -3 -8 -18 -42 -34 -75 -15 -33 -38 -82 -49 -110 -12 -27 -29 -63 -36 -78 -8 -16 -15 -34 -15 -40 -1 -7 -9 -30 -20 -52 -11 -22 -19 -47 -20 -56 0 -8 -7 -24 -15 -35 -8 -10 -15 -30 -15 -44 0 -14 -6 -35 -14 -46 -8 -11 -18 -37 -22 -59 -4 -21 -13 -50 -20 -64 -8 -14 -14 -40 -14 -57 0 -16 -7 -39 -15 -50 -8 -10 -15 -34 -15 -52 0 -18 -7 -49 -15 -68 -8 -19 -18 -59 -21 -87 -4 -29 -13 -66 -21 -84 -7 -18 -13 -52 -13 -76 0 -25 -7 -64 -15 -87 -8 -23 -15 -69 -15 -102 0 -32 -8 -94 -17 -136 -26 -112 -25 -814 0 -941 9 -46 17 -109 17 -141 0 -32 7 -74 15 -93 8 -20 15 -57 15 -82 0 -25 6 -60 13 -78 8 -18 17 -57 21 -87 4 -30 11 -60 17 -66 5 -6 12 -33 15 -60 4 -27 13 -58 20 -69 8 -11 14 -33 14 -50 0 -17 6 -40 14 -51 8 -11 18 -38 22 -60 4 -21 13 -48 20 -59 8 -11 14 -29 14 -40 0 -12 7 -30 15 -41 8 -10 15 -27 15 -36 0 -10 10 -39 22 -65 11 -27 27 -63 35 -80 7 -18 19 -48 27 -65 16 -39 85 -187 97 -208 5 -8 12 -22 15 -30 3 -8 10 -22 15 -30 5 -8 16 -28 24 -45 15 -29 22 -43 45 -82 6 -10 15 -29 21 -43 6 -14 16 -32 24 -40 7 -8 21 -31 32 -50 10 -19 36 -61 58 -93 22 -32 45 -66 50 -75 13 -22 48 -74 57 -87 5 -5 49 -64 100 -130 50 -66 94 -122 98 -125 4 -3 34 -39 67 -80 70 -88 324 -347 472 -481 57 -52 111 -101 120 -110 9 -9 40 -33 69 -53 29 -20 60 -43 70 -52 28 -24 153 -114 159 -114 3 0 22 -13 43 -30 20 -16 48 -34 61 -40 13 -6 38 -19 54 -30 17 -11 39 -25 50 -30 11 -6 37 -21 57 -33 46 -28 124 -70 208 -114 36 -19 72 -38 80 -42 8 -5 33 -16 55 -26 22 -9 47 -21 55 -26 8 -5 22 -12 30 -15 8 -3 33 -14 56 -25 23 -10 46 -19 52 -19 6 0 23 -6 39 -14 64 -32 256 -103 313 -115 19 -4 44 -12 55 -18 21 -11 72 -26 166 -47 30 -8 65 -18 77 -25 11 -6 38 -11 59 -11 21 -1 49 -7 63 -15 14 -8 44 -14 66 -15 23 0 61 -7 84 -15 23 -8 61 -15 84 -15 23 0 66 -7 96 -15 66 -18 403 -40 625 -40 176 0 507 20 570 35 22 5 92 13 155 16 63 4 132 13 154 21 21 7 56 13 78 13 22 0 48 5 59 11 11 5 48 15 82 20 34 6 66 14 72 18 5 5 30 12 55 16 25 4 57 14 72 21 15 8 40 14 55 14 15 0 37 7 47 15 11 8 32 15 46 15 14 0 35 7 46 15 10 8 28 15 39 15 11 0 38 9 60 20 22 11 45 19 52 20 7 0 29 7 50 16 21 9 52 22 68 28 17 7 46 20 65 29 19 9 46 21 60 27 24 10 35 15 75 38 11 7 26 14 33 17 6 3 18 7 25 10 6 3 35 18 62 34 28 16 58 30 68 30 9 1 17 5 17 10 0 5 12 14 28 20 15 6 41 20 57 31 17 11 44 26 60 34 17 9 39 21 50 28 11 7 45 28 75 47 121 76 307 202 340 232 19 17 46 39 60 47 26 17 115 90 185 153 22 20 90 80 150 134 61 55 124 115 141 134 17 20 64 74 104 121 40 47 78 90 84 95 16 13 138 173 160 208 9 16 25 36 35 46 9 9 27 35 40 56 13 22 29 45 36 50 6 6 25 32 41 58 16 27 36 59 44 72 8 12 30 48 48 79 18 30 37 58 43 61 5 4 9 12 9 20 0 8 13 33 28 57 16 24 55 97 86 163 32 66 62 127 67 135 5 8 12 22 15 30 11 30 46 106 60 132 8 14 14 35 14 45 0 11 7 28 15 39 8 10 15 26 15 34 0 8 6 27 14 42 8 15 17 42 21 60 4 18 12 39 18 46 5 7 13 29 17 50 5 20 13 51 18 67 26 76 52 172 52 191 0 12 7 35 15 50 8 16 15 46 15 66 0 21 6 55 14 75 8 21 17 66 20 101 3 35 11 72 16 83 6 11 13 59 16 107 3 48 12 119 20 159 20 105 20 822 -1 908 -8 33 -15 85 -15 115 0 30 -5 73 -11 95 -6 22 -16 72 -21 110 -6 39 -16 87 -24 108 -8 20 -14 53 -14 73 0 19 -6 47 -14 62 -7 15 -16 46 -20 68 -3 23 -13 54 -21 70 -8 16 -15 40 -15 54 -1 14 -7 36 -15 50 -8 14 -14 36 -15 50 0 14 -6 34 -14 45 -7 11 -17 35 -21 53 -4 18 -13 45 -21 60 -8 15 -14 32 -14 39 0 6 -6 24 -14 40 -8 15 -24 53 -36 83 -32 77 -51 122 -62 140 -4 8 -11 22 -14 30 -12 31 -86 177 -124 245 -21 39 -44 81 -50 95 -6 13 -14 27 -18 30 -4 3 -16 23 -27 44 -18 36 -54 92 -155 241 -19 28 -49 68 -67 91 -18 23 -33 45 -33 49 0 4 -19 31 -43 59 -23 28 -56 69 -72 91 -16 22 -32 42 -35 45 -3 3 -41 46 -85 95 -114 131 -299 318 -385 388 -41 34 -84 70 -95 80 -46 43 -219 170 -335 247 -69 45 -136 90 -150 100 -14 9 -32 19 -40 23 -8 4 -28 16 -45 27 -16 11 -43 26 -60 34 -16 9 -70 38 -120 66 -49 27 -97 53 -105 56 -8 3 -60 28 -115 55 -55 27 -104 49 -109 49 -5 0 -30 10 -55 21 -25 12 -59 27 -76 34 -16 7 -47 20 -68 29 -21 9 -45 16 -53 16 -9 0 -28 7 -42 15 -31 17 -106 44 -142 52 -14 2 -38 11 -55 18 -34 15 -99 32 -166 45 -26 5 -68 16 -93 24 -26 9 -57 16 -70 16 -13 0 -40 7 -59 15 -20 8 -52 15 -70 15 -19 0 -54 7 -77 15 -23 8 -68 15 -98 15 -31 0 -83 7 -116 15 -34 8 -135 19 -226 26 -176 13 -602 24 -610 15z m3600 -4121 c7 -8 19 -15 27 -15 18 0 98 -61 121 -92 52 -71 52 -71 52 -330 0 -133 -5 -261 -11 -283 -5 -22 -14 -84 -19 -139 -5 -54 -14 -104 -20 -111 -5 -6 -14 -38 -19 -71 -18 -110 -39 -196 -50 -207 -6 -6 -11 -23 -11 -38 0 -28 -45 -158 -61 -174 -5 -5 -9 -18 -9 -30 0 -11 -9 -38 -20 -60 -11 -22 -20 -47 -20 -56 0 -9 -7 -22 -15 -29 -8 -7 -15 -19 -15 -27 0 -8 -6 -27 -14 -41 -8 -15 -33 -65 -56 -112 -67 -136 -98 -194 -114 -215 -9 -10 -16 -23 -16 -27 0 -5 -9 -21 -19 -36 -10 -15 -40 -59 -65 -98 -25 -40 -51 -78 -58 -86 -23 -25 -58 -77 -58 -87 0 -6 -6 -14 -13 -18 -7 -4 -47 -51 -89 -103 -85 -107 -322 -351 -443 -456 -142 -124 -385 -304 -410 -304 -6 0 -24 -13 -40 -30 -16 -16 -37 -30 -46 -30 -10 0 -24 -6 -31 -12 -20 -19 -56 -38 -218 -118 -80 -39 -158 -78 -173 -86 -16 -8 -35 -14 -43 -14 -8 0 -31 -9 -51 -20 -21 -11 -44 -20 -51 -20 -8 0 -26 -6 -40 -14 -40 -20 -126 -46 -154 -46 -13 0 -33 -6 -44 -14 -11 -8 -42 -19 -70 -24 -58 -11 -130 -28 -200 -48 -28 -8 -70 -14 -94 -14 -24 0 -66 -6 -94 -14 -28 -8 -105 -20 -171 -26 -66 -5 -160 -15 -210 -21 -115 -14 -260 -7 -300 15 -16 9 -35 16 -41 16 -15 0 -124 102 -124 116 0 6 -9 23 -21 38 -18 23 -21 41 -21 129 -1 97 1 105 33 165 39 75 97 129 148 138 20 4 45 12 56 18 12 6 98 13 207 16 130 3 191 9 200 18 6 6 35 12 63 12 27 1 70 5 95 11 25 6 74 15 110 20 36 5 82 16 103 24 20 8 52 15 70 15 18 0 42 7 53 15 10 8 30 15 44 15 14 0 36 6 50 13 14 8 41 17 60 20 33 7 65 20 132 54 14 7 33 13 41 13 14 0 138 57 177 81 8 5 26 14 40 20 14 6 38 20 55 33 16 12 41 27 55 34 32 15 54 29 109 70 24 17 48 32 53 32 25 0 360 279 432 359 17 19 59 65 94 102 103 109 310 391 346 469 3 8 24 47 46 85 49 89 80 152 140 290 11 28 25 57 30 66 5 9 12 34 16 55 4 22 13 48 20 59 8 11 14 31 14 45 0 15 7 35 15 46 8 10 15 31 15 47 0 15 9 53 20 84 11 32 20 71 20 88 0 16 7 48 15 70 8 22 14 65 15 95 0 30 5 71 11 90 6 19 14 116 19 215 6 156 10 186 29 221 27 52 74 103 130 143 43 30 47 31 156 31 88 0 115 -3 125 -15z">
        </path>
        <path id="pwfV1b4Lk"
            d="M3110 13700 c-156 -15 -283 -106 -355 -254 -33 -68 -35 -78 -35 -172 0 -68 4 -106 14 -119 7 -11 17 -35 21 -52 3 -18 11 -33 16 -33 5 0 11 -11 15 -25 8 -31 88 -106 145 -136 109 -58 135 -61 529 -66 202 -2 405 0 455 6 120 13 196 30 216 47 8 8 19 14 24 14 33 0 175 167 175 206 0 8 7 28 16 45 21 42 22 199 0 245 -9 19 -24 51 -33 72 -28 63 -110 139 -192 178 -61 30 -91 38 -170 45 -114 10 -734 9 -841 -1z">
        </path>
        <path id="pMQloMzTf"
            d="M7851 13233 c-34 -7 -77 -35 -103 -68 -17 -22 -23 -45 -26 -94 -4 -62 -2 -69 30 -109 25 -33 46 -48 88 -63 53 -18 122 -18 2334 -18 1984 0 2282 2 2307 14 15 8 37 15 47 15 10 0 35 18 55 40 34 36 37 43 37 102 0 59 -3 66 -40 109 -74 87 178 79 -2407 78 -1264 -1 -2309 -4 -2322 -6z">
        </path>
        <path id="pl5nq36Es"
            d="M7995 12385 c-84 -8 -123 -17 -165 -38 -78 -37 -104 -76 -105 -153 0 -101 38 -148 145 -183 39 -13 348 -16 2285 -18 2025 -3 2245 -2 2295 13 30 8 62 20 70 25 8 5 25 13 38 19 12 5 27 21 32 34 5 13 14 27 19 31 19 11 13 127 -7 158 -26 38 -54 63 -83 72 -13 4 -32 15 -43 24 -16 14 -102 16 -910 18 -2701 8 -3467 7 -3571 -2z">
        </path>
        <path id="pZ4kgKQk9"
            d="M2093 10324 c-26 -13 -42 -35 -74 -103 -23 -47 -48 -98 -55 -113 -8 -14 -14 -33 -14 -42 0 -9 -6 -27 -14 -39 -8 -12 -17 -40 -21 -61 -4 -22 -13 -49 -21 -60 -8 -11 -14 -39 -14 -61 -1 -22 -7 -51 -15 -65 -8 -14 -14 -41 -14 -60 0 -19 -8 -92 -18 -162 -16 -118 -16 -132 0 -220 9 -52 17 -113 17 -137 0 -89 138 -272 246 -326 21 -10 46 -24 54 -31 8 -6 30 -15 48 -19 18 -4 45 -13 60 -21 15 -8 43 -14 62 -14 19 0 70 -7 113 -15 98 -19 167 -19 282 0 50 8 133 15 185 15 52 1 115 5 140 11 25 5 83 14 130 20 47 5 100 15 119 21 19 6 59 14 90 19 72 10 153 27 216 45 28 7 71 16 97 19 26 4 50 10 53 15 3 5 31 12 63 15 31 4 67 13 79 21 12 8 37 14 55 14 18 0 42 7 52 15 11 8 32 15 46 15 14 0 35 7 46 15 10 8 28 15 39 15 11 0 37 9 58 20 20 11 47 20 60 20 13 0 32 7 43 15 10 8 28 15 39 15 11 0 29 7 39 15 11 8 26 15 34 15 14 0 89 31 122 51 8 5 22 12 30 15 16 6 217 102 237 113 6 3 44 29 83 56 40 28 82 55 93 62 95 55 337 290 337 328 0 7 9 24 20 38 11 14 20 38 20 54 1 15 7 50 14 77 8 33 10 63 4 90 -4 23 -12 64 -18 91 -9 52 -34 118 -62 171 l-17 31 -143 6 c-79 4 -784 7 -1568 7 -1285 0 -1428 -2 -1457 -16z">
        </path>
    </g>
</svg>